<svg xmlns="http://www.w3.org/2000/svg" viewBox="0 0 601.36 469.84"><defs><style>.cls-1,.cls-2{fill:#7acdd6;}.cls-2{fill-rule:evenodd;}</style></defs><title>Ativo 8</title><g id="Camada_2" data-name="Camada 2"><g id="Layer_1" data-name="Layer 1"><path class="cls-1" d="M473.66,12.64h-12V4.23a4.23,4.23,0,1,0-8.45,0v8.41H441.47V4.23a4.23,4.23,0,1,0-8.45,0v8.41H421.29V4.23a4.23,4.23,0,1,0-8.45,0v8.41H401.11V4.23a4.23,4.23,0,1,0-8.45,0v8.41H380.93V4.23a4.23,4.23,0,1,0-8.45,0v8.41H360.75V4.23a4.23,4.23,0,1,0-8.45,0v8.41h-12a12.68,12.68,0,0,0-12.68,12.68V144.79a12.68,12.68,0,0,0,12.68,12.68H473.66a12.68,12.68,0,0,0,12.68-12.68V25.32A12.68,12.68,0,0,0,473.66,12.64ZM340.29,144.79V56.4h90.76a4.23,4.23,0,1,0,0-8.45H340.29V25.32h12v8.74a4.23,4.23,0,0,0,8.45,0V25.32h11.73v8.74a4.23,4.23,0,0,0,8.45,0V25.32h11.73v8.74a4.23,4.23,0,0,0,8.45,0V25.32h11.73v8.74a4.23,4.23,0,0,0,8.45,0V25.32H433v8.74a4.23,4.23,0,0,0,8.45,0V25.32H453.2v8.74a4.23,4.23,0,0,0,8.45,0V25.32h12V48h-19a4.23,4.23,0,1,0,0,8.45h19v88.39Z"/><path class="cls-1" d="M377.46,71.74H361.29a4.23,4.23,0,0,0,0,8.46h16.17a4.23,4.23,0,0,0,0-8.46Z"/><path class="cls-1" d="M377.46,87.64H361.29a4.23,4.23,0,1,0,0,8.45h16.17a4.23,4.23,0,0,0,0-8.45Z"/><path class="cls-1" d="M415.06,71.74H398.89a4.23,4.23,0,1,0,0,8.46h16.17a4.23,4.23,0,1,0,0-8.46Z"/><path class="cls-1" d="M415.06,87.64H398.89a4.23,4.23,0,1,0,0,8.45h16.17a4.23,4.23,0,1,0,0-8.45Z"/><path class="cls-1" d="M452.41,71.74H436.23a4.23,4.23,0,0,0,0,8.46h16.18a4.23,4.23,0,0,0,0-8.46Z"/><path class="cls-1" d="M452.41,87.64H436.23a4.23,4.23,0,0,0,0,8.45h16.18a4.23,4.23,0,0,0,0-8.45Z"/><path class="cls-1" d="M365.51,90V77a4.23,4.23,0,1,0-8.45,0V90a4.23,4.23,0,1,0,8.45,0Z"/><path class="cls-1" d="M381.68,90V77a4.23,4.23,0,1,0-8.45,0V90a4.23,4.23,0,1,0,8.45,0Z"/><path class="cls-1" d="M403.11,90V77a4.23,4.23,0,1,0-8.45,0V90a4.23,4.23,0,1,0,8.45,0Z"/><path class="cls-1" d="M419.29,90V77a4.23,4.23,0,1,0-8.46,0V90a4.23,4.23,0,0,0,8.46,0Z"/><path class="cls-1" d="M440.46,90V77A4.23,4.23,0,1,0,432,77V90a4.23,4.23,0,1,0,8.45,0Z"/><path class="cls-1" d="M456.63,90V77a4.23,4.23,0,1,0-8.45,0V90a4.23,4.23,0,1,0,8.45,0Z"/><path class="cls-1" d="M377.46,103.54H361.29a4.23,4.23,0,1,0,0,8.45h16.17a4.23,4.23,0,0,0,0-8.45Z"/><path class="cls-1" d="M377.46,119.44H361.29a4.23,4.23,0,1,0,0,8.45h16.17a4.23,4.23,0,0,0,0-8.45Z"/><path class="cls-1" d="M415.06,103.54H398.89a4.23,4.23,0,1,0,0,8.45h16.17a4.23,4.23,0,1,0,0-8.45Z"/><path class="cls-1" d="M415.06,119.44H398.89a4.23,4.23,0,1,0,0,8.45h16.17a4.23,4.23,0,1,0,0-8.45Z"/><path class="cls-1" d="M452.41,103.54H436.23a4.23,4.23,0,0,0,0,8.45h16.18a4.23,4.23,0,0,0,0-8.45Z"/><path class="cls-1" d="M452.41,119.44H436.23a4.23,4.23,0,0,0,0,8.45h16.18a4.23,4.23,0,0,0,0-8.45Z"/><path class="cls-1" d="M365.51,121.77v-13a4.23,4.23,0,0,0-8.45,0v13a4.23,4.23,0,0,0,8.45,0Z"/><path class="cls-1" d="M381.68,121.77v-13a4.23,4.23,0,0,0-8.45,0v13a4.23,4.23,0,0,0,8.45,0Z"/><path class="cls-1" d="M403.11,121.77v-13a4.23,4.23,0,0,0-8.45,0v13a4.23,4.23,0,0,0,8.45,0Z"/><path class="cls-1" d="M419.29,121.77v-13a4.23,4.23,0,0,0-8.46,0v13a4.23,4.23,0,0,0,8.46,0Z"/><path class="cls-1" d="M440.46,121.77v-13a4.23,4.23,0,0,0-8.45,0v13a4.23,4.23,0,0,0,8.45,0Z"/><path class="cls-1" d="M456.63,121.77v-13a4.23,4.23,0,0,0-8.45,0v13a4.23,4.23,0,0,0,8.45,0Z"/><path class="cls-2" d="M165.92,349.37c-12.63,6.38-36.64,10.21-64.38,9.2S50.12,352,38,344.72c-15.59-7-27.06-16-32.69-26.24C2.34,323,.2,327.81,0,332.93-1,361.18,44,385.75,100.47,387.81s103.15-19.2,104.18-47.45c.18-5.12-1.6-10-4.22-14.79C194.07,335.34,182,343.55,165.92,349.37Zm1.59-43.85c-12.63,6.38-36.64,10.21-64.38,9.2s-51.42-6.57-63.55-13.85c-15.59-7-27.06-16-32.69-26.24-3,4.57-5.09,9.34-5.28,14.45-1,28.25,44,52.82,100.46,54.87s103.14-19.19,104.17-47.44c.19-5.11-1.6-10-4.22-14.79C195.66,291.5,183.57,299.7,167.51,305.52ZM107.37,197.79c-50.93-1.85-93.52,15.3-102.23,39.38a23.16,23.16,0,0,0-1.94,8.06c-.25,7.07,2.36,13.9,7.32,20.21s12.25,12.09,21.34,17.05c18.18,9.93,43.55,16.59,71.8,17.61s54-3.77,72.89-12.35c9.43-4.29,17.12-9.53,22.52-15.47s8.51-12.55,8.76-19.62a23.17,23.17,0,0,0-1.34-8.18C199.54,219.83,158.31,199.64,107.37,197.79Zm-2.65,73.08C64.36,269.41,32,258.4,32.43,246.29S66,225.56,106.31,227,179,239.49,178.6,251.6,145.08,272.34,104.72,270.87Zm254.53-67.16A14.63,14.63,0,0,0,344.1,217.8l-.31,8.56-60.47-65a14.64,14.64,0,0,0-20.67-.75l-19.58,18.21-32.3-34.73A14.63,14.63,0,1,0,189.35,164l42.26,45.45a14.64,14.64,0,0,0,20.67.75L271.86,192l50.51,54.31-8.56-.31a14.62,14.62,0,1,0-1.06,29.23l43.85,1.59a14.62,14.62,0,0,0,15.14-14.08l1.6-43.85A14.64,14.64,0,0,0,359.25,203.71Z"/><path class="cls-2" d="M362.14,410.52c-7.83-24.38-49.77-43.06-100.74-43.06s-92.91,18.68-100.74,43.06a23.11,23.11,0,0,0-1.64,8.13c0,7.06,2.86,13.79,8,19.92s12.68,11.64,21.94,16.27c18.53,9.27,44.13,15,72.4,15s53.87-5.73,72.39-15c9.27-4.63,16.76-10.14,21.95-16.27s8-12.86,8-19.92A23.34,23.34,0,0,0,362.14,410.52ZM261.4,440.59c-40.39,0-73.13-9.83-73.13-21.94S221,396.71,261.4,396.71s73.13,9.82,73.13,21.94S301.79,440.59,261.4,440.59Z"/><path class="cls-2" d="M528.73,293.77a15.89,15.89,0,0,0,22-6.08c4.46-7.94,18.3-72.28,18.3-72.28s-41.8,47.72-46.26,55.67A16.87,16.87,0,0,0,528.73,293.77Zm49.2-55.5-8,14.63A48.15,48.15,0,0,1,585.22,288a8.07,8.07,0,0,0,16.14,0A64.45,64.45,0,0,0,577.93,238.27ZM540.24,240l8.37-15.36A64.41,64.41,0,0,0,472.24,288a8.07,8.07,0,0,0,16.14,0,48.42,48.42,0,0,1,48.42-48.42C538,239.62,539.08,239.88,540.24,240Z"/></g></g></svg>