<svg xmlns="http://www.w3.org/2000/svg" viewBox="0 0 261.01 252.98"><defs><style>.cls-1{opacity:0.4;}.cls-2{fill:none;stroke:#454e5b;stroke-miterlimit:10;stroke-width:1.49px;}</style></defs><title>Ativo 9</title><g id="Camada_2" data-name="Camada 2"><g id="Layer_1" data-name="Layer 1"><g class="cls-1"><line class="cls-2" x1="260.71" y1="28.25" x2="130.6" y2="86.9"/><line class="cls-2" x1="260.71" y1="83.38" x2="130.6" y2="142.03"/><line class="cls-2" x1="0.31" y1="83.38" x2="130.41" y2="142.03"/><line class="cls-2" x1="0.31" y1="28.25" x2="130.41" y2="86.9"/><line class="cls-2" x1="260.71" y1="138.52" x2="130.6" y2="197.16"/><line class="cls-2" x1="260.71" y1="193.65" x2="130.6" y2="252.3"/><line class="cls-2" x1="0.31" y1="193.65" x2="130.41" y2="252.3"/><line class="cls-2" x1="0.31" y1="138.52" x2="130.41" y2="197.16"/></g><g class="cls-1"><line class="cls-2" x1="260.71" y1="0.68" x2="130.6" y2="59.33"/><line class="cls-2" x1="260.71" y1="55.81" x2="130.6" y2="114.46"/><line class="cls-2" x1="0.31" y1="55.81" x2="130.41" y2="114.46"/><line class="cls-2" x1="0.31" y1="0.68" x2="130.41" y2="59.33"/><line class="cls-2" x1="260.71" y1="110.95" x2="130.6" y2="169.6"/><line class="cls-2" x1="260.71" y1="166.08" x2="130.6" y2="224.73"/><line class="cls-2" x1="0.31" y1="166.08" x2="130.41" y2="224.73"/><line class="cls-2" x1="0.31" y1="110.95" x2="130.41" y2="169.6"/></g></g></g></svg>