<svg xmlns="http://www.w3.org/2000/svg" viewBox="0 0 913.54 436.46"><defs><style>.cls-1,.cls-10,.cls-11,.cls-12,.cls-2,.cls-3,.cls-4,.cls-5,.cls-6,.cls-7,.cls-8,.cls-9{fill:none;stroke:#7acdd6;stroke-miterlimit:10;stroke-width:2.01px;}.cls-2{stroke-dasharray:1.98 5.95;}.cls-3{stroke-dasharray:2.01 6.04;}.cls-4{stroke-dasharray:2.01 6.04;}.cls-5{stroke-dasharray:2.01 6.03;}.cls-6{stroke-dasharray:2.02 6.07;}.cls-7{stroke-dasharray:2.02 6.06;}.cls-8{stroke-dasharray:2.01 6.03;}.cls-9{stroke-dasharray:2.01 6.04;}.cls-10{stroke-dasharray:2.01 6.03;}.cls-11{stroke-dasharray:2.01 6.03;}.cls-12{stroke-dasharray:2.01 6.04;}</style></defs><title>Ativo 10</title><g id="Camada_2" data-name="Camada 2"><g id="Layer_1" data-name="Layer 1"><line class="cls-1" x1="912.53" y1="251.12" x2="912.53" y2="252.12"/><line class="cls-2" x1="912.53" y1="258.07" x2="912.53" y2="350.25"/><line class="cls-1" x1="912.53" y1="353.22" x2="912.53" y2="354.23"/><line class="cls-1" x1="905.47" y1="251.12" x2="905.47" y2="252.12"/><line class="cls-2" x1="905.47" y1="258.07" x2="905.47" y2="350.25"/><line class="cls-1" x1="905.47" y1="353.22" x2="905.47" y2="354.23"/><line class="cls-1" x1="898.4" y1="251.12" x2="898.4" y2="252.12"/><line class="cls-2" x1="898.4" y1="258.07" x2="898.4" y2="350.25"/><line class="cls-1" x1="898.4" y1="353.22" x2="898.4" y2="354.23"/><line class="cls-1" x1="891.34" y1="251.12" x2="891.34" y2="252.12"/><line class="cls-2" x1="891.34" y1="258.07" x2="891.34" y2="350.25"/><line class="cls-1" x1="891.34" y1="353.22" x2="891.34" y2="354.23"/><line class="cls-1" x1="884.27" y1="251.12" x2="884.27" y2="252.12"/><line class="cls-2" x1="884.27" y1="258.07" x2="884.27" y2="350.25"/><line class="cls-1" x1="884.27" y1="353.22" x2="884.27" y2="354.23"/><line class="cls-1" x1="877.2" y1="251.12" x2="877.2" y2="252.12"/><line class="cls-2" x1="877.2" y1="258.07" x2="877.2" y2="350.25"/><line class="cls-1" x1="877.2" y1="353.22" x2="877.2" y2="354.23"/><line class="cls-1" x1="870.14" y1="251.12" x2="870.14" y2="252.12"/><line class="cls-2" x1="870.14" y1="258.07" x2="870.14" y2="350.25"/><line class="cls-1" x1="870.14" y1="353.22" x2="870.14" y2="354.23"/><line class="cls-1" x1="863.07" y1="251.12" x2="863.07" y2="252.12"/><line class="cls-2" x1="863.07" y1="258.07" x2="863.07" y2="350.25"/><line class="cls-1" x1="863.07" y1="353.22" x2="863.07" y2="354.23"/><line class="cls-1" x1="856.01" y1="251.12" x2="856.01" y2="252.12"/><line class="cls-2" x1="856.01" y1="258.07" x2="856.01" y2="350.25"/><line class="cls-1" x1="856.01" y1="353.22" x2="856.01" y2="354.23"/><line class="cls-1" x1="848.94" y1="251.12" x2="848.94" y2="252.12"/><line class="cls-2" x1="848.94" y1="258.07" x2="848.94" y2="350.25"/><line class="cls-1" x1="848.94" y1="353.22" x2="848.94" y2="354.23"/><line class="cls-1" x1="841.87" y1="251.12" x2="841.87" y2="252.12"/><line class="cls-2" x1="841.87" y1="258.07" x2="841.87" y2="350.25"/><line class="cls-1" x1="841.87" y1="353.22" x2="841.87" y2="354.23"/><line class="cls-1" x1="834.81" y1="251.12" x2="834.81" y2="252.12"/><line class="cls-2" x1="834.81" y1="258.07" x2="834.81" y2="350.25"/><line class="cls-1" x1="834.81" y1="353.22" x2="834.81" y2="354.23"/><line class="cls-1" x1="827.74" y1="251.12" x2="827.74" y2="252.12"/><line class="cls-2" x1="827.74" y1="258.07" x2="827.74" y2="350.25"/><line class="cls-1" x1="827.74" y1="353.22" x2="827.74" y2="354.23"/><line class="cls-1" x1="820.67" y1="251.12" x2="820.67" y2="252.12"/><line class="cls-2" x1="820.67" y1="258.07" x2="820.67" y2="350.25"/><line class="cls-1" x1="820.67" y1="353.22" x2="820.67" y2="354.23"/><line class="cls-1" x1="813.61" y1="251.12" x2="813.61" y2="252.12"/><line class="cls-2" x1="813.61" y1="258.07" x2="813.61" y2="350.25"/><line class="cls-1" x1="813.61" y1="353.22" x2="813.61" y2="354.23"/><line class="cls-1" x1="806.54" y1="251.12" x2="806.54" y2="252.12"/><line class="cls-2" x1="806.54" y1="258.07" x2="806.54" y2="350.25"/><line class="cls-1" x1="806.54" y1="353.22" x2="806.54" y2="354.23"/><line class="cls-1" x1="799.48" y1="251.12" x2="799.48" y2="252.12"/><line class="cls-2" x1="799.48" y1="258.07" x2="799.48" y2="350.25"/><line class="cls-1" x1="799.48" y1="353.22" x2="799.48" y2="354.23"/><line class="cls-1" x1="792.41" x2="792.41" y2="1"/><line class="cls-3" x1="792.41" y1="7.04" x2="792.41" y2="350.21"/><line class="cls-1" x1="792.41" y1="353.22" x2="792.41" y2="354.23"/><line class="cls-1" x1="785.34" x2="785.34" y2="1"/><line class="cls-3" x1="785.34" y1="7.04" x2="785.34" y2="350.21"/><line class="cls-1" x1="785.34" y1="353.22" x2="785.34" y2="354.23"/><line class="cls-1" x1="778.28" x2="778.28" y2="1"/><line class="cls-3" x1="778.28" y1="7.04" x2="778.28" y2="350.21"/><line class="cls-1" x1="778.28" y1="353.22" x2="778.28" y2="354.23"/><line class="cls-1" x1="771.21" y1="80.63" x2="771.21" y2="81.63"/><line class="cls-4" x1="771.21" y1="87.67" x2="771.21" y2="350.21"/><line class="cls-1" x1="771.21" y1="353.22" x2="771.21" y2="354.23"/><line class="cls-1" x1="764.15" y1="80.63" x2="764.15" y2="81.63"/><line class="cls-4" x1="764.15" y1="87.67" x2="764.15" y2="350.21"/><line class="cls-1" x1="764.15" y1="353.22" x2="764.15" y2="354.23"/><line class="cls-1" x1="757.08" y1="80.63" x2="757.08" y2="81.63"/><line class="cls-5" x1="757.08" y1="87.67" x2="757.08" y2="398.35"/><line class="cls-1" x1="757.08" y1="401.36" x2="757.08" y2="402.37"/><line class="cls-1" x1="750.01" y1="80.63" x2="750.01" y2="81.63"/><line class="cls-5" x1="750.01" y1="87.67" x2="750.01" y2="398.35"/><line class="cls-1" x1="750.01" y1="401.36" x2="750.01" y2="402.37"/><line class="cls-1" x1="742.95" y1="80.63" x2="742.95" y2="81.63"/><line class="cls-5" x1="742.95" y1="87.67" x2="742.95" y2="398.35"/><line class="cls-1" x1="742.95" y1="401.36" x2="742.95" y2="402.37"/><line class="cls-1" x1="735.88" y1="80.63" x2="735.88" y2="81.63"/><line class="cls-5" x1="735.88" y1="87.67" x2="735.88" y2="398.35"/><line class="cls-1" x1="735.88" y1="401.36" x2="735.88" y2="402.37"/><line class="cls-1" x1="728.81" y1="80.63" x2="728.81" y2="81.63"/><line class="cls-5" x1="728.81" y1="87.67" x2="728.81" y2="398.35"/><line class="cls-1" x1="728.81" y1="401.36" x2="728.81" y2="402.37"/><line class="cls-1" x1="721.75" y1="80.63" x2="721.75" y2="81.63"/><line class="cls-5" x1="721.75" y1="87.67" x2="721.75" y2="398.35"/><line class="cls-1" x1="721.75" y1="401.36" x2="721.75" y2="402.37"/><line class="cls-1" x1="714.68" y1="80.63" x2="714.68" y2="81.63"/><line class="cls-5" x1="714.68" y1="87.67" x2="714.68" y2="398.35"/><line class="cls-1" x1="714.68" y1="401.36" x2="714.68" y2="402.37"/><line class="cls-1" x1="707.62" y1="80.63" x2="707.62" y2="81.63"/><line class="cls-5" x1="707.62" y1="87.67" x2="707.62" y2="398.35"/><line class="cls-1" x1="707.62" y1="401.36" x2="707.62" y2="402.37"/><line class="cls-1" x1="700.55" y1="80.63" x2="700.55" y2="81.63"/><line class="cls-5" x1="700.55" y1="87.67" x2="700.55" y2="398.35"/><line class="cls-1" x1="700.55" y1="401.36" x2="700.55" y2="402.37"/><line class="cls-1" x1="693.48" y1="80.63" x2="693.48" y2="81.63"/><line class="cls-5" x1="693.48" y1="87.67" x2="693.48" y2="398.35"/><line class="cls-1" x1="693.48" y1="401.36" x2="693.48" y2="402.37"/><line class="cls-1" x1="686.42" y1="80.63" x2="686.42" y2="81.63"/><line class="cls-5" x1="686.42" y1="87.67" x2="686.42" y2="398.35"/><line class="cls-1" x1="686.42" y1="401.36" x2="686.42" y2="402.37"/><line class="cls-1" x1="679.35" y1="80.63" x2="679.35" y2="81.63"/><line class="cls-5" x1="679.35" y1="87.67" x2="679.35" y2="398.35"/><line class="cls-1" x1="679.35" y1="401.36" x2="679.35" y2="402.37"/><line class="cls-1" x1="672.29" y1="80.63" x2="672.29" y2="81.63"/><line class="cls-5" x1="672.29" y1="87.67" x2="672.29" y2="398.35"/><line class="cls-1" x1="672.29" y1="401.36" x2="672.29" y2="402.37"/><line class="cls-1" x1="665.22" y1="80.63" x2="665.22" y2="81.63"/><line class="cls-5" x1="665.22" y1="87.67" x2="665.22" y2="398.35"/><line class="cls-1" x1="665.22" y1="401.36" x2="665.22" y2="402.37"/><line class="cls-1" x1="658.15" y1="128.77" x2="658.15" y2="129.77"/><line class="cls-4" x1="658.15" y1="135.81" x2="658.15" y2="398.34"/><line class="cls-1" x1="658.15" y1="401.36" x2="658.15" y2="402.37"/><line class="cls-1" x1="651.09" y1="128.77" x2="651.09" y2="129.77"/><line class="cls-4" x1="651.09" y1="135.81" x2="651.09" y2="398.34"/><line class="cls-1" x1="651.09" y1="401.36" x2="651.09" y2="402.37"/><line class="cls-1" x1="644.02" y1="128.77" x2="644.02" y2="129.77"/><line class="cls-4" x1="644.02" y1="135.81" x2="644.02" y2="398.34"/><line class="cls-1" x1="644.02" y1="401.36" x2="644.02" y2="402.37"/><line class="cls-1" x1="636.96" y1="128.77" x2="636.96" y2="129.77"/><line class="cls-4" x1="636.96" y1="135.81" x2="636.96" y2="398.34"/><line class="cls-1" x1="636.96" y1="401.36" x2="636.96" y2="402.37"/><line class="cls-1" x1="629.89" y1="128.77" x2="629.89" y2="129.77"/><line class="cls-4" x1="629.89" y1="135.81" x2="629.89" y2="398.34"/><line class="cls-1" x1="629.89" y1="401.36" x2="629.89" y2="402.37"/><line class="cls-1" x1="622.82" y1="128.77" x2="622.82" y2="129.77"/><line class="cls-4" x1="622.82" y1="135.81" x2="622.82" y2="398.34"/><line class="cls-1" x1="622.82" y1="401.36" x2="622.82" y2="402.37"/><line class="cls-1" x1="615.76" y1="128.77" x2="615.76" y2="129.77"/><line class="cls-4" x1="615.76" y1="135.81" x2="615.76" y2="398.34"/><line class="cls-1" x1="615.76" y1="401.36" x2="615.76" y2="402.37"/><line class="cls-1" x1="608.69" y1="128.77" x2="608.69" y2="129.77"/><line class="cls-4" x1="608.69" y1="135.81" x2="608.69" y2="398.34"/><line class="cls-1" x1="608.69" y1="401.36" x2="608.69" y2="402.37"/><line class="cls-1" x1="601.62" y1="128.77" x2="601.62" y2="129.77"/><line class="cls-4" x1="601.62" y1="135.81" x2="601.62" y2="398.34"/><line class="cls-1" x1="601.62" y1="401.36" x2="601.62" y2="402.37"/><line class="cls-1" x1="594.56" y1="128.77" x2="594.56" y2="129.77"/><line class="cls-4" x1="594.56" y1="135.81" x2="594.56" y2="398.34"/><line class="cls-1" x1="594.56" y1="401.36" x2="594.56" y2="402.37"/><line class="cls-1" x1="587.49" y1="128.77" x2="587.49" y2="129.77"/><line class="cls-4" x1="587.49" y1="135.81" x2="587.49" y2="398.34"/><line class="cls-1" x1="587.49" y1="401.36" x2="587.49" y2="402.37"/><line class="cls-1" x1="580.43" y1="128.77" x2="580.43" y2="129.77"/><line class="cls-4" x1="580.43" y1="135.81" x2="580.43" y2="398.34"/><line class="cls-1" x1="580.43" y1="401.36" x2="580.43" y2="402.37"/><line class="cls-1" x1="573.36" y1="128.77" x2="573.36" y2="129.77"/><line class="cls-4" x1="573.36" y1="135.81" x2="573.36" y2="398.34"/><line class="cls-1" x1="573.36" y1="401.36" x2="573.36" y2="402.37"/><line class="cls-1" x1="566.29" y1="128.77" x2="566.29" y2="129.77"/><line class="cls-4" x1="566.29" y1="135.81" x2="566.29" y2="398.34"/><line class="cls-1" x1="566.29" y1="401.36" x2="566.29" y2="402.37"/><line class="cls-1" x1="559.23" y1="128.77" x2="559.23" y2="129.77"/><line class="cls-4" x1="559.23" y1="135.81" x2="559.23" y2="398.34"/><line class="cls-1" x1="559.23" y1="401.36" x2="559.23" y2="402.37"/><line class="cls-1" x1="552.16" y1="128.77" x2="552.16" y2="129.77"/><line class="cls-6" x1="552.16" y1="135.85" x2="552.16" y2="432.42"/><line class="cls-1" x1="552.16" y1="435.46" x2="552.16" y2="436.46"/><line class="cls-1" x1="545.1" y1="64.59" x2="545.1" y2="65.59"/><line class="cls-7" x1="545.1" y1="71.65" x2="545.1" y2="432.43"/><line class="cls-1" x1="545.1" y1="435.46" x2="545.1" y2="436.46"/><line class="cls-1" x1="538.03" y1="64.59" x2="538.03" y2="65.59"/><line class="cls-7" x1="538.03" y1="71.65" x2="538.03" y2="432.43"/><line class="cls-1" x1="538.03" y1="435.46" x2="538.03" y2="436.46"/><line class="cls-1" x1="530.96" y1="64.59" x2="530.96" y2="65.59"/><line class="cls-7" x1="530.96" y1="71.65" x2="530.96" y2="432.43"/><line class="cls-1" x1="530.96" y1="435.46" x2="530.96" y2="436.46"/><line class="cls-1" x1="523.9" y1="64.59" x2="523.9" y2="65.59"/><line class="cls-7" x1="523.9" y1="71.65" x2="523.9" y2="432.43"/><line class="cls-1" x1="523.9" y1="435.46" x2="523.9" y2="436.46"/><line class="cls-1" x1="516.83" y1="64.59" x2="516.83" y2="65.59"/><line class="cls-7" x1="516.83" y1="71.65" x2="516.83" y2="432.43"/><line class="cls-1" x1="516.83" y1="435.46" x2="516.83" y2="436.46"/><line class="cls-1" x1="509.76" y1="64.59" x2="509.76" y2="65.59"/><line class="cls-7" x1="509.76" y1="71.65" x2="509.76" y2="432.43"/><line class="cls-1" x1="509.76" y1="435.46" x2="509.76" y2="436.46"/><line class="cls-1" x1="502.7" y1="64.59" x2="502.7" y2="65.59"/><line class="cls-7" x1="502.7" y1="71.65" x2="502.7" y2="432.43"/><line class="cls-1" x1="502.7" y1="435.46" x2="502.7" y2="436.46"/><line class="cls-1" x1="495.63" y1="64.59" x2="495.63" y2="65.59"/><line class="cls-7" x1="495.63" y1="71.65" x2="495.63" y2="432.43"/><line class="cls-1" x1="495.63" y1="435.46" x2="495.63" y2="436.46"/><line class="cls-1" x1="488.57" y1="64.59" x2="488.57" y2="65.59"/><line class="cls-7" x1="488.57" y1="71.65" x2="488.57" y2="432.43"/><line class="cls-1" x1="488.57" y1="435.46" x2="488.57" y2="436.46"/><line class="cls-1" x1="481.5" y1="64.59" x2="481.5" y2="65.59"/><line class="cls-7" x1="481.5" y1="71.65" x2="481.5" y2="432.43"/><line class="cls-1" x1="481.5" y1="435.46" x2="481.5" y2="436.46"/><line class="cls-1" x1="474.43" y1="64.59" x2="474.43" y2="65.59"/><line class="cls-7" x1="474.43" y1="71.65" x2="474.43" y2="432.43"/><line class="cls-1" x1="474.43" y1="435.46" x2="474.43" y2="436.46"/><line class="cls-1" x1="467.37" y1="64.59" x2="467.37" y2="65.59"/><line class="cls-7" x1="467.37" y1="71.65" x2="467.37" y2="432.43"/><line class="cls-1" x1="467.37" y1="435.46" x2="467.37" y2="436.46"/><line class="cls-1" x1="460.3" y1="64.59" x2="460.3" y2="65.59"/><line class="cls-8" x1="460.3" y1="71.62" x2="460.3" y2="398.35"/><line class="cls-1" x1="460.3" y1="401.36" x2="460.3" y2="402.37"/><line class="cls-1" x1="453.24" y1="64.59" x2="453.24" y2="65.59"/><line class="cls-8" x1="453.24" y1="71.62" x2="453.24" y2="398.35"/><line class="cls-1" x1="453.24" y1="401.36" x2="453.24" y2="402.37"/><line class="cls-1" x1="446.17" y1="64.59" x2="446.17" y2="65.59"/><line class="cls-8" x1="446.17" y1="71.62" x2="446.17" y2="398.35"/><line class="cls-1" x1="446.17" y1="401.36" x2="446.17" y2="402.37"/><line class="cls-1" x1="439.1" y1="64.59" x2="439.1" y2="65.59"/><line class="cls-8" x1="439.1" y1="71.62" x2="439.1" y2="398.35"/><line class="cls-1" x1="439.1" y1="401.36" x2="439.1" y2="402.37"/><line class="cls-1" x1="432.04" y1="64.59" x2="432.04" y2="65.59"/><line class="cls-8" x1="432.04" y1="71.62" x2="432.04" y2="398.35"/><line class="cls-1" x1="432.04" y1="401.36" x2="432.04" y2="402.37"/><line class="cls-1" x1="424.97" y1="64.59" x2="424.97" y2="65.59"/><line class="cls-8" x1="424.97" y1="71.62" x2="424.97" y2="398.35"/><line class="cls-1" x1="424.97" y1="401.36" x2="424.97" y2="402.37"/><line class="cls-1" x1="417.9" y1="64.59" x2="417.9" y2="65.59"/><line class="cls-8" x1="417.9" y1="71.62" x2="417.9" y2="398.35"/><line class="cls-1" x1="417.9" y1="401.36" x2="417.9" y2="402.37"/><line class="cls-1" x1="410.84" y1="128.77" x2="410.84" y2="129.77"/><line class="cls-4" x1="410.84" y1="135.81" x2="410.84" y2="398.34"/><line class="cls-1" x1="410.84" y1="401.36" x2="410.84" y2="402.37"/><line class="cls-1" x1="403.77" y1="128.77" x2="403.77" y2="129.77"/><line class="cls-4" x1="403.77" y1="135.81" x2="403.77" y2="398.34"/><line class="cls-1" x1="403.77" y1="401.36" x2="403.77" y2="402.37"/><line class="cls-1" x1="396.71" y1="128.77" x2="396.71" y2="129.77"/><line class="cls-4" x1="396.71" y1="135.81" x2="396.71" y2="398.34"/><line class="cls-1" x1="396.71" y1="401.36" x2="396.71" y2="402.37"/><line class="cls-1" x1="389.64" y1="128.77" x2="389.64" y2="129.77"/><line class="cls-4" x1="389.64" y1="135.81" x2="389.64" y2="398.34"/><line class="cls-1" x1="389.64" y1="401.36" x2="389.64" y2="402.37"/><line class="cls-1" x1="382.57" y1="128.77" x2="382.57" y2="129.77"/><line class="cls-4" x1="382.57" y1="135.81" x2="382.57" y2="398.34"/><line class="cls-1" x1="382.57" y1="401.36" x2="382.57" y2="402.37"/><line class="cls-1" x1="375.51" y1="128.77" x2="375.51" y2="129.77"/><line class="cls-4" x1="375.51" y1="135.81" x2="375.51" y2="398.34"/><line class="cls-1" x1="375.51" y1="401.36" x2="375.51" y2="402.37"/><line class="cls-1" x1="368.44" y1="128.77" x2="368.44" y2="129.77"/><line class="cls-4" x1="368.44" y1="135.81" x2="368.44" y2="398.34"/><line class="cls-1" x1="368.44" y1="401.36" x2="368.44" y2="402.37"/><line class="cls-1" x1="361.38" y1="128.77" x2="361.38" y2="129.77"/><line class="cls-4" x1="361.38" y1="135.81" x2="361.38" y2="398.34"/><line class="cls-1" x1="361.38" y1="401.36" x2="361.38" y2="402.37"/><line class="cls-1" x1="354.31" y1="128.77" x2="354.31" y2="129.77"/><line class="cls-4" x1="354.31" y1="135.81" x2="354.31" y2="398.34"/><line class="cls-1" x1="354.31" y1="401.36" x2="354.31" y2="402.37"/><line class="cls-1" x1="347.24" y1="128.77" x2="347.24" y2="129.77"/><line class="cls-4" x1="347.24" y1="135.81" x2="347.24" y2="398.34"/><line class="cls-1" x1="347.24" y1="401.36" x2="347.24" y2="402.37"/><line class="cls-1" x1="340.18" y1="128.77" x2="340.18" y2="129.77"/><line class="cls-4" x1="340.18" y1="135.81" x2="340.18" y2="398.34"/><line class="cls-1" x1="340.18" y1="401.36" x2="340.18" y2="402.37"/><line class="cls-1" x1="333.11" y1="96.68" x2="333.11" y2="97.68"/><line class="cls-9" x1="333.11" y1="103.72" x2="333.11" y2="334.16"/><line class="cls-1" x1="333.11" y1="337.18" x2="333.11" y2="338.18"/><line class="cls-1" x1="326.05" y1="96.68" x2="326.05" y2="97.68"/><line class="cls-9" x1="326.05" y1="103.72" x2="326.05" y2="334.16"/><line class="cls-1" x1="326.05" y1="337.18" x2="326.05" y2="338.18"/><line class="cls-1" x1="318.98" y1="96.68" x2="318.98" y2="97.68"/><line class="cls-9" x1="318.98" y1="103.72" x2="318.98" y2="334.16"/><line class="cls-1" x1="318.98" y1="337.18" x2="318.98" y2="338.18"/><line class="cls-1" x1="311.91" y1="96.68" x2="311.91" y2="97.68"/><line class="cls-9" x1="311.91" y1="103.72" x2="311.91" y2="334.16"/><line class="cls-1" x1="311.91" y1="337.18" x2="311.91" y2="338.18"/><line class="cls-1" x1="304.85" y1="96.68" x2="304.85" y2="97.68"/><line class="cls-9" x1="304.85" y1="103.72" x2="304.85" y2="334.16"/><line class="cls-1" x1="304.85" y1="337.18" x2="304.85" y2="338.18"/><line class="cls-1" x1="297.78" y1="32.49" x2="297.78" y2="33.5"/><line class="cls-10" x1="297.78" y1="39.53" x2="297.78" y2="334.16"/><line class="cls-1" x1="297.78" y1="337.18" x2="297.78" y2="338.18"/><line class="cls-1" x1="290.71" y1="32.49" x2="290.71" y2="33.5"/><line class="cls-10" x1="290.71" y1="39.53" x2="290.71" y2="334.16"/><line class="cls-1" x1="290.71" y1="337.18" x2="290.71" y2="338.18"/><line class="cls-1" x1="283.65" y1="32.49" x2="283.65" y2="33.5"/><line class="cls-10" x1="283.65" y1="39.53" x2="283.65" y2="334.16"/><line class="cls-1" x1="283.65" y1="337.18" x2="283.65" y2="338.18"/><line class="cls-1" x1="276.58" y1="32.49" x2="276.58" y2="33.5"/><line class="cls-10" x1="276.58" y1="39.53" x2="276.58" y2="334.16"/><line class="cls-1" x1="276.58" y1="337.18" x2="276.58" y2="338.18"/><line class="cls-1" x1="269.52" y1="32.49" x2="269.52" y2="33.5"/><line class="cls-10" x1="269.52" y1="39.53" x2="269.52" y2="334.16"/><line class="cls-1" x1="269.52" y1="337.18" x2="269.52" y2="338.18"/><line class="cls-1" x1="262.45" y1="32.49" x2="262.45" y2="33.5"/><line class="cls-10" x1="262.45" y1="39.53" x2="262.45" y2="334.16"/><line class="cls-1" x1="262.45" y1="337.18" x2="262.45" y2="338.18"/><line class="cls-1" x1="255.38" y1="32.49" x2="255.38" y2="33.5"/><line class="cls-10" x1="255.38" y1="39.53" x2="255.38" y2="334.16"/><line class="cls-1" x1="255.38" y1="337.18" x2="255.38" y2="338.18"/><line class="cls-1" x1="248.32" y1="32.49" x2="248.32" y2="33.5"/><line class="cls-11" x1="248.32" y1="39.53" x2="248.32" y2="398.35"/><line class="cls-1" x1="248.32" y1="401.36" x2="248.32" y2="402.37"/><line class="cls-1" x1="241.25" y1="32.49" x2="241.25" y2="33.5"/><line class="cls-11" x1="241.25" y1="39.53" x2="241.25" y2="398.35"/><line class="cls-1" x1="241.25" y1="401.36" x2="241.25" y2="402.37"/><line class="cls-1" x1="234.19" y1="32.49" x2="234.19" y2="33.5"/><line class="cls-11" x1="234.19" y1="39.53" x2="234.19" y2="398.35"/><line class="cls-1" x1="234.19" y1="401.36" x2="234.19" y2="402.37"/><line class="cls-1" x1="227.12" y1="32.49" x2="227.12" y2="33.5"/><line class="cls-11" x1="227.12" y1="39.53" x2="227.12" y2="398.35"/><line class="cls-1" x1="227.12" y1="401.36" x2="227.12" y2="402.37"/><line class="cls-1" x1="220.05" y1="32.49" x2="220.05" y2="33.5"/><line class="cls-11" x1="220.05" y1="39.53" x2="220.05" y2="398.35"/><line class="cls-1" x1="220.05" y1="401.36" x2="220.05" y2="402.37"/><line class="cls-1" x1="212.99" y1="32.49" x2="212.99" y2="33.5"/><line class="cls-11" x1="212.99" y1="39.53" x2="212.99" y2="398.35"/><line class="cls-1" x1="212.99" y1="401.36" x2="212.99" y2="402.37"/><line class="cls-1" x1="205.92" y1="32.49" x2="205.92" y2="33.5"/><line class="cls-11" x1="205.92" y1="39.53" x2="205.92" y2="398.35"/><line class="cls-1" x1="205.92" y1="401.36" x2="205.92" y2="402.37"/><line class="cls-1" x1="198.85" y1="32.49" x2="198.85" y2="33.5"/><line class="cls-11" x1="198.85" y1="39.53" x2="198.85" y2="398.35"/><line class="cls-1" x1="198.85" y1="401.36" x2="198.85" y2="402.37"/><line class="cls-1" x1="191.79" y1="32.49" x2="191.79" y2="33.5"/><line class="cls-11" x1="191.79" y1="39.53" x2="191.79" y2="398.35"/><line class="cls-1" x1="191.79" y1="401.36" x2="191.79" y2="402.37"/><line class="cls-1" x1="184.72" y1="32.49" x2="184.72" y2="33.5"/><line class="cls-11" x1="184.72" y1="39.53" x2="184.72" y2="398.35"/><line class="cls-1" x1="184.72" y1="401.36" x2="184.72" y2="402.37"/><line class="cls-1" x1="177.66" y1="32.49" x2="177.66" y2="33.5"/><line class="cls-11" x1="177.66" y1="39.53" x2="177.66" y2="398.35"/><line class="cls-1" x1="177.66" y1="401.36" x2="177.66" y2="402.37"/><line class="cls-1" x1="170.59" y1="32.49" x2="170.59" y2="33.5"/><line class="cls-11" x1="170.59" y1="39.53" x2="170.59" y2="398.35"/><line class="cls-1" x1="170.59" y1="401.36" x2="170.59" y2="402.37"/><line class="cls-1" x1="163.52" y1="96.68" x2="163.52" y2="97.68"/><line class="cls-10" x1="163.52" y1="103.71" x2="163.52" y2="398.35"/><line class="cls-1" x1="163.52" y1="401.36" x2="163.52" y2="402.37"/><line class="cls-1" x1="156.46" y1="96.68" x2="156.46" y2="97.68"/><line class="cls-10" x1="156.46" y1="103.71" x2="156.46" y2="398.35"/><line class="cls-1" x1="156.46" y1="401.36" x2="156.46" y2="402.37"/><line class="cls-1" x1="149.39" y1="96.68" x2="149.39" y2="97.68"/><line class="cls-10" x1="149.39" y1="103.71" x2="149.39" y2="398.35"/><line class="cls-1" x1="149.39" y1="401.36" x2="149.39" y2="402.37"/><line class="cls-1" x1="142.33" y1="96.68" x2="142.33" y2="97.68"/><line class="cls-10" x1="142.33" y1="103.71" x2="142.33" y2="398.35"/><line class="cls-1" x1="142.33" y1="401.36" x2="142.33" y2="402.37"/><line class="cls-1" x1="135.26" y1="96.68" x2="135.26" y2="97.68"/><line class="cls-10" x1="135.26" y1="103.71" x2="135.26" y2="398.35"/><line class="cls-1" x1="135.26" y1="401.36" x2="135.26" y2="402.37"/><line class="cls-1" x1="128.19" y1="96.68" x2="128.19" y2="97.68"/><line class="cls-10" x1="128.19" y1="103.71" x2="128.19" y2="398.35"/><line class="cls-1" x1="128.19" y1="401.36" x2="128.19" y2="402.37"/><line class="cls-1" x1="121.13" y1="96.68" x2="121.13" y2="97.68"/><line class="cls-10" x1="121.13" y1="103.71" x2="121.13" y2="398.35"/><line class="cls-1" x1="121.13" y1="401.36" x2="121.13" y2="402.37"/><line class="cls-1" x1="114.06" y1="96.68" x2="114.06" y2="97.68"/><line class="cls-10" x1="114.06" y1="103.71" x2="114.06" y2="398.35"/><line class="cls-1" x1="114.06" y1="401.36" x2="114.06" y2="402.37"/><line class="cls-1" x1="106.99" y1="96.68" x2="106.99" y2="97.68"/><line class="cls-10" x1="106.99" y1="103.71" x2="106.99" y2="398.35"/><line class="cls-1" x1="106.99" y1="401.36" x2="106.99" y2="402.37"/><line class="cls-1" x1="99.93" y1="96.68" x2="99.93" y2="97.68"/><line class="cls-12" x1="99.93" y1="103.73" x2="99.93" y2="229.66"/><line class="cls-1" x1="99.93" y1="232.68" x2="99.93" y2="233.68"/><line class="cls-1" x1="92.86" y1="96.68" x2="92.86" y2="97.68"/><line class="cls-12" x1="92.86" y1="103.73" x2="92.86" y2="229.66"/><line class="cls-1" x1="92.86" y1="232.68" x2="92.86" y2="233.68"/><line class="cls-1" x1="85.8" y1="96.68" x2="85.8" y2="97.68"/><line class="cls-12" x1="85.8" y1="103.73" x2="85.8" y2="229.66"/><line class="cls-1" x1="85.8" y1="232.68" x2="85.8" y2="233.68"/><line class="cls-1" x1="78.73" y1="96.68" x2="78.73" y2="97.68"/><line class="cls-12" x1="78.73" y1="103.73" x2="78.73" y2="229.66"/><line class="cls-1" x1="78.73" y1="232.68" x2="78.73" y2="233.68"/><line class="cls-1" x1="71.66" y1="96.68" x2="71.66" y2="97.68"/><line class="cls-12" x1="71.66" y1="103.73" x2="71.66" y2="229.66"/><line class="cls-1" x1="71.66" y1="232.68" x2="71.66" y2="233.68"/><line class="cls-1" x1="64.6" y1="96.68" x2="64.6" y2="97.68"/><line class="cls-12" x1="64.6" y1="103.73" x2="64.6" y2="229.66"/><line class="cls-1" x1="64.6" y1="232.68" x2="64.6" y2="233.68"/><line class="cls-1" x1="57.53" y1="96.68" x2="57.53" y2="97.68"/><line class="cls-12" x1="57.53" y1="103.73" x2="57.53" y2="229.66"/><line class="cls-1" x1="57.53" y1="232.68" x2="57.53" y2="233.68"/><line class="cls-1" x1="50.47" y1="96.68" x2="50.47" y2="97.68"/><line class="cls-12" x1="50.47" y1="103.73" x2="50.47" y2="229.66"/><line class="cls-1" x1="50.47" y1="232.68" x2="50.47" y2="233.68"/><line class="cls-1" x1="43.4" y1="96.68" x2="43.4" y2="97.68"/><line class="cls-12" x1="43.4" y1="103.73" x2="43.4" y2="229.66"/><line class="cls-1" x1="43.4" y1="232.68" x2="43.4" y2="233.68"/><line class="cls-1" x1="36.33" y1="96.68" x2="36.33" y2="97.68"/><line class="cls-12" x1="36.33" y1="103.73" x2="36.33" y2="229.66"/><line class="cls-1" x1="36.33" y1="232.68" x2="36.33" y2="233.68"/><line class="cls-1" x1="29.27" y1="96.68" x2="29.27" y2="97.68"/><line class="cls-12" x1="29.27" y1="103.73" x2="29.27" y2="229.66"/><line class="cls-1" x1="29.27" y1="232.68" x2="29.27" y2="233.68"/><line class="cls-1" x1="22.2" y1="96.68" x2="22.2" y2="97.68"/><line class="cls-12" x1="22.2" y1="103.73" x2="22.2" y2="229.66"/><line class="cls-1" x1="22.2" y1="232.68" x2="22.2" y2="233.68"/><line class="cls-1" x1="15.14" y1="96.68" x2="15.14" y2="97.68"/><line class="cls-12" x1="15.14" y1="103.73" x2="15.14" y2="229.66"/><line class="cls-1" x1="15.14" y1="232.68" x2="15.14" y2="233.68"/><line class="cls-1" x1="8.07" y1="96.68" x2="8.07" y2="97.68"/><line class="cls-12" x1="8.07" y1="103.73" x2="8.07" y2="229.66"/><line class="cls-1" x1="8.07" y1="232.68" x2="8.07" y2="233.68"/><line class="cls-1" x1="1" y1="96.68" x2="1" y2="97.68"/><line class="cls-12" x1="1" y1="103.73" x2="1" y2="229.66"/><line class="cls-1" x1="1" y1="232.68" x2="1" y2="233.68"/></g></g></svg>