<svg xmlns="http://www.w3.org/2000/svg" viewBox="0 0 488.44 252.71"><defs><style>.cls-1{fill:#454e5b;stroke:#454e5b;stroke-miterlimit:10;stroke-width:1.08px;opacity:0.4;}</style></defs><title>Ativo 3</title><g id="Camada_2" data-name="Camada 2"><g id="Layer_1" data-name="Layer 1"><line class="cls-1" x1="363.22" y1="69.41" x2="363.22" y2="183.3"/><line class="cls-1" x1="374.56" y1="86.45" x2="374.56" y2="166.26"/><line class="cls-1" x1="385.89" y1="95.3" x2="385.89" y2="157.41"/><line class="cls-1" x1="397.23" y1="103.88" x2="397.23" y2="148.83"/><line class="cls-1" x1="408.56" y1="102.84" x2="408.56" y2="149.87"/><line class="cls-1" x1="419.89" y1="114.76" x2="419.89" y2="137.95"/><line class="cls-1" x1="431.23" y1="114.22" x2="431.23" y2="138.48"/><line class="cls-1" x1="442.56" y1="85.41" x2="442.56" y2="167.3"/><line class="cls-1" x1="453.9" y1="113.91" x2="453.9" y2="138.8"/><line class="cls-1" x1="465.23" y1="105.23" x2="465.23" y2="147.47"/><line class="cls-1" x1="476.56" y1="119.93" x2="476.56" y2="132.77"/><line class="cls-1" x1="487.9" y1="114.46" x2="487.9" y2="138.25"/><line class="cls-1" x1="351.89" y1="252.71" x2="351.89"/><line class="cls-1" x1="340.56" y1="219.36" x2="340.56" y2="33.35"/><line class="cls-1" x1="329.22" y1="191.53" x2="329.22" y2="61.18"/><line class="cls-1" x1="317.89" y1="177.07" x2="317.89" y2="75.63"/><line class="cls-1" x1="306.55" y1="163.06" x2="306.55" y2="89.64"/><line class="cls-1" x1="295.22" y1="164.76" x2="295.22" y2="87.94"/><line class="cls-1" x1="283.89" y1="145.29" x2="283.89" y2="107.42"/><line class="cls-1" x1="272.55" y1="146.17" x2="272.55" y2="106.54"/><line class="cls-1" x1="261.22" y1="193.23" x2="261.22" y2="59.48"/><line class="cls-1" x1="249.89" y1="146.68" x2="249.89" y2="106.02"/><line class="cls-1" x1="238.55" y1="160.85" x2="238.55" y2="91.86"/><line class="cls-1" x1="227.22" y1="136.84" x2="227.22" y2="115.87"/><line class="cls-1" x1="215.88" y1="145.78" x2="215.88" y2="106.92"/><line class="cls-1" x1="204.55" y1="146.68" x2="204.55" y2="106.02"/><line class="cls-1" x1="193.22" y1="136.38" x2="193.22" y2="116.33"/><line class="cls-1" x1="181.88" y1="136.84" x2="181.88" y2="115.87"/><line class="cls-1" x1="170.55" y1="157.68" x2="170.55" y2="95.03"/><line class="cls-1" x1="159.21" y1="151.4" x2="159.21" y2="101.31"/><line class="cls-1" x1="147.88" y1="168.85" x2="147.88" y2="83.86"/><line class="cls-1" x1="136.55" y1="139.27" x2="136.55" y2="113.44"/><line class="cls-1" x1="125.21" y1="150.29" x2="125.21" y2="102.42"/><line class="cls-1" x1="113.88" y1="151.4" x2="113.88" y2="101.31"/><line class="cls-1" x1="102.54" y1="138.7" x2="102.54" y2="114.01"/><line class="cls-1" x1="91.21" y1="139.27" x2="91.21" y2="113.44"/><line class="cls-1" x1="79.88" y1="150.29" x2="79.88" y2="102.42"/><line class="cls-1" x1="68.54" y1="139.61" x2="68.54" y2="113.1"/><line class="cls-1" x1="57.21" y1="116.33" x2="57.21" y2="136.38"/><line class="cls-1" x1="45.87" y1="133.19" x2="45.87" y2="119.52"/><line class="cls-1" x1="34.54" y1="139.02" x2="34.54" y2="113.69"/><line class="cls-1" x1="23.21" y1="139.61" x2="23.21" y2="113.1"/><line class="cls-1" x1="11.87" y1="132.89" x2="11.87" y2="119.82"/><line class="cls-1" x1="0.54" y1="133.19" x2="0.54" y2="119.52"/></g></g></svg>