<svg xmlns="http://www.w3.org/2000/svg" viewBox="0 0 503.87 470.3"><defs><style>.cls-1,.cls-2{fill:#7acdd6;}.cls-2{fill-rule:evenodd;}</style></defs><title>Ativo 2</title><g id="Camada_2" data-name="Camada 2"><g id="Layer_1" data-name="Layer 1"><path class="cls-1" d="M176.44,100.5a59.6,59.6,0,1,0-59.6,59.6A59.67,59.67,0,0,0,176.44,100.5Zm-59.6,44a44,44,0,1,1,44-44A44.09,44.09,0,0,1,116.84,144.54Z"/><path class="cls-1" d="M15.09,118H27.86v0A15.41,15.41,0,0,0,43,102.57V75.06a15.23,15.23,0,0,0-3.53-9.69A82.46,82.46,0,0,1,199.15,94.28v11.31a81.73,81.73,0,0,1-10.42,39.8,15.3,15.3,0,0,0-6.29-1.53v0H169.67v0a15.41,15.41,0,0,0-15.09,15.4v8.14a15.41,15.41,0,0,0,15.09,15.39v0h12.77v0a15.41,15.41,0,0,0,15.09-15.39v-8.14a15.11,15.11,0,0,0-.72-4.43,93.65,93.65,0,0,0,13.64-41,6,6,0,0,0,.43-2.2V88.17a5.76,5.76,0,0,0-.41-2.12A94.2,94.2,0,0,0,28.94,59.79c-.36,0-.71-.12-1.08-.13v0H15.09v0A15.42,15.42,0,0,0,0,75.06v27.51A15.41,15.41,0,0,0,15.09,118Zm167,49.4H170v-8.14H182.1ZM15.43,75.06h12.1v27.51H15.43Z"/><path class="cls-1" d="M219.52,221.15a119.22,119.22,0,0,0-17.84-23.5,2.75,2.75,0,0,0-3.14-.53C195,198.74,188.6,200,185,200.57a1.25,1.25,0,0,0-.6,2.19,102.58,102.58,0,0,1,19.29,22.29A103.47,103.47,0,0,1,122,272.5V238.19a5.19,5.19,0,0,0-10.38,0V272.5A103.47,103.47,0,0,1,30,225.05a103,103,0,0,1,28.57-29.53C66,208.31,76.8,223.76,90.83,235A5.08,5.08,0,0,0,97.1,235c2.57-2,5.1-4.28,7.77-6.7a96.45,96.45,0,0,1,12-9.7,95,95,0,0,1,12,9.7c2.67,2.41,5.19,4.69,7.76,6.68a5.16,5.16,0,0,0,6.43-.05c11.34-9.12,20.57-21,27.6-31.95a1.35,1.35,0,0,0-1.07-2.07c-2.28-.14-5.73-.37-7.85-.65a2.56,2.56,0,0,0-2.46,1.12,123.33,123.33,0,0,1-19.5,22.75c-1.28-1.11-2.6-2.3-4-3.53-2.79-2.51-5.63-5.06-8.58-7.36A91.18,91.18,0,0,0,148,193.12a1.44,1.44,0,0,0-.14-1.82c-2.39-2.68-4.63-7.93-5.52-12.26-.38-1.87-1.45-3.37-3.3-.95-4.81,6.28-14.52,18.27-22.19,23.36a75.49,75.49,0,0,1-26.25-30,7.74,7.74,0,0,0-9.3-4,118.36,118.36,0,0,0-67.12,53.79,7.75,7.75,0,0,0,0,7.79,118.56,118.56,0,0,0,205.35,0A7.75,7.75,0,0,0,219.52,221.15ZM79.86,184.33a90.72,90.72,0,0,0,26.65,28.86c-3,2.3-5.8,4.85-8.58,7.36-1.36,1.23-2.68,2.42-4,3.53-11.31-10.05-20.24-23-26.56-34A102.69,102.69,0,0,1,79.86,184.33Z"/><path class="cls-2" d="M494.14,256.53H445.51a9.73,9.73,0,0,1-9.73-9.73V198.17a9.73,9.73,0,0,1,9.73-9.72h48.63a9.73,9.73,0,0,1,9.73,9.72V246.8A9.73,9.73,0,0,1,494.14,256.53Zm-9.73-38.91a9.73,9.73,0,0,0-9.72-9.73H465a9.73,9.73,0,0,0-9.73,9.73v9.73a9.73,9.73,0,0,0,9.73,9.73h9.73a9.73,9.73,0,0,0,9.72-9.73ZM501,166.14a9.7,9.7,0,0,1-6.88,2.85H445.51a9.72,9.72,0,0,1-9-5.94,9.54,9.54,0,0,1-.77-3.79V110.64a9.73,9.73,0,0,1,9.73-9.73h48.63a9.73,9.73,0,0,1,9.73,9.73v9.72h0v38.9A9.7,9.7,0,0,1,501,166.14ZM423.21,224.5h0L403.76,244h0A9.73,9.73,0,1,1,390,230.2h0l3.22-3.22a48.39,48.39,0,0,1,0-96.53L390,127.24h0a9.73,9.73,0,0,1,13.76-13.76h0l19.45,19.45h0a9.73,9.73,0,0,1,0,13.76h0l-19.45,19.45h0A9.73,9.73,0,1,1,390,152.39h0l2.4-2.4a29.05,29.05,0,0,0,0,57.45l-2.4-2.39h0a9.73,9.73,0,0,1,13.76-13.76h0l19.45,19.45h0a9.73,9.73,0,0,1,0,13.76Z"/><path class="cls-2" d="M279.73,403.79l0,0-1.07.64a43,43,0,0,1,0,17.12l1.07.64,0,0a14.27,14.27,0,1,1-14.68,24.47l0,0-1.25-.74a42.51,42.51,0,0,1-12.86,7.31V456a14.32,14.32,0,0,1-28.64,0v-2.63A42.39,42.39,0,0,1,209.42,446l-1.25.74,0,0a14.27,14.27,0,1,1-14.67-24.47l0,0,1.07-.64a43,43,0,0,1,0-17.12l-1.07-.64,0,0a14.27,14.27,0,1,1,14.67-24.47l0,0,1.25.75a42.21,42.21,0,0,1,12.86-7.32v-2.63a14.32,14.32,0,1,1,28.64,0v2.63A42.33,42.33,0,0,1,263.78,380l1.25-.75,0,0a14.27,14.27,0,1,1,14.68,24.47ZM236.6,384.4A28.64,28.64,0,1,0,265.23,413,28.63,28.63,0,0,0,236.6,384.4Zm0,43A14.32,14.32,0,1,1,250.92,413,14.32,14.32,0,0,1,236.6,427.35Z"/></g></g></svg>