<svg xmlns="http://www.w3.org/2000/svg" viewBox="0 0 808.79 356.23"><defs><style>.cls-1,.cls-10,.cls-11,.cls-2,.cls-3,.cls-4,.cls-5,.cls-6,.cls-7,.cls-8,.cls-9{fill:none;stroke:#7acdd6;stroke-miterlimit:10;stroke-width:1.78px;}.cls-2{stroke-dasharray:1.76 5.27;}.cls-3{stroke-dasharray:1.78 5.35;}.cls-4{stroke-dasharray:1.78 5.34;}.cls-5{stroke-dasharray:1.78 5.35;}.cls-6{stroke-dasharray:1.79 5.36;}.cls-7{stroke-dasharray:1.78 5.35;}.cls-8{stroke-dasharray:1.78 5.34;}.cls-9{stroke-dasharray:1.78 5.34;}.cls-10{stroke-dasharray:1.78 5.34;}.cls-11{stroke-dasharray:1.78 5.35;}</style></defs><title>Ativo 13</title><g id="Camada_2" data-name="Camada 2"><g id="Layer_1" data-name="Layer 1"><line class="cls-1" x1="807.9" y1="222.33" x2="807.9" y2="223.21"/><line class="cls-2" x1="807.9" y1="228.48" x2="807.9" y2="310.09"/><line class="cls-1" x1="807.9" y1="312.72" x2="807.9" y2="313.61"/><line class="cls-1" x1="801.64" y1="222.33" x2="801.64" y2="223.21"/><line class="cls-2" x1="801.64" y1="228.48" x2="801.64" y2="310.09"/><line class="cls-1" x1="801.64" y1="312.72" x2="801.64" y2="313.61"/><line class="cls-1" x1="795.39" y1="222.33" x2="795.39" y2="223.21"/><line class="cls-2" x1="795.39" y1="228.48" x2="795.39" y2="310.09"/><line class="cls-1" x1="795.39" y1="312.72" x2="795.39" y2="313.61"/><line class="cls-1" x1="789.13" y1="222.33" x2="789.13" y2="223.21"/><line class="cls-2" x1="789.13" y1="228.48" x2="789.13" y2="310.09"/><line class="cls-1" x1="789.13" y1="312.72" x2="789.13" y2="313.61"/><line class="cls-1" x1="782.87" y1="222.33" x2="782.87" y2="223.21"/><line class="cls-2" x1="782.87" y1="228.48" x2="782.87" y2="310.09"/><line class="cls-1" x1="782.87" y1="312.72" x2="782.87" y2="313.61"/><line class="cls-1" x1="776.62" y1="222.33" x2="776.62" y2="223.21"/><line class="cls-2" x1="776.62" y1="228.48" x2="776.62" y2="310.09"/><line class="cls-1" x1="776.62" y1="312.72" x2="776.62" y2="313.61"/><line class="cls-1" x1="770.36" y1="222.33" x2="770.36" y2="223.21"/><line class="cls-2" x1="770.36" y1="228.48" x2="770.36" y2="310.09"/><line class="cls-1" x1="770.36" y1="312.72" x2="770.36" y2="313.61"/><line class="cls-1" x1="764.11" y1="222.33" x2="764.11" y2="223.21"/><line class="cls-2" x1="764.11" y1="228.48" x2="764.11" y2="310.09"/><line class="cls-1" x1="764.11" y1="312.72" x2="764.11" y2="313.61"/><line class="cls-1" x1="757.85" y1="222.33" x2="757.85" y2="223.21"/><line class="cls-2" x1="757.85" y1="228.48" x2="757.85" y2="310.09"/><line class="cls-1" x1="757.85" y1="312.72" x2="757.85" y2="313.61"/><line class="cls-1" x1="751.6" y1="222.33" x2="751.6" y2="223.21"/><line class="cls-2" x1="751.6" y1="228.48" x2="751.6" y2="310.09"/><line class="cls-1" x1="751.6" y1="312.72" x2="751.6" y2="313.61"/><line class="cls-1" x1="745.34" y1="222.33" x2="745.34" y2="223.21"/><line class="cls-2" x1="745.34" y1="228.48" x2="745.34" y2="310.09"/><line class="cls-1" x1="745.34" y1="312.72" x2="745.34" y2="313.61"/><line class="cls-1" x1="739.08" y1="222.33" x2="739.08" y2="223.21"/><line class="cls-2" x1="739.08" y1="228.48" x2="739.08" y2="310.09"/><line class="cls-1" x1="739.08" y1="312.72" x2="739.08" y2="313.61"/><line class="cls-1" x1="732.83" y1="222.33" x2="732.83" y2="223.21"/><line class="cls-2" x1="732.83" y1="228.48" x2="732.83" y2="310.09"/><line class="cls-1" x1="732.83" y1="312.72" x2="732.83" y2="313.61"/><line class="cls-1" x1="726.57" y1="222.33" x2="726.57" y2="223.21"/><line class="cls-2" x1="726.57" y1="228.48" x2="726.57" y2="310.09"/><line class="cls-1" x1="726.57" y1="312.72" x2="726.57" y2="313.61"/><line class="cls-1" x1="720.32" y1="222.33" x2="720.32" y2="223.21"/><line class="cls-2" x1="720.32" y1="228.48" x2="720.32" y2="310.09"/><line class="cls-1" x1="720.32" y1="312.72" x2="720.32" y2="313.61"/><line class="cls-1" x1="714.06" y1="222.33" x2="714.06" y2="223.21"/><line class="cls-2" x1="714.06" y1="228.48" x2="714.06" y2="310.09"/><line class="cls-1" x1="714.06" y1="312.72" x2="714.06" y2="313.61"/><line class="cls-1" x1="707.8" y1="222.33" x2="707.8" y2="223.21"/><line class="cls-2" x1="707.8" y1="228.48" x2="707.8" y2="310.09"/><line class="cls-1" x1="707.8" y1="312.72" x2="707.8" y2="313.61"/><line class="cls-1" x1="701.55" x2="701.55" y2="0.89"/><line class="cls-3" x1="701.55" y1="6.23" x2="701.55" y2="310.05"/><line class="cls-1" x1="701.55" y1="312.72" x2="701.55" y2="313.61"/><line class="cls-1" x1="695.29" x2="695.29" y2="0.89"/><line class="cls-3" x1="695.29" y1="6.23" x2="695.29" y2="310.05"/><line class="cls-1" x1="695.29" y1="312.72" x2="695.29" y2="313.61"/><line class="cls-1" x1="689.04" x2="689.04" y2="0.89"/><line class="cls-3" x1="689.04" y1="6.23" x2="689.04" y2="310.05"/><line class="cls-1" x1="689.04" y1="312.72" x2="689.04" y2="313.61"/><line class="cls-1" x1="682.78" x2="682.78" y2="0.89"/><line class="cls-3" x1="682.78" y1="6.23" x2="682.78" y2="310.05"/><line class="cls-1" x1="682.78" y1="312.72" x2="682.78" y2="313.61"/><line class="cls-1" x1="676.52" x2="676.52" y2="0.89"/><line class="cls-3" x1="676.52" y1="6.23" x2="676.52" y2="310.05"/><line class="cls-1" x1="676.52" y1="312.72" x2="676.52" y2="313.61"/><line class="cls-1" x1="670.27" x2="670.27" y2="0.89"/><line class="cls-3" x1="670.27" y1="6.23" x2="670.27" y2="310.05"/><line class="cls-1" x1="670.27" y1="312.72" x2="670.27" y2="313.61"/><line class="cls-1" x1="664.01" x2="664.01" y2="0.89"/><line class="cls-3" x1="664.01" y1="6.23" x2="664.01" y2="310.05"/><line class="cls-1" x1="664.01" y1="312.72" x2="664.01" y2="313.61"/><line class="cls-1" x1="657.76" x2="657.76" y2="0.89"/><line class="cls-3" x1="657.76" y1="6.23" x2="657.76" y2="310.05"/><line class="cls-1" x1="657.76" y1="312.72" x2="657.76" y2="313.61"/><line class="cls-1" x1="651.5" x2="651.5" y2="0.89"/><line class="cls-3" x1="651.5" y1="6.23" x2="651.5" y2="310.05"/><line class="cls-1" x1="651.5" y1="312.72" x2="651.5" y2="313.61"/><line class="cls-1" x1="645.24" x2="645.24" y2="0.89"/><line class="cls-3" x1="645.24" y1="6.23" x2="645.24" y2="310.05"/><line class="cls-1" x1="645.24" y1="312.72" x2="645.24" y2="313.61"/><line class="cls-1" x1="638.99" x2="638.99" y2="0.89"/><line class="cls-3" x1="638.99" y1="6.23" x2="638.99" y2="310.05"/><line class="cls-1" x1="638.99" y1="312.72" x2="638.99" y2="313.61"/><line class="cls-1" x1="632.73" x2="632.73" y2="0.89"/><line class="cls-3" x1="632.73" y1="6.23" x2="632.73" y2="310.05"/><line class="cls-1" x1="632.73" y1="312.72" x2="632.73" y2="313.61"/><line class="cls-1" x1="626.48" x2="626.48" y2="0.89"/><line class="cls-3" x1="626.48" y1="6.23" x2="626.48" y2="310.05"/><line class="cls-1" x1="626.48" y1="312.72" x2="626.48" y2="313.61"/><line class="cls-1" x1="620.22" x2="620.22" y2="0.89"/><line class="cls-3" x1="620.22" y1="6.23" x2="620.22" y2="310.05"/><line class="cls-1" x1="620.22" y1="312.72" x2="620.22" y2="313.61"/><line class="cls-1" x1="613.97" x2="613.97" y2="0.89"/><line class="cls-3" x1="613.97" y1="6.23" x2="613.97" y2="310.05"/><line class="cls-1" x1="613.97" y1="312.72" x2="613.97" y2="313.61"/><line class="cls-1" x1="607.71" x2="607.71" y2="0.89"/><line class="cls-3" x1="607.71" y1="6.23" x2="607.71" y2="310.05"/><line class="cls-1" x1="607.71" y1="312.72" x2="607.71" y2="313.61"/><line class="cls-1" x1="601.45" x2="601.45" y2="0.89"/><line class="cls-3" x1="601.45" y1="6.23" x2="601.45" y2="310.05"/><line class="cls-1" x1="601.45" y1="312.72" x2="601.45" y2="313.61"/><line class="cls-1" x1="595.2" x2="595.2" y2="0.89"/><line class="cls-3" x1="595.2" y1="6.23" x2="595.2" y2="310.05"/><line class="cls-1" x1="595.2" y1="312.72" x2="595.2" y2="313.61"/><line class="cls-1" x1="588.94" x2="588.94" y2="0.89"/><line class="cls-3" x1="588.94" y1="6.23" x2="588.94" y2="310.05"/><line class="cls-1" x1="588.94" y1="312.72" x2="588.94" y2="313.61"/><line class="cls-1" x1="582.69" x2="582.69" y2="0.89"/><line class="cls-3" x1="582.69" y1="6.23" x2="582.69" y2="310.05"/><line class="cls-1" x1="582.69" y1="312.72" x2="582.69" y2="313.61"/><line class="cls-1" x1="576.43" x2="576.43" y2="0.89"/><line class="cls-3" x1="576.43" y1="6.23" x2="576.43" y2="310.05"/><line class="cls-1" x1="576.43" y1="312.72" x2="576.43" y2="313.61"/><line class="cls-1" x1="570.17" x2="570.17" y2="0.89"/><line class="cls-3" x1="570.17" y1="6.23" x2="570.17" y2="310.05"/><line class="cls-1" x1="570.17" y1="312.72" x2="570.17" y2="313.61"/><line class="cls-1" x1="563.92" x2="563.92" y2="0.89"/><line class="cls-3" x1="563.92" y1="6.23" x2="563.92" y2="310.05"/><line class="cls-1" x1="563.92" y1="312.72" x2="563.92" y2="313.61"/><line class="cls-1" x1="557.66" x2="557.66" y2="0.89"/><line class="cls-3" x1="557.66" y1="6.23" x2="557.66" y2="310.05"/><line class="cls-1" x1="557.66" y1="312.72" x2="557.66" y2="313.61"/><line class="cls-1" x1="551.41" x2="551.41" y2="0.89"/><line class="cls-3" x1="551.41" y1="6.23" x2="551.41" y2="310.05"/><line class="cls-1" x1="551.41" y1="312.72" x2="551.41" y2="313.61"/><line class="cls-1" x1="545.15" x2="545.15" y2="0.89"/><line class="cls-3" x1="545.15" y1="6.23" x2="545.15" y2="310.05"/><line class="cls-1" x1="545.15" y1="312.72" x2="545.15" y2="313.61"/><line class="cls-1" x1="538.89" x2="538.89" y2="0.89"/><line class="cls-3" x1="538.89" y1="6.23" x2="538.89" y2="310.05"/><line class="cls-1" x1="538.89" y1="312.72" x2="538.89" y2="313.61"/><line class="cls-1" x1="532.64" x2="532.64" y2="0.89"/><line class="cls-3" x1="532.64" y1="6.23" x2="532.64" y2="310.05"/><line class="cls-1" x1="532.64" y1="312.72" x2="532.64" y2="313.61"/><line class="cls-1" x1="526.38" x2="526.38" y2="0.89"/><line class="cls-3" x1="526.38" y1="6.23" x2="526.38" y2="310.05"/><line class="cls-1" x1="526.38" y1="312.72" x2="526.38" y2="313.61"/><line class="cls-1" x1="520.13" x2="520.13" y2="0.89"/><line class="cls-3" x1="520.13" y1="6.23" x2="520.13" y2="310.05"/><line class="cls-1" x1="520.13" y1="312.72" x2="520.13" y2="313.61"/><line class="cls-1" x1="513.87" x2="513.87" y2="0.89"/><line class="cls-3" x1="513.87" y1="6.23" x2="513.87" y2="310.05"/><line class="cls-1" x1="513.87" y1="312.72" x2="513.87" y2="313.61"/><line class="cls-1" x1="507.62" x2="507.62" y2="0.89"/><line class="cls-3" x1="507.62" y1="6.23" x2="507.62" y2="310.05"/><line class="cls-1" x1="507.62" y1="312.72" x2="507.62" y2="313.61"/><line class="cls-1" x1="501.36" x2="501.36" y2="0.89"/><line class="cls-3" x1="501.36" y1="6.23" x2="501.36" y2="310.05"/><line class="cls-1" x1="501.36" y1="312.72" x2="501.36" y2="313.61"/><line class="cls-1" x1="495.1" x2="495.1" y2="0.89"/><line class="cls-3" x1="495.1" y1="6.23" x2="495.1" y2="310.05"/><line class="cls-1" x1="495.1" y1="312.72" x2="495.1" y2="313.61"/><line class="cls-1" x1="488.85" x2="488.85" y2="0.89"/><line class="cls-3" x1="488.85" y1="6.23" x2="488.85" y2="310.05"/><line class="cls-1" x1="488.85" y1="312.72" x2="488.85" y2="313.61"/><line class="cls-1" x1="482.59" y1="57.18" x2="482.59" y2="58.07"/><line class="cls-4" x1="482.59" y1="63.41" x2="482.59" y2="310.05"/><line class="cls-1" x1="482.59" y1="312.72" x2="482.59" y2="313.61"/><line class="cls-1" x1="476.34" y1="57.18" x2="476.34" y2="58.07"/><line class="cls-4" x1="476.34" y1="63.41" x2="476.34" y2="310.05"/><line class="cls-1" x1="476.34" y1="312.72" x2="476.34" y2="313.61"/><line class="cls-1" x1="470.08" y1="57.18" x2="470.08" y2="58.07"/><line class="cls-4" x1="470.08" y1="63.41" x2="470.08" y2="310.05"/><line class="cls-1" x1="470.08" y1="312.72" x2="470.08" y2="313.61"/><line class="cls-1" x1="463.82" y1="57.18" x2="463.82" y2="58.07"/><line class="cls-4" x1="463.82" y1="63.41" x2="463.82" y2="310.05"/><line class="cls-1" x1="463.82" y1="312.72" x2="463.82" y2="313.61"/><line class="cls-1" x1="457.57" y1="57.18" x2="457.57" y2="58.07"/><line class="cls-4" x1="457.57" y1="63.41" x2="457.57" y2="310.05"/><line class="cls-1" x1="457.57" y1="312.72" x2="457.57" y2="313.61"/><line class="cls-1" x1="451.31" y1="57.18" x2="451.31" y2="58.07"/><line class="cls-4" x1="451.31" y1="63.41" x2="451.31" y2="310.05"/><line class="cls-1" x1="451.31" y1="312.72" x2="451.31" y2="313.61"/><line class="cls-1" x1="445.06" y1="57.18" x2="445.06" y2="58.07"/><line class="cls-4" x1="445.06" y1="63.41" x2="445.06" y2="310.05"/><line class="cls-1" x1="445.06" y1="312.72" x2="445.06" y2="313.61"/><line class="cls-1" x1="438.8" y1="57.18" x2="438.8" y2="58.07"/><line class="cls-4" x1="438.8" y1="63.41" x2="438.8" y2="310.05"/><line class="cls-1" x1="438.8" y1="312.72" x2="438.8" y2="313.61"/><line class="cls-1" x1="432.54" y1="57.18" x2="432.54" y2="58.07"/><line class="cls-4" x1="432.54" y1="63.41" x2="432.54" y2="310.05"/><line class="cls-1" x1="432.54" y1="312.72" x2="432.54" y2="313.61"/><line class="cls-1" x1="426.29" y1="57.18" x2="426.29" y2="58.07"/><line class="cls-4" x1="426.29" y1="63.41" x2="426.29" y2="310.05"/><line class="cls-1" x1="426.29" y1="312.72" x2="426.29" y2="313.61"/><line class="cls-1" x1="420.03" y1="57.18" x2="420.03" y2="58.07"/><line class="cls-4" x1="420.03" y1="63.41" x2="420.03" y2="310.05"/><line class="cls-1" x1="420.03" y1="312.72" x2="420.03" y2="313.61"/><line class="cls-1" x1="413.78" y1="57.18" x2="413.78" y2="58.07"/><line class="cls-4" x1="413.78" y1="63.41" x2="413.78" y2="310.05"/><line class="cls-1" x1="413.78" y1="312.72" x2="413.78" y2="313.61"/><line class="cls-1" x1="407.52" y1="57.18" x2="407.52" y2="58.07"/><line class="cls-5" x1="407.52" y1="63.41" x2="407.52" y2="203.32"/><line class="cls-1" x1="407.52" y1="206" x2="407.52" y2="206.89"/><line class="cls-1" x1="401.27" y1="57.18" x2="401.27" y2="58.07"/><line class="cls-5" x1="401.27" y1="63.41" x2="401.27" y2="203.32"/><line class="cls-1" x1="401.27" y1="206" x2="401.27" y2="206.89"/><line class="cls-1" x1="395.01" y1="57.18" x2="395.01" y2="58.07"/><line class="cls-5" x1="395.01" y1="63.41" x2="395.01" y2="203.32"/><line class="cls-1" x1="395.01" y1="206" x2="395.01" y2="206.89"/><line class="cls-1" x1="388.75" y1="57.18" x2="388.75" y2="58.07"/><line class="cls-5" x1="388.75" y1="63.41" x2="388.75" y2="203.32"/><line class="cls-1" x1="388.75" y1="206" x2="388.75" y2="206.89"/><line class="cls-1" x1="382.5" y1="57.18" x2="382.5" y2="58.07"/><line class="cls-5" x1="382.5" y1="63.41" x2="382.5" y2="203.32"/><line class="cls-1" x1="382.5" y1="206" x2="382.5" y2="206.89"/><line class="cls-1" x1="376.24" y1="57.18" x2="376.24" y2="58.07"/><line class="cls-5" x1="376.24" y1="63.41" x2="376.24" y2="203.32"/><line class="cls-1" x1="376.24" y1="206" x2="376.24" y2="206.89"/><line class="cls-1" x1="369.99" y1="57.18" x2="369.99" y2="58.07"/><line class="cls-5" x1="369.99" y1="63.41" x2="369.99" y2="203.32"/><line class="cls-1" x1="369.99" y1="206" x2="369.99" y2="206.89"/><line class="cls-1" x1="363.73" y1="114" x2="363.73" y2="114.89"/><line class="cls-6" x1="363.73" y1="120.25" x2="363.73" y2="203.32"/><line class="cls-1" x1="363.73" y1="206" x2="363.73" y2="206.89"/><line class="cls-1" x1="357.47" y1="114" x2="357.47" y2="114.89"/><line class="cls-6" x1="357.47" y1="120.25" x2="357.47" y2="203.32"/><line class="cls-1" x1="357.47" y1="206" x2="357.47" y2="206.89"/><line class="cls-1" x1="351.22" y1="114" x2="351.22" y2="114.89"/><line class="cls-6" x1="351.22" y1="120.25" x2="351.22" y2="203.32"/><line class="cls-1" x1="351.22" y1="206" x2="351.22" y2="206.89"/><line class="cls-1" x1="344.96" y1="114" x2="344.96" y2="114.89"/><line class="cls-6" x1="344.96" y1="120.25" x2="344.96" y2="203.32"/><line class="cls-1" x1="344.96" y1="206" x2="344.96" y2="206.89"/><line class="cls-1" x1="338.71" y1="114" x2="338.71" y2="114.89"/><line class="cls-6" x1="338.71" y1="120.25" x2="338.71" y2="203.32"/><line class="cls-1" x1="338.71" y1="206" x2="338.71" y2="206.89"/><line class="cls-1" x1="332.45" y1="114" x2="332.45" y2="114.89"/><line class="cls-6" x1="332.45" y1="120.25" x2="332.45" y2="203.32"/><line class="cls-1" x1="332.45" y1="206" x2="332.45" y2="206.89"/><line class="cls-1" x1="326.19" y1="114" x2="326.19" y2="114.89"/><line class="cls-6" x1="326.19" y1="120.25" x2="326.19" y2="203.32"/><line class="cls-1" x1="326.19" y1="206" x2="326.19" y2="206.89"/><line class="cls-1" x1="319.94" y1="114" x2="319.94" y2="114.89"/><line class="cls-7" x1="319.94" y1="120.24" x2="319.94" y2="267.43"/><line class="cls-1" x1="319.94" y1="270.1" x2="319.94" y2="270.99"/><line class="cls-1" x1="313.68" y1="114" x2="313.68" y2="114.89"/><line class="cls-7" x1="313.68" y1="120.24" x2="313.68" y2="267.43"/><line class="cls-1" x1="313.68" y1="270.1" x2="313.68" y2="270.99"/><line class="cls-1" x1="307.43" y1="114" x2="307.43" y2="114.89"/><line class="cls-7" x1="307.43" y1="120.24" x2="307.43" y2="267.43"/><line class="cls-1" x1="307.43" y1="270.1" x2="307.43" y2="270.99"/><line class="cls-1" x1="301.17" y1="114" x2="301.17" y2="114.89"/><line class="cls-7" x1="301.17" y1="120.24" x2="301.17" y2="267.43"/><line class="cls-1" x1="301.17" y1="270.1" x2="301.17" y2="270.99"/><line class="cls-1" x1="294.91" y1="28.77" x2="294.91" y2="29.66"/><line class="cls-8" x1="294.91" y1="35" x2="294.91" y2="267.43"/><line class="cls-1" x1="294.91" y1="270.1" x2="294.91" y2="270.99"/><line class="cls-1" x1="288.66" y1="28.77" x2="288.66" y2="29.66"/><line class="cls-8" x1="288.66" y1="35" x2="288.66" y2="267.43"/><line class="cls-1" x1="288.66" y1="270.1" x2="288.66" y2="270.99"/><line class="cls-1" x1="282.4" y1="28.77" x2="282.4" y2="29.66"/><line class="cls-8" x1="282.4" y1="35" x2="282.4" y2="267.43"/><line class="cls-1" x1="282.4" y1="270.1" x2="282.4" y2="270.99"/><line class="cls-1" x1="276.15" y1="28.77" x2="276.15" y2="29.66"/><line class="cls-8" x1="276.15" y1="35" x2="276.15" y2="267.43"/><line class="cls-1" x1="276.15" y1="270.1" x2="276.15" y2="270.99"/><line class="cls-1" x1="269.89" y1="28.77" x2="269.89" y2="29.66"/><line class="cls-8" x1="269.89" y1="35" x2="269.89" y2="267.43"/><line class="cls-1" x1="269.89" y1="270.1" x2="269.89" y2="270.99"/><line class="cls-1" x1="263.64" y1="28.77" x2="263.64" y2="29.66"/><line class="cls-8" x1="263.64" y1="35" x2="263.64" y2="267.43"/><line class="cls-1" x1="263.64" y1="270.1" x2="263.64" y2="270.99"/><line class="cls-1" x1="257.38" y1="28.77" x2="257.38" y2="29.66"/><line class="cls-8" x1="257.38" y1="35" x2="257.38" y2="267.43"/><line class="cls-1" x1="257.38" y1="270.1" x2="257.38" y2="270.99"/><line class="cls-1" x1="251.12" y1="28.77" x2="251.12" y2="29.66"/><line class="cls-8" x1="251.12" y1="35" x2="251.12" y2="267.43"/><line class="cls-1" x1="251.12" y1="270.1" x2="251.12" y2="270.99"/><line class="cls-1" x1="244.87" y1="28.77" x2="244.87" y2="29.66"/><line class="cls-8" x1="244.87" y1="35" x2="244.87" y2="267.43"/><line class="cls-1" x1="244.87" y1="270.1" x2="244.87" y2="270.99"/><line class="cls-1" x1="238.61" y1="28.77" x2="238.61" y2="29.66"/><line class="cls-8" x1="238.61" y1="35" x2="238.61" y2="267.43"/><line class="cls-1" x1="238.61" y1="270.1" x2="238.61" y2="270.99"/><line class="cls-1" x1="232.36" y1="28.77" x2="232.36" y2="29.66"/><line class="cls-8" x1="232.36" y1="35" x2="232.36" y2="267.43"/><line class="cls-1" x1="232.36" y1="270.1" x2="232.36" y2="270.99"/><line class="cls-1" x1="226.1" y1="28.77" x2="226.1" y2="29.66"/><line class="cls-8" x1="226.1" y1="35" x2="226.1" y2="267.43"/><line class="cls-1" x1="226.1" y1="270.1" x2="226.1" y2="270.99"/><line class="cls-1" x1="219.84" y1="28.77" x2="219.84" y2="29.66"/><line class="cls-9" x1="219.84" y1="34.99" x2="219.84" y2="352.67"/><line class="cls-1" x1="219.84" y1="355.34" x2="219.84" y2="356.23"/><line class="cls-1" x1="213.59" y1="28.77" x2="213.59" y2="29.66"/><line class="cls-9" x1="213.59" y1="34.99" x2="213.59" y2="352.67"/><line class="cls-1" x1="213.59" y1="355.34" x2="213.59" y2="356.23"/><line class="cls-1" x1="207.33" y1="28.77" x2="207.33" y2="29.66"/><line class="cls-9" x1="207.33" y1="34.99" x2="207.33" y2="352.67"/><line class="cls-1" x1="207.33" y1="355.34" x2="207.33" y2="356.23"/><line class="cls-1" x1="201.08" y1="28.77" x2="201.08" y2="29.66"/><line class="cls-9" x1="201.08" y1="34.99" x2="201.08" y2="352.67"/><line class="cls-1" x1="201.08" y1="355.34" x2="201.08" y2="356.23"/><line class="cls-1" x1="194.82" y1="28.77" x2="194.82" y2="29.66"/><line class="cls-9" x1="194.82" y1="34.99" x2="194.82" y2="352.67"/><line class="cls-1" x1="194.82" y1="355.34" x2="194.82" y2="356.23"/><line class="cls-1" x1="188.56" y1="28.77" x2="188.56" y2="29.66"/><line class="cls-9" x1="188.56" y1="34.99" x2="188.56" y2="352.67"/><line class="cls-1" x1="188.56" y1="355.34" x2="188.56" y2="356.23"/><line class="cls-1" x1="182.31" y1="28.77" x2="182.31" y2="29.66"/><line class="cls-9" x1="182.31" y1="34.99" x2="182.31" y2="352.67"/><line class="cls-1" x1="182.31" y1="355.34" x2="182.31" y2="356.23"/><line class="cls-1" x1="176.05" y1="28.77" x2="176.05" y2="29.66"/><line class="cls-9" x1="176.05" y1="34.99" x2="176.05" y2="352.67"/><line class="cls-1" x1="176.05" y1="355.34" x2="176.05" y2="356.23"/><line class="cls-1" x1="169.8" y1="28.77" x2="169.8" y2="29.66"/><line class="cls-9" x1="169.8" y1="34.99" x2="169.8" y2="352.67"/><line class="cls-1" x1="169.8" y1="355.34" x2="169.8" y2="356.23"/><line class="cls-1" x1="163.54" y1="28.77" x2="163.54" y2="29.66"/><line class="cls-9" x1="163.54" y1="34.99" x2="163.54" y2="352.67"/><line class="cls-1" x1="163.54" y1="355.34" x2="163.54" y2="356.23"/><line class="cls-1" x1="157.29" y1="28.77" x2="157.29" y2="29.66"/><line class="cls-9" x1="157.29" y1="34.99" x2="157.29" y2="352.67"/><line class="cls-1" x1="157.29" y1="355.34" x2="157.29" y2="356.23"/><line class="cls-1" x1="151.03" y1="28.77" x2="151.03" y2="29.66"/><line class="cls-9" x1="151.03" y1="34.99" x2="151.03" y2="352.67"/><line class="cls-1" x1="151.03" y1="355.34" x2="151.03" y2="356.23"/><line class="cls-1" x1="144.77" y1="85.59" x2="144.77" y2="86.48"/><line class="cls-10" x1="144.77" y1="91.82" x2="144.77" y2="352.67"/><line class="cls-1" x1="144.77" y1="355.34" x2="144.77" y2="356.23"/><line class="cls-1" x1="138.52" y1="85.59" x2="138.52" y2="86.48"/><line class="cls-10" x1="138.52" y1="91.82" x2="138.52" y2="352.67"/><line class="cls-1" x1="138.52" y1="355.34" x2="138.52" y2="356.23"/><line class="cls-1" x1="132.26" y1="85.59" x2="132.26" y2="86.48"/><line class="cls-10" x1="132.26" y1="91.82" x2="132.26" y2="352.67"/><line class="cls-1" x1="132.26" y1="355.34" x2="132.26" y2="356.23"/><line class="cls-1" x1="126.01" y1="85.59" x2="126.01" y2="86.48"/><line class="cls-10" x1="126.01" y1="91.82" x2="126.01" y2="352.67"/><line class="cls-1" x1="126.01" y1="355.34" x2="126.01" y2="356.23"/><line class="cls-1" x1="119.75" y1="85.59" x2="119.75" y2="86.48"/><line class="cls-10" x1="119.75" y1="91.82" x2="119.75" y2="352.67"/><line class="cls-1" x1="119.75" y1="355.34" x2="119.75" y2="356.23"/><line class="cls-1" x1="113.49" y1="85.59" x2="113.49" y2="86.48"/><line class="cls-10" x1="113.49" y1="91.82" x2="113.49" y2="352.67"/><line class="cls-1" x1="113.49" y1="355.34" x2="113.49" y2="356.23"/><line class="cls-1" x1="107.24" y1="85.59" x2="107.24" y2="86.48"/><line class="cls-10" x1="107.24" y1="91.82" x2="107.24" y2="352.67"/><line class="cls-1" x1="107.24" y1="355.34" x2="107.24" y2="356.23"/><line class="cls-1" x1="100.98" y1="85.59" x2="100.98" y2="86.48"/><line class="cls-10" x1="100.98" y1="91.82" x2="100.98" y2="352.67"/><line class="cls-1" x1="100.98" y1="355.34" x2="100.98" y2="356.23"/><line class="cls-1" x1="94.73" y1="85.59" x2="94.73" y2="86.48"/><line class="cls-10" x1="94.73" y1="91.82" x2="94.73" y2="352.67"/><line class="cls-1" x1="94.73" y1="355.34" x2="94.73" y2="356.23"/><line class="cls-1" x1="88.47" y1="85.59" x2="88.47" y2="86.48"/><line class="cls-11" x1="88.47" y1="91.83" x2="88.47" y2="267.43"/><line class="cls-1" x1="88.47" y1="270.1" x2="88.47" y2="270.99"/><line class="cls-1" x1="82.21" y1="85.59" x2="82.21" y2="86.48"/><line class="cls-11" x1="82.21" y1="91.83" x2="82.21" y2="267.43"/><line class="cls-1" x1="82.21" y1="270.1" x2="82.21" y2="270.99"/><line class="cls-1" x1="75.96" y1="85.59" x2="75.96" y2="86.48"/><line class="cls-11" x1="75.96" y1="91.83" x2="75.96" y2="267.43"/><line class="cls-1" x1="75.96" y1="270.1" x2="75.96" y2="270.99"/><line class="cls-1" x1="69.7" y1="85.59" x2="69.7" y2="86.48"/><line class="cls-11" x1="69.7" y1="91.83" x2="69.7" y2="267.43"/><line class="cls-1" x1="69.7" y1="270.1" x2="69.7" y2="270.99"/><line class="cls-1" x1="63.45" y1="85.59" x2="63.45" y2="86.48"/><line class="cls-11" x1="63.45" y1="91.83" x2="63.45" y2="267.43"/><line class="cls-1" x1="63.45" y1="270.1" x2="63.45" y2="270.99"/><line class="cls-1" x1="57.19" y1="85.59" x2="57.19" y2="86.48"/><line class="cls-11" x1="57.19" y1="91.83" x2="57.19" y2="267.43"/><line class="cls-1" x1="57.19" y1="270.1" x2="57.19" y2="270.99"/><line class="cls-1" x1="50.94" y1="85.59" x2="50.94" y2="86.48"/><line class="cls-11" x1="50.94" y1="91.83" x2="50.94" y2="267.43"/><line class="cls-1" x1="50.94" y1="270.1" x2="50.94" y2="270.99"/><line class="cls-1" x1="44.68" y1="85.59" x2="44.68" y2="86.48"/><line class="cls-11" x1="44.68" y1="91.83" x2="44.68" y2="267.43"/><line class="cls-1" x1="44.68" y1="270.1" x2="44.68" y2="270.99"/><line class="cls-1" x1="38.42" y1="85.59" x2="38.42" y2="86.48"/><line class="cls-11" x1="38.42" y1="91.83" x2="38.42" y2="267.43"/><line class="cls-1" x1="38.42" y1="270.1" x2="38.42" y2="270.99"/><line class="cls-1" x1="32.17" y1="85.59" x2="32.17" y2="86.48"/><line class="cls-11" x1="32.17" y1="91.83" x2="32.17" y2="267.43"/><line class="cls-1" x1="32.17" y1="270.1" x2="32.17" y2="270.99"/><line class="cls-1" x1="25.91" y1="85.59" x2="25.91" y2="86.48"/><line class="cls-11" x1="25.91" y1="91.83" x2="25.91" y2="267.43"/><line class="cls-1" x1="25.91" y1="270.1" x2="25.91" y2="270.99"/><line class="cls-1" x1="19.66" y1="85.59" x2="19.66" y2="86.48"/><line class="cls-11" x1="19.66" y1="91.83" x2="19.66" y2="267.43"/><line class="cls-1" x1="19.66" y1="270.1" x2="19.66" y2="270.99"/><line class="cls-1" x1="13.4" y1="85.59" x2="13.4" y2="86.48"/><line class="cls-11" x1="13.4" y1="91.83" x2="13.4" y2="267.43"/><line class="cls-1" x1="13.4" y1="270.1" x2="13.4" y2="270.99"/><line class="cls-1" x1="7.14" y1="85.59" x2="7.14" y2="86.48"/><line class="cls-11" x1="7.14" y1="91.83" x2="7.14" y2="267.43"/><line class="cls-1" x1="7.14" y1="270.1" x2="7.14" y2="270.99"/><line class="cls-1" x1="0.89" y1="85.59" x2="0.89" y2="86.48"/><line class="cls-11" x1="0.89" y1="91.83" x2="0.89" y2="267.43"/><line class="cls-1" x1="0.89" y1="270.1" x2="0.89" y2="270.99"/></g></g></svg>