<svg xmlns="http://www.w3.org/2000/svg" viewBox="0 0 600.04 292.25"><defs><style>.cls-1,.cls-2{fill:#7acdd6;}.cls-2{fill-rule:evenodd;}</style></defs><title>Ativo 11</title><g id="Camada_2" data-name="Camada 2"><g id="Layer_1" data-name="Layer 1"><path class="cls-1" d="M566.8,0,372.73.56a32.79,32.79,0,0,0-32.65,32.85l.38,133.52a32.8,32.8,0,0,0,32.85,32.66L567.38,199A32.8,32.8,0,0,0,600,166.18l-.39-133.52A32.79,32.79,0,0,0,566.8,0Zm-194,21.41,194.07-.56A11.91,11.91,0,0,1,578.8,32.72l.06,21-216.53.63a8.55,8.55,0,0,0-1.34.11l-.07-21.09A11.93,11.93,0,0,1,372.79,21.41ZM567.32,178.18l-194.07.56a11.92,11.92,0,0,1-11.94-11.87l-.2-68.21a8.68,8.68,0,0,0,1.35.11L579,98.14l.2,68.1A11.92,11.92,0,0,1,567.32,178.18Z"/><path class="cls-1" d="M159,29.47H124.73v-.88a17.24,17.24,0,0,0-17.22-17.23H68.73A17.25,17.25,0,0,0,51.5,28.59v.88H17.22A17.25,17.25,0,0,0,0,46.69v82.07A17.25,17.25,0,0,0,17.22,146H159a17.25,17.25,0,0,0,17.23-17.23V46.69A17.25,17.25,0,0,0,159,29.47Zm-96.47-.88a6.2,6.2,0,0,1,6.19-6.19h38.78a6.19,6.19,0,0,1,6.18,6.19v.88H62.54ZM17.22,40.51H159a6.2,6.2,0,0,1,6.19,6.18V58.31a3.53,3.53,0,0,0-.23,1.22c0,3-.95,6.7-8.37,9.36L114.1,79.64c-.6-5.64-5.77-10.06-12-10.06H74.18c-6.3,0-11.48,4.46-12.05,10.14L19.34,68.89c-6.35-2.28-8-5.34-8.3-8V46.69A6.2,6.2,0,0,1,17.22,40.51ZM106.8,80.76V88c0,2.07-2.17,3.81-4.74,3.81H74.18c-2.57,0-4.74-1.74-4.74-3.81v-7.2c0-2.07,2.17-3.81,4.74-3.81h27.88C104.63,77,106.8,78.69,106.8,80.76ZM159,134.94H17.22A6.19,6.19,0,0,1,11,128.76v-1.38a15.13,15.13,0,0,0,7.61,2.06H122.1a3.68,3.68,0,1,0,0-7.36H18.65A7.78,7.78,0,0,1,11,116V73a27.89,27.89,0,0,0,6,2.89l.32.1L62.08,87.3V88c0,6.16,5.42,11.17,12.1,11.17h27.88c6.68,0,12.1-5,12.1-11.17v-.74L158.57,76l.32-.1a27.08,27.08,0,0,0,6.31-3.1V116a7.78,7.78,0,0,1-7.61,6.09H139.78a3.68,3.68,0,0,0,0,7.36h17.81a15.13,15.13,0,0,0,7.61-2.06v1.38A6.19,6.19,0,0,1,159,134.94Z"/><path class="cls-2" d="M287.12,260.7l-9.5,9.5,9.5,9.5h0a7.35,7.35,0,0,1-10.39,10.4h0l-9.5-9.51-9.51,9.51h0a7.35,7.35,0,0,1-10.39-10.4h0l9.5-9.5-9.5-9.5h0a7.35,7.35,0,0,1,10.39-10.39h0l9.51,9.5,9.5-9.5h0a7.35,7.35,0,0,1,10.39,10.39Zm-5.19-41.95h-29.4a7.35,7.35,0,1,1,0-14.69h29.4a7.35,7.35,0,0,1,0,14.69Zm-58.8,73.5h-29.4a7.35,7.35,0,1,1,0-14.7h29.4a7.35,7.35,0,1,1,0,14.7Zm0-29.4h-29.4a7.35,7.35,0,1,1,0-14.69h29.4a7.35,7.35,0,1,1,0,14.69Zm0-44.1h-7.35v7.36a7.35,7.35,0,0,1-14.7,0v-7.36h-7.35a7.35,7.35,0,1,1,0-14.69h7.35v-7.35a7.35,7.35,0,0,1,14.7,0v7.35h7.35a7.35,7.35,0,1,1,0,14.69Z"/></g></g></svg>