<svg xmlns="http://www.w3.org/2000/svg" viewBox="0 0 81.5 73.22"><defs><style>.cls-1{fill:#74d2da;}</style></defs><title>Ativo 1</title><g id="Camada_2" data-name="Camada 2"><g id="Layer_1" data-name="Layer 1"><path class="cls-1" d="M71,12.77H28.64A10.52,10.52,0,0,0,18.13,23.28V49.47A10.52,10.52,0,0,0,28.64,60H47.17a23.39,23.39,0,0,0,9.74,9.93A31,31,0,0,0,67,73.17a4.46,4.46,0,0,0,.63,0,4,4,0,0,0,2.79-6.8A16.92,16.92,0,0,1,66.13,60H71A10.52,10.52,0,0,0,81.5,49.47V23.28A10.52,10.52,0,0,0,71,12.77Zm6.54,36.7A6.56,6.56,0,0,1,71,56H61.13a2.15,2.15,0,0,0,0,.62c1,5,2.54,8.7,6.51,12.62C63.73,68.62,54,66.8,49.72,56H28.64a6.56,6.56,0,0,1-6.54-6.54V23.28a6.56,6.56,0,0,1,6.54-6.55H71a6.56,6.56,0,0,1,6.54,6.55Z"/><path class="cls-1" d="M70,46H60.17a1.32,1.32,0,1,0,0,2.64H70A1.32,1.32,0,0,0,70,46Z"/><path class="cls-1" d="M53.62,46H29.52a1.32,1.32,0,1,0,0,2.64h24.1a1.32,1.32,0,1,0,0-2.64Z"/><path class="cls-1" d="M70,38.63H42.72a1.32,1.32,0,0,0,0,2.64H70a1.32,1.32,0,0,0,0-2.64Z"/><path class="cls-1" d="M29.52,41.27h6.84a1.32,1.32,0,1,0,0-2.64H29.52a1.32,1.32,0,1,0,0,2.64Z"/><path class="cls-1" d="M70,31.24H54.72a1.33,1.33,0,1,0,0,2.65H70a1.33,1.33,0,0,0,0-2.65Z"/><path class="cls-1" d="M29.52,33.89H46a1.33,1.33,0,1,0,0-2.65H29.52a1.33,1.33,0,1,0,0,2.65Z"/><path class="cls-1" d="M70,23.85H60.17a1.33,1.33,0,1,0,0,2.65H70a1.33,1.33,0,0,0,0-2.65Z"/><path class="cls-1" d="M29.52,26.5h23a1.33,1.33,0,1,0,0-2.65h-23a1.33,1.33,0,1,0,0,2.65Z"/><path class="cls-1" d="M13.81,38.45a2,2,0,0,0,0-.54H9.21a5.75,5.75,0,0,1-5.73-5.73v-23A5.75,5.75,0,0,1,9.21,3.48H46.34a5.75,5.75,0,0,1,5.73,5.73V12h3.48V9.21A9.22,9.22,0,0,0,46.34,0H9.21A9.22,9.22,0,0,0,0,9.21v23a9.22,9.22,0,0,0,9.21,9.21H9.4A14.73,14.73,0,0,1,5.66,47a3.49,3.49,0,0,0,3,5.92,29.67,29.67,0,0,0,6.46-1.74V47.4a24.3,24.3,0,0,1-7,2.11C11.58,46.08,12.89,42.85,13.81,38.45Z"/></g></g></svg>