<svg xmlns="http://www.w3.org/2000/svg" xmlns:xlink="http://www.w3.org/1999/xlink" viewBox="0 0 101.15 15.11"><defs><style>.cls-1{fill:url(#linear-gradient);}.cls-2{fill:#444e5b;}.cls-3{mask:url(#mask);}</style><linearGradient id="linear-gradient" x1="1710.14" y1="-1627.79" x2="1711.68" y2="-1627.79" gradientTransform="matrix(0, -2.19, -2.19, 0, -3558.87, 3763.58)" gradientUnits="userSpaceOnUse"><stop offset="0"/><stop offset="0.01" stop-color="#090909"/><stop offset="0.05" stop-color="#373737"/><stop offset="0.09" stop-color="#626262"/><stop offset="0.14" stop-color="#888"/><stop offset="0.2" stop-color="#a8a8a8"/><stop offset="0.25" stop-color="#c4c4c4"/><stop offset="0.32" stop-color="#dadada"/><stop offset="0.4" stop-color="#ebebeb"/><stop offset="0.49" stop-color="#f6f6f6"/><stop offset="0.63" stop-color="#fdfdfd"/><stop offset="1" stop-color="#fff"/></linearGradient><mask id="mask" x="7.71" y="9.36" width="7.31" height="3.37" maskUnits="userSpaceOnUse"><rect class="cls-1" x="7.71" y="9.36" width="7.31" height="3.37"/></mask></defs><title>Ativo 31</title><g id="Camada_2" data-name="Camada 2"><g id="Layer_1" data-name="Layer 1"><path class="cls-2" d="M17.45,8.68V1.27a1.28,1.28,0,0,1,2.56,0v7.3c0,2.72,1.4,4.16,3.69,4.16s3.66-1.36,3.66-4.05V1.27A1.27,1.27,0,0,1,28.66,0a1.26,1.26,0,0,1,1.27,1.27V8.55c0,4.37-2.46,6.56-6.28,6.56s-6.2-2.19-6.2-6.43"/><path class="cls-2" d="M30.23,13.33,35.64,1a1.65,1.65,0,0,1,1.54-1h.13a1.59,1.59,0,0,1,1.52,1l5.42,12.29a1.07,1.07,0,0,1,.14.55,1.2,1.2,0,0,1-1.2,1.23,1.31,1.31,0,0,1-1.25-.9l-1.2-2.74H33.66L32.44,14.3a1.24,1.24,0,0,1-1.19.81,1.17,1.17,0,0,1-1.18-1.19,1.28,1.28,0,0,1,.16-.59m9.54-4.14L37.21,3.13,34.65,9.19Z"/><path class="cls-2" d="M45.83,1.32A1.28,1.28,0,0,1,47.12,0h.27a1.6,1.6,0,0,1,1.33.75L56,10.33V1.25a1.26,1.26,0,0,1,2.52,0V13.82a1.25,1.25,0,0,1-1.24,1.27h-.12a1.58,1.58,0,0,1-1.33-.78L48.35,4.4v9.46a1.26,1.26,0,0,1-1.26,1.25,1.25,1.25,0,0,1-1.26-1.25Z"/><path class="cls-2" d="M64.31,2.38H61.22a1.19,1.19,0,1,1,0-2.38H69.9a1.17,1.17,0,0,1,1.16,1.19A1.18,1.18,0,0,1,69.9,2.38h-3V13.84a1.29,1.29,0,0,1-2.58,0Z"/><path class="cls-2" d="M72.56,8.68V1.27a1.29,1.29,0,0,1,2.57,0v7.3c0,2.72,1.38,4.16,3.68,4.16s3.67-1.36,3.67-4.05V1.27a1.28,1.28,0,0,1,2.56,0V8.55c0,4.37-2.46,6.56-6.27,6.56s-6.21-2.19-6.21-6.43"/><path class="cls-2" d="M86.82,1.29A1.28,1.28,0,0,1,88.11,0h.27a1.31,1.31,0,0,1,1.18.69L94,7.63l4.43-7A1.32,1.32,0,0,1,99.6,0h.26a1.27,1.27,0,0,1,1.29,1.29V13.84a1.26,1.26,0,0,1-1.29,1.27,1.28,1.28,0,0,1-1.26-1.27V4.76L95,10.13a1.19,1.19,0,0,1-2.14,0L89.34,4.81v9a1.25,1.25,0,0,1-1.28,1.26,1.23,1.23,0,0,1-1.24-1.26Z"/><path class="cls-2" d="M7.71,12.73H7.63A5,5,0,0,1,2.69,7.56v0A4.92,4.92,0,0,1,7.6,2.37a5,5,0,0,1,5,5.19v0a5.61,5.61,0,0,1-.28,1.8H15a8.06,8.06,0,0,0,.23-1.84v0A7.41,7.41,0,0,0,7.64,0,7.48,7.48,0,0,0,0,7.56v0a7.41,7.41,0,0,0,7.6,7.51h8.67a1.17,1.17,0,0,0,1.19-1.18,1.18,1.18,0,0,0-1.19-1.2H7.71Z"/><g class="cls-3"><rect class="cls-2" x="7.71" y="9.36" width="7.31" height="3.37"/></g><path class="cls-2" d="M12.28,9.36a4.77,4.77,0,0,1-4.57,3.37h5.52A7.49,7.49,0,0,0,15,9.36Z"/></g></g></svg>