<svg xmlns="http://www.w3.org/2000/svg" viewBox="0 0 154.97 23.49"><defs><style>.cls-1{fill:#444e5b;}</style></defs><title>Ativo 43</title><g id="Camada_2" data-name="Camada 2"><g id="Layer_1" data-name="Layer 1"><path class="cls-1" d="M0,.51H8.73c9.62,0,11.7,1.25,11.7,8.22,0,6.37-2.28,7.76-11.13,7.76H7v7H0ZM9.43,11.72c3.21,0,3.38-.3,3.38-3,0-3.17-.17-3.21-3.38-3.21H7v6.2c.64,0,1.5,0,2.44,0"/><path class="cls-1" d="M22.39,11.74C22.39,2.61,24.1,0,33,0S43.64,2.61,43.64,11.74,42,23.42,33,23.42,22.39,20.81,22.39,11.74m13.92,0c0-6.12-.17-6.52-3.28-6.52s-3.25.4-3.25,6.52.14,6.49,3.25,6.49,3.28-.4,3.28-6.49"/><path class="cls-1" d="M46,17.91s2.87.19,6.33.19c4.13,0,5.27-.3,5.27-1.53,0-.87-.31-1.27-1.7-1.6l-4.67-1.16c-4.65-1.3-5.69-2.53-5.69-6.66,0-4.87,2.93-7.09,10.42-7.09,3.5,0,7,.36,7,.36l-.06,5.12s-3.09-.16-6.16-.16c-3.44,0-4.3.23-4.3,1.5,0,1,.47,1.33,2,1.67L59.2,9.61c4.66,1.17,5.23,3.06,5.23,6.7,0,5.45-3.39,7.05-10.62,7.05C50.05,23.36,46,23,46,23Z"/><rect class="cls-1" x="67.93" y="0.51" width="6.99" height="22.98"/><polygon class="cls-1" points="83.91 5.5 76.92 5.5 76.92 0.51 96.9 0.51 96.9 5.5 90.9 5.5 90.9 23.48 83.91 23.48 83.91 5.5"/><rect class="cls-1" x="99.89" y="0.51" width="6.99" height="22.98"/><polygon class="cls-1" points="125.37 0.51 132.94 0.51 126.59 23.48 115.88 23.48 109.49 0.51 117.05 0.51 121.23 19.43 125.37 0.51"/><path class="cls-1" d="M133.73,11.74c0-9.13,1.7-11.74,10.64-11.74S155,2.61,155,11.74s-1.64,11.68-10.6,11.68-10.64-2.61-10.64-11.68m13.92,0c0-6.12-.17-6.52-3.28-6.52s-3.25.4-3.25,6.52.14,6.49,3.25,6.49,3.28-.4,3.28-6.49"/></g></g></svg>