<svg xmlns="http://www.w3.org/2000/svg" viewBox="0 0 113.82 75.05"><defs><style>.cls-1{fill:#fff;}</style></defs><title>Ativo 23</title><g id="Camada_2" data-name="Camada 2"><g id="Layer_1" data-name="Layer 1"><g id="_0DpKQ0.tif" data-name="0DpKQ0.tif"><path class="cls-1" d="M0,44.09c.05-.3.12-.59.15-.89A29.5,29.5,0,0,1,6.52,27.77a44.72,44.72,0,0,1,5.7-6.05l.22-.17c0,1,0,2,0,2.91,0,.13-.12.26-.21.37A31.13,31.13,0,0,0,5.41,37.45a24.37,24.37,0,0,0-.83,8.41,19,19,0,0,0,8.21,14.51,32.7,32.7,0,0,0,10.34,4.74,48.6,48.6,0,0,0,7.25,1.5c2.33.28,4.68.51,7,.65,2.15.13,4.32.18,6.48.14,2.63,0,5.27-.16,7.9-.34a103.59,103.59,0,0,0,17.32-2.75A112.78,112.78,0,0,0,86,58.87a69.43,69.43,0,0,0,8.17-4l.27-.15c0,.18,0,.3,0,.43q0,3.87,0,7.74a.62.62,0,0,1-.4.64A83,83,0,0,1,81.17,69,121.21,121.21,0,0,1,67,72.69C64,73.3,61,73.8,57.9,74.17c-2.88.35-5.78.6-8.68.72L47.34,75a1.38,1.38,0,0,0-.27.08h-1a1,1,0,0,0-.27-.09H42.42a1,1,0,0,0-.27.09H41.07A.92.92,0,0,0,40.8,75a84.6,84.6,0,0,1-9.12-.8A56.93,56.93,0,0,1,18.33,70.7,34.36,34.36,0,0,1,8.06,64.49a23.75,23.75,0,0,1-8-17.17c0-.87,0-1.73,0-2.6,0-.06-.06-.12-.09-.18Z"/><path class="cls-1" d="M113.82,27.72c0,.31-.13.62-.16.94a24.7,24.7,0,0,1-5.51,13.06,27.06,27.06,0,0,1-9.47,7.61c-.57.27-1.17.5-1.76.75a1.09,1.09,0,0,1-.22,0v-.5c0-1.68,0-3.37,0-5.05a.92.92,0,0,1,.51-.92,23.92,23.92,0,0,0,7.63-7.42,18.9,18.9,0,0,0,3.06-8.44A17.56,17.56,0,0,0,104.23,15a22.55,22.55,0,0,0-7.85-6.29A41,41,0,0,0,85.23,5.07,67.47,67.47,0,0,0,74.44,4,76.07,76.07,0,0,0,65,4.26c-2.59.26-5.18.54-7.76.93A102.67,102.67,0,0,0,44.78,7.91a107.22,107.22,0,0,0-15.63,5.66c-1.3.59-2.58,1.23-3.86,1.85l-.47.22c0-.72,0-1.39,0-2.07,0-.1.17-.21.29-.29A83.56,83.56,0,0,1,33.18,9a97.1,97.1,0,0,1,19-6.5c3-.7,6.09-1.25,9.18-1.67A91.85,91.85,0,0,1,75.28,0,73,73,0,0,1,85.51.88a50.17,50.17,0,0,1,13.61,4,28.78,28.78,0,0,1,9.13,6.55,20.48,20.48,0,0,1,5.22,10.87c.11.72.17,1.45.27,2.17,0,.07.05.12.08.18Z"/><path class="cls-1" d="M42.15,75.05a1,1,0,0,1,.27-.09h3.39a1,1,0,0,1,.27.09Z"/><path class="cls-1" d="M.08,47.32H0V44.54c0,.06.09.12.09.18C.09,45.59.09,46.45.08,47.32Z"/><path class="cls-1" d="M79.1,43.44l3.61,3.45a11.74,11.74,0,0,1-4.57,3,14,14,0,0,1-6,.58,10.82,10.82,0,0,1-4-1.15,8.89,8.89,0,0,1-4.45-5.09,15.42,15.42,0,0,1,.07-11.11,9.71,9.71,0,0,1,8.31-6.31,9.9,9.9,0,0,1,5.63.78,9.39,9.39,0,0,1,4.81,5.46,14.32,14.32,0,0,1,.88,4.67c0,.89,0,1.79,0,2.72H68.57a5.37,5.37,0,0,0,.37,2.16,4.51,4.51,0,0,0,4.13,3,10.94,10.94,0,0,0,2.49-.11,5.72,5.72,0,0,0,3-1.57Zm-1.54-7a6,6,0,0,0-.08-.8,11,11,0,0,0-.56-1.88,3.75,3.75,0,0,0-4-2.22,4.49,4.49,0,0,0-4.32,4.9Z"/><path class="cls-1" d="M27.73,50.15v-23h12a7.66,7.66,0,0,1,3.71.81,5.93,5.93,0,0,1,3,4.25,10.12,10.12,0,0,1,.19,1.9q0,7.91,0,15.79v.3H40.81v-.51q0-7.66,0-15.34a5.56,5.56,0,0,0,0-.71,2,2,0,0,0-2.12-1.76c-1.65,0-3.31,0-5,0l-.13,0v18.3Z"/><path class="cls-1" d="M51,20.83h5.82v6.26h4.42v4.72H56.87c0,.17,0,.3,0,.43V43c0,.18,0,.36,0,.54a1.7,1.7,0,0,0,1.88,1.72c.67,0,1.34,0,2,0h.47v4.85c-.06,0-.1,0-.14,0-1.47,0-3,0-4.42-.09a6,6,0,0,1-5.59-5.56A13.5,13.5,0,0,1,51,43.1q0-10.85,0-21.7Z"/><path class="cls-1" d="M92.66,49.89A5.64,5.64,0,0,1,86.89,45a12.08,12.08,0,0,1-.09-1.47v-26h5.86Z"/><path class="cls-1" d="M22.49,27.11V50.4c-3.19-.19-5.32-1.95-5.76-4.69A11.1,11.1,0,0,1,16.6,44q0-8.16,0-16.33v-.54Z"/><path class="cls-1" d="M16.65,18.33h5.8v5.55h-5.8Z"/><path class="cls-1" d="M101.39,19.87A2.35,2.35,0,1,1,99,17.52,2.36,2.36,0,0,1,101.39,19.87ZM99,21.81a2,2,0,1,0-1.92-2A2,2,0,0,0,99,21.81Z"/><path class="cls-1" d="M99.57,20.1l.61,1.08c-.54.16-.56.15-.79-.24a5.43,5.43,0,0,0-.35-.57c-.08-.11-.23-.16-.43-.3v1.17H98v-1c0-.47,0-.95,0-1.43,0-.25.07-.39.36-.39s.59,0,.89,0a.77.77,0,0,1,.78.54A.88.88,0,0,1,99.68,20Zm-1-.43c.33,0,.65.12.84-.19a.45.45,0,0,0,0-.41c-.21-.25-.52-.2-.83-.17Z"/></g></g></g></svg>