<svg xmlns="http://www.w3.org/2000/svg" viewBox="0 0 131.4 28.76"><defs><style>.cls-1{fill:#444e5b;}</style></defs><title>Ativo 29</title><g id="Camada_2" data-name="Camada 2"><g id="Layer_1" data-name="Layer 1"><path class="cls-1" d="M33.44,7.2H39.2c6,0,7.25.77,7.25,5.12,0,3.95-1.42,4.81-6.9,4.81H38.12v4.44H33.44Zm6.22,7c2,0,2.12-.2,2.12-1.9,0-2-.1-2-2.12-2H38.12V14.2c.4,0,.94,0,1.54,0"/><path class="cls-1" d="M47.82,14.41C47.82,8.63,48.9,7,54.53,7s6.68,1.64,6.68,7.42-1,7.38-6.68,7.38-6.71-1.66-6.71-7.38m8.78,0c0-3.88-.11-4.12-2.07-4.12s-2.05.24-2.05,4.12.09,4.1,2.05,4.1,2.07-.26,2.07-4.1"/><path class="cls-1" d="M62.87,18.32s1.81.12,4,.12c2.61,0,3.33-.19,3.33-1,0-.56-.19-.81-1.07-1l-3-.74c-3-.82-3.6-1.61-3.6-4.22C62.59,8.4,64.44,7,69.17,7c2.22,0,4.44.22,4.44.22l0,3.27s-2-.11-3.89-.11c-2.18,0-2.72.15-2.72,1,0,.61.29.85,1.28,1.06l3,.68c3,.73,3.31,1.94,3.31,4.25,0,3.46-2.15,4.48-6.72,4.48-2.38,0-5-.24-5-.24Z"/><rect class="cls-1" x="76.23" y="7.2" width="4.68" height="14.38"/><polygon class="cls-1" points="86.42 10.43 82.55 10.43 82.55 7.2 94.91 7.2 94.91 10.43 91.08 10.43 91.08 21.57 86.42 21.57 86.42 10.43"/><rect class="cls-1" x="96.56" y="7.2" width="4.68" height="14.38"/><polygon class="cls-1" points="112.72 7.2 117.44 7.2 113.47 21.57 106.78 21.57 102.8 7.2 107.53 7.2 110.12 19.04 112.72 7.2"/><path class="cls-1" d="M118,14.41C118,8.63,119.08,7,124.72,7s6.68,1.64,6.68,7.42-1,7.38-6.68,7.38S118,20.13,118,14.41m8.77,0c0-3.88-.1-4.12-2.06-4.12s-2,.24-2,4.12.08,4.1,2,4.1,2.06-.26,2.06-4.1"/><path class="cls-1" d="M14.34,0A14.55,14.55,0,0,0,1.74,7.5,14.52,14.52,0,0,0,.51,18.19a23.59,23.59,0,0,0,5.19-.92A3.37,3.37,0,0,0,7.31,16c2.06-3.11,2.44-5.29,3.09-6A11.27,11.27,0,0,0,13.19,3a1,1,0,0,1,2-.33,5.39,5.39,0,0,1,.73,3.18c-.13,2-1.69,3.54-1.19,4.64a1.27,1.27,0,0,0,.94.68,50,50,0,0,1,6.13,1.11,1.4,1.4,0,0,1,1.15,1c.22.82-.33,1.11-.33,1.86s.79.92.74,1.85-.86,1-1,1.75.37.91.1,1.66-.84.72-1.16,1.22.05.94-.32,1.65c-.21.4-.45.61-1.35.88a22.8,22.8,0,0,1-4.2.84c-1.63.16-2.38,0-4.22.28A12.17,12.17,0,0,0,7,26.77a14.69,14.69,0,0,0,7.3,2A14.38,14.38,0,0,0,14.34,0"/></g></g></svg>