<svg xmlns="http://www.w3.org/2000/svg" viewBox="0 0 249.47 45.99"><defs><style>.cls-1{fill:#fff;}</style></defs><title>Ativo 22</title><g id="Camada_2" data-name="Camada 2"><g id="Layer_1" data-name="Layer 1"><g id="cabiPw.tif"><path class="cls-1" d="M44.83,46c-1.49-.26-3-.56-4.45-.78C34,44.28,27.52,43.38,21,42.46V24.28H45.8V46Z"/><path class="cls-1" d="M249.47,23.56c-.13.94-.28,1.87-.39,2.82a16.11,16.11,0,0,1-2.46,7.4,7.61,7.61,0,0,1-13.15-.5,17.77,17.77,0,0,1-1.79-5.71,26.76,26.76,0,0,1,1.2-13.73,8.1,8.1,0,0,1,10.21-5.13,7.3,7.3,0,0,1,4.43,4A20.94,20.94,0,0,1,249.27,21a6.55,6.55,0,0,0,.2,1Zm-3.22-.63-.31,0c0-1,.06-2,0-3a14.77,14.77,0,0,0-1.7-6.63,4.3,4.3,0,0,0-7.13-.74,8.77,8.77,0,0,0-1.65,3.14,28,28,0,0,0-.66,11.3,18.88,18.88,0,0,0,1.47,5.19,4.15,4.15,0,0,0,4.17,2.51,4.44,4.44,0,0,0,4-2.73,7.66,7.66,0,0,0,.71-1.8C245.59,27.73,245.9,25.33,246.25,22.93Z"/><path class="cls-1" d="M45.73,0V21.85H21c0-.33-.05-.67-.05-1,0-5.39,0-10.78,0-16.18,0-.83.18-1.12,1.08-1.25C29.8,2.32,37.56,1.15,45.33,0A2.25,2.25,0,0,1,45.73,0Z"/><path class="cls-1" d="M59.78,9h3.54l6.39,23.46c2.05-7.2,4.21-14.74,6.31-22.3.26-.95.6-1.39,1.62-1.23a12.37,12.37,0,0,0,1.84,0Q82.7,20.75,85.9,32.55c.6-2.45,1.19-4.94,1.83-7.41C89.08,20,90.46,14.79,91.79,9.6c.15-.56.37-.73.92-.7.87,0,1.74,0,2.77,0-2.61,9.34-5.18,18.57-7.75,27.84-1.06,0-2-.06-3,0-.68.05-.87-.3-1-.85-1.5-5.44-3-10.87-4.53-16.31-.45-1.66-.82-3.34-1.23-5a.94.94,0,0,0-.14-.24Q74.92,24.67,72,35c-.45,1.62-.46,1.62-2.16,1.7-2.06.09-2,.09-2.61-1.83Q63.7,22.56,60.12,10.23C60,9.83,59.91,9.42,59.78,9Z"/><path class="cls-1" d="M0,39.53V24H18.61V42.14Z"/><path class="cls-1" d="M18.64,4V22H0V6.51Z"/><path class="cls-1" d="M141.62,7.36h3.15V36.67h-3.08V33.79c-.21.09-.31.09-.34.15a7.72,7.72,0,0,1-8.14,3.17c-3.45-.63-5.38-3-6.14-6.29a14.22,14.22,0,0,1,1-10,8.23,8.23,0,0,1,10.39-4.08,18.87,18.87,0,0,1,3.19,2.1Zm.12,19h-.13c0-.68,0-1.36,0-2a5.62,5.62,0,0,0-10.87-1.89,11.73,11.73,0,0,0-.45,7.73c.82,2.93,2.91,4.57,5.6,4.49a5.77,5.77,0,0,0,5.5-4.91C141.6,28.64,141.63,27.49,141.74,26.37Z"/><path class="cls-1" d="M169.45,16.84a1.27,1.27,0,0,1,.28-.08c2.89-.14,2.89-.14,3.63,2.63,1.13,4.23,2.27,8.46,3.39,12.69.11.4.14.83.23,1.39,1.7-5.65,3.36-11.18,5-16.7h2.91c1.47,5.51,2.94,11,4.43,16.58l4.36-16.55h3.08c-.07.31-.12.61-.21.9-1.8,6.06-3.61,12.12-5.39,18.19-.18.63-.4.94-1.11.87s-1.55,0-2.41,0L183.25,21c-1.32,4.33-2.67,8.72-4,13.11l-.15.46c-.69,2.29-.69,2.27-3.11,2.22a.78.78,0,0,1-.89-.66q-2.76-9.37-5.57-18.74C169.48,17.21,169.48,17,169.45,16.84Z"/><path class="cls-1" d="M158.29,37.26c-5.15,0-8.75-3.18-9.48-8.34-.47-3.38,0-6.61,2.19-9.29,2.82-3.41,6.6-4,10.69-3,3.46.86,5.84,3.84,6.19,7.78a19,19,0,0,1-.2,5.32C166.75,34.47,163.13,37.26,158.29,37.26ZM165,26.8l-.14-.05c-.09-.84-.14-1.69-.28-2.51-.53-3.07-2.53-5.09-5.24-5.36a6.16,6.16,0,0,0-6.8,4.06,10.38,10.38,0,0,0,.26,8.25,5.93,5.93,0,0,0,6,3.46A5.32,5.32,0,0,0,164,31,35.14,35.14,0,0,0,165,26.8Z"/><path class="cls-1" d="M109.65,36.69h-3.11V16.82h3v3c.34-.42.55-.68.77-.93a7.46,7.46,0,0,1,7.45-2.54c2.79.58,4.67,2.78,4.83,6.08.21,4.54.16,9.09.21,13.63,0,.19,0,.38,0,.59h-3.1c0-1.3,0-2.53,0-3.76,0-3.15,0-6.31-.18-9.45-.26-4.06-4-6-7.22-3.76a5.67,5.67,0,0,0-2.6,4.86l-.06,11Z"/><path class="cls-1" d="M198.62,32.6l1.09.68a8.38,8.38,0,0,0,6.91,1,2.47,2.47,0,0,0,1.84-2,2.49,2.49,0,0,0-1.12-2.71c-1.08-.64-2.26-1.13-3.39-1.69a26,26,0,0,1-2.7-1.33,5.2,5.2,0,0,1,.34-9.15,10.24,10.24,0,0,1,8.57-.46,1.31,1.31,0,0,1,.65.92,20,20,0,0,1,0,2.47c-.56-.26-1-.49-1.53-.7a7,7,0,0,0-5.57-.33,2.62,2.62,0,0,0-1.81,2.42,2.54,2.54,0,0,0,1.55,2.59c1.23.58,2.49,1.1,3.72,1.68a16.23,16.23,0,0,1,2.22,1.18,5.17,5.17,0,0,1-.35,8.83c-3.24,1.82-6.59,1.63-9.95.29a.9.9,0,0,1-.48-.6C198.59,34.7,198.62,33.74,198.62,32.6Z"/><path class="cls-1" d="M227.78,36.69h-3V13.29l-6.38,3.17c0-1.23,0-2.12,0-3,0-.2.32-.47.54-.55a31.55,31.55,0,0,0,7.37-4.12,7.53,7.53,0,0,1,1.49-.61Z"/><path class="cls-1" d="M98.17,16.8h3V36.67h-3Z"/><path class="cls-1" d="M97.66,9.34a2,2,0,0,1,2.11-2.07,2.1,2.1,0,0,1,0,4.19A2,2,0,0,1,97.66,9.34Z"/></g></g></g></svg>