<svg xmlns="http://www.w3.org/2000/svg" viewBox="0 0 69.21 15.98"><defs><style>.cls-1{fill:#444e5b;}</style></defs><title>Ativo 30</title><g id="Camada_2" data-name="Camada 2"><g id="Layer_1" data-name="Layer 1"><path class="cls-1" d="M27.57,12.82a2.12,2.12,0,1,0-2.09-2.11,2.11,2.11,0,0,0,2.09,2.11"/><path class="cls-1" d="M41.23,15.57a6.42,6.42,0,0,1-5.64-3.19C34,10.05,32.13,7,31.07,5.41s-2-2.32-3.62-2.32-2.59.8-3.62,2.32-3,4.64-4.5,7a6.47,6.47,0,0,1-5.65,3.19A6.44,6.44,0,0,1,8,12.38C6.49,10.05,4.67,7.3,3.61,5.73S1.64,3.4,0,3.4V.81C2.37.81,4.39,2,6,4.47s2.91,4.34,4,6S12.18,13,13.68,13s2.55-.81,3.64-2.49,2.43-3.85,4.08-6.36S25.07.49,27.45.49s4.39,1.13,6,3.66,3,4.66,4.1,6.36S39.73,13,41.23,13Z"/><path class="cls-1" d="M47.34,0c-1.26,1.27-2,2.38-2,5.62v10h2.79V5.5c0-1.6.12-2.36.93-3.2Z"/><path class="cls-1" d="M53.36,8a7.93,7.93,0,1,1,7.93,8,7.94,7.94,0,0,1-7.93-8m7.93,5.31A5.23,5.23,0,0,0,66.43,8,5.14,5.14,0,1,0,56.15,8a5.23,5.23,0,0,0,5.14,5.31"/></g></g></svg>