<svg xmlns="http://www.w3.org/2000/svg" viewBox="0 0 60.45 29.98"><defs><style>.cls-1{fill:#444e5b;}</style></defs><title>Ativo 32</title><g id="Camada_2" data-name="Camada 2"><g id="Layer_1" data-name="Layer 1"><g id="Ja9Dpp.tif"><path class="cls-1" d="M15.06,0C15,3.48,15,13.25,15,13.25L3.2,25,.09,21.93,10.3,11.72v-7l-5.56,0V8.29H.11L0,0Z"/><polygon class="cls-1" points="41.26 10.12 41.26 25.01 37.85 25.01 37.78 5.05 41.39 5.05 47.09 10.9 52.86 5.1 56.5 5.1 56.5 24.97 53.04 25.06 53.04 10.24 49.73 13.35 52.69 16.39 50.17 18.97 47.14 15.99 44.03 19.02 41.56 16.6 44.67 13.44 41.26 10.12"/><path class="cls-1" d="M31.76,5.1V24.87L20.49,25V14.93l6.34-6.31-3.17,0H20.52L20.43,5.1ZM28.39,21.48l-.11-8.88L24,16.7,24,21.48Z"/><polygon class="cls-1" points="14.99 25.52 14.99 29.9 0.08 29.98 0.08 25.59 14.99 25.52"/><polygon class="cls-1" points="33.81 24.19 33.81 22.42 35.61 22.42 35.61 24.12 33.81 24.19"/><rect class="cls-1" x="58.66" y="22.4" width="1.79" height="1.75"/></g></g></g></svg>