<svg xmlns="http://www.w3.org/2000/svg" xmlns:xlink="http://www.w3.org/1999/xlink" viewBox="0 0 314.78 94.36"><defs><style>.cls-1{fill:url(#linear-gradient);}.cls-2{fill:url(#linear-gradient-2);}.cls-3{fill:url(#linear-gradient-3);}.cls-4{fill:#444e5a;}.cls-5{fill:#6bbaa8;}</style><linearGradient id="linear-gradient" x1="31.98" y1="46.06" x2="66.42" y2="46.06" gradientUnits="userSpaceOnUse"><stop offset="0" stop-color="#6bbaa8"/><stop offset="1" stop-color="#5e8eaa"/></linearGradient><linearGradient id="linear-gradient-2" x1="43.15" y1="94.15" x2="43.15" y2="-1.09" xlink:href="#linear-gradient"/><linearGradient id="linear-gradient-3" x1="15.36" y1="47.18" x2="83.39" y2="47.18" xlink:href="#linear-gradient"/></defs><title>Ativo 1</title><g id="Camada_2" data-name="Camada 2"><g id="Layer_1" data-name="Layer 1"><path class="cls-1" d="M37.55,32A5.47,5.47,0,0,0,32,37.37V48.91a5.47,5.47,0,0,0,5.57,5.35h23.1a.3.3,0,1,1,0,.59H34.72a2.62,2.62,0,1,0,0,5.24H60.65a5.54,5.54,0,1,0,0-11.08H37.55a.09.09,0,0,1-.1-.1V37.37a.09.09,0,0,1,.1-.1H60.72a.1.1,0,0,1,.11.1v8.55a2.73,2.73,0,0,0,5.46,0V37.37A5.47,5.47,0,0,0,60.72,32Z"/><path class="cls-2" d="M46.55,0A49.21,49.21,0,0,0,12.8,15.1a45.42,45.42,0,0,0,2.9,66l1.17,1a50.14,50.14,0,0,0,68.71-2.79,2.54,2.54,0,0,0-.16-3.7,2.82,2.82,0,0,0-3.86.15c-16.1,16.83-43.47,17.94-61,2.48l-1.16-1a40.32,40.32,0,0,1-2.58-58.54,43.62,43.62,0,0,1,30-13.37,44,44,0,0,1,27.49,8.08h-.58a2.63,2.63,0,1,0,0,5.25H81.5A2.68,2.68,0,0,0,84.23,16V8.49a2.74,2.74,0,0,0-5.47,0v1.59A49.49,49.49,0,0,0,48.64,0C48,0,47.25,0,46.55,0"/><path class="cls-3" d="M15.52,35.79a2.59,2.59,0,0,0,1.65,3.35,2.76,2.76,0,0,0,3.49-1.6C24.9,26.1,36.26,18.41,48.91,18.41c16.53,0,30,12.91,30,28.77S65.44,76,48.91,76a31,31,0,0,1-17.7-5.57h.73a2.63,2.63,0,1,0,0-5.25h-7.8a2.69,2.69,0,0,0-2.74,2.62v7.5a2.74,2.74,0,0,0,5.47,0V73.81a36.48,36.48,0,0,0,22,7.39c19.54,0,35.44-15.26,35.44-34s-15.9-34-35.44-34c-15,0-28.38,9.09-33.39,22.62"/><path class="cls-4" d="M125.19,32c4.18,0,4.4-.38,4.4-3.76,0-4-.22-4-4.4-4H122v7.75c.83,0,2,0,3.18,0M112.9,18h11.38c12.53,0,15.23,1.57,15.23,10.28,0,8-3,9.7-14.49,9.7h-3v8.75H112.9Z"/><path class="cls-4" d="M160.2,32c0-7.65-.22-8.16-4.27-8.16s-4.23.51-4.23,8.16.18,8.12,4.23,8.12,4.27-.5,4.27-8.12m-18.13,0c0-11.42,2.23-14.68,13.86-14.68S169.75,20.57,169.75,32s-2.14,14.6-13.82,14.6S142.07,43.33,142.07,32"/><path class="cls-4" d="M172.8,39.7s3.74.25,8.25.25c5.38,0,6.85-.38,6.85-1.92,0-1.08-.39-1.58-2.21-2l-6.07-1.46c-6.07-1.62-7.42-3.16-7.42-8.32,0-6.08,3.82-8.87,13.57-8.87,4.56,0,9.11.46,9.11.46l-.08,6.4s-4-.2-8-.2c-4.48,0-5.6.28-5.6,1.87,0,1.21.6,1.67,2.65,2.09L190,29.33c6.07,1.46,6.82,3.82,6.82,8.37,0,6.82-4.43,8.82-13.84,8.82-4.9,0-10.24-.45-10.24-.45Z"/><rect class="cls-4" x="201.39" y="17.95" width="9.11" height="28.73"/><polygon class="cls-4" points="222.21 24.19 213.1 24.19 213.1 17.95 239.13 17.95 239.13 24.19 231.32 24.19 231.32 46.68 222.21 46.68 222.21 24.19"/><rect class="cls-4" x="243.03" y="17.95" width="9.11" height="28.73"/><polygon class="cls-4" points="276.22 17.95 286.08 17.95 277.81 46.68 263.86 46.68 255.53 17.95 265.39 17.95 270.82 41.61 276.22 17.95"/><path class="cls-4" d="M305.24,32c0-7.65-.22-8.16-4.27-8.16s-4.24.51-4.24,8.16.19,8.12,4.24,8.12,4.27-.5,4.27-8.12m-18.13,0c0-11.42,2.22-14.68,13.86-14.68S314.78,20.57,314.78,32s-2.14,14.6-13.81,14.6S287.11,43.33,287.11,32"/><path class="cls-5" d="M118.54,65.68l1.77,6.25h-3.58Zm-2.34-3-4.75,14.94h3.65l.84-2.91h5.21l.84,2.91h3.65l-4.77-14.94Zm36.37,3,1.77,6.25h-3.57Zm-2.34-3-4.75,14.94h3.65l.84-2.91h5.21l.84,2.91h3.65L154.9,62.71Zm30.57,0V77.65h9.79v-3H184.3V71.41h5.8v-3h-5.8V65.69h6.29v-3Zm16.57,3h2.78c1.43,0,1.87.45,1.87,1.58v1.18c0,1.13-.37,1.64-1.87,1.64h-2.78Zm-3.5-3V77.65h3.5V73h2.06l3.43,4.64H207l-3.76-5.11a3.59,3.59,0,0,0,2.27-3.75V67c0-2.8-1.4-4.24-5.19-4.24Zm24.28,0-3.3,11.89-3.29-11.89H208l4.39,14.94h5l4.39-14.94ZM224,77.65h3.5V62.71H224Zm20-14.94V77.65h9.79v-3h-6.29V71.41h5.8v-3h-5.8V65.69h6.29v-3ZM127.79,66.66c0,3.23.56,4,4.32,4.74,2.55.53,2.62.69,2.62,2s-.35,1.6-2.15,1.6a15.17,15.17,0,0,1-4.48-.72l-.59,2.6a13.36,13.36,0,0,0,5,1c4.7,0,5.71-1.46,5.71-4.42s-.21-3.73-4.42-4.69c-2.45-.56-2.52-.58-2.52-2,0-1.1.35-1.37,1.91-1.37a24,24,0,0,1,4.33.43l.35-2.83a23.5,23.5,0,0,0-4.72-.49c-4.28,0-5.38,1.19-5.38,4.17m39.53,0c0,3.23.55,4,4.32,4.74,2.55.53,2.62.69,2.62,2s-.35,1.6-2.16,1.6a15.17,15.17,0,0,1-4.48-.72l-.58,2.6a13.32,13.32,0,0,0,5,1c4.7,0,5.7-1.46,5.7-4.42s-.21-3.73-4.42-4.69c-2.45-.56-2.52-.58-2.52-2,0-1.1.35-1.37,1.92-1.37a24,24,0,0,1,4.32.43l.35-2.83a23.43,23.43,0,0,0-4.72-.49c-4.28,0-5.37,1.19-5.37,4.17m63.55.4V73.3c0,2.72,1.75,4.58,5.67,4.58a22.06,22.06,0,0,0,4.51-.47l-.49-2.94a25.91,25.91,0,0,1-4,.36c-1.73,0-2.17-.77-2.17-2.07V67.6c0-1.3.44-2.06,2.17-2.06a25.91,25.91,0,0,1,4,.36l.49-2.94a22.06,22.06,0,0,0-4.51-.47c-3.92,0-5.67,1.86-5.67,4.57"/></g></g></svg>