<svg xmlns="http://www.w3.org/2000/svg" viewBox="0 0 84.58 54.19"><defs><style>.cls-1{fill:#444e5b;}</style></defs><title>Ativo 33</title><g id="Camada_2" data-name="Camada 2"><g id="Layer_1" data-name="Layer 1"><path class="cls-1" d="M31.73,38.12H21.38a.92.92,0,0,1-.79-1.38L42,.45A.9.9,0,0,1,42.8,0H54.64A1.56,1.56,0,0,1,56,2.35L36.47,35.41A5.5,5.5,0,0,1,31.73,38.12Z"/><path class="cls-1" d="M57.41,38.12h8.26A.73.73,0,0,0,66.3,37L49.21,8.06a.71.71,0,0,0-.63-.36H39.12a1.24,1.24,0,0,0-1.07,1.87L53.63,36A4.39,4.39,0,0,0,57.41,38.12Z"/><path class="cls-1" d="M43.5,28.52c-14.08,3.36-26.11,3.5-26.87.31-.26-1.06.76-2.35,2.74-3.72-5.06,3-7.89,5.75-7.29,7.56,1.2,3.59,15.5,2,32-3.43,3.74-1.25,7.27-2.59,10.47-4A106.3,106.3,0,0,1,43.5,28.52Z"/><path class="cls-1" d="M71.64,12.81c-1.2-3.59-15.5-2.05-31.95,3.43A130.14,130.14,0,0,0,26,21.65,97.45,97.45,0,0,1,40.73,17c14.08-3.36,26.11-3.5,26.87-.31.17.69-.22,1.49-1.06,2.35C70.2,16.54,72.15,14.34,71.64,12.81Z"/><path class="cls-1" d="M19.84,44.73l7.23.06a1.19,1.19,0,1,0,.07-2.38l-8.61-.08c-.66,0-2.87.87-2.87,2.8v6.26c0,1.93,2.21,2.81,2.87,2.79l8.61-.07a1.19,1.19,0,1,0-.07-2.38l-7.23.06a1.37,1.37,0,0,1-1.38-1.37V46.1A1.36,1.36,0,0,1,19.84,44.73Z"/><path class="cls-1" d="M34.34,44.73l7.23.06a1.19,1.19,0,1,0,.07-2.38L33,42.33c-.66,0-2.87.87-2.87,2.8v6.26c0,1.93,2.21,2.81,2.87,2.79l8.61-.07a1.19,1.19,0,1,0-.07-2.38l-7.23.06A1.37,1.37,0,0,1,33,50.42V46.1A1.36,1.36,0,0,1,34.34,44.73Z"/><path class="cls-1" d="M68.79,42.33l-8.62.08A1.18,1.18,0,0,0,59,43.53s0,0,0,0V53a1.18,1.18,0,1,0,2.35,0V50.25L69,50.14C74,50,73.75,42.18,68.79,42.33Zm1.43,4.05a1.37,1.37,0,0,1-1.38,1.37l-7.48-.06V44.78l7.48-.05a1.36,1.36,0,0,1,1.38,1.37Z"/><path class="cls-1" d="M56.27,49.33A1.19,1.19,0,0,0,56.2,47l-8.62,0v-.9A1.36,1.36,0,0,1,49,44.73l3.12,0V42.37l-4.43,0c-.65,0-2.87.87-2.87,2.8v6.26c0,1.93,2.22,2.81,2.87,2.79l8.62-.07a1.19,1.19,0,0,0-.07-2.38L49,51.79a1.37,1.37,0,0,1-1.38-1.37v-1Z"/><path class="cls-1" d="M8.84,42.87a1.18,1.18,0,0,0-1.07-.53,1.18,1.18,0,0,0-1.07.53L.2,52.26a1.18,1.18,0,0,0,.34,1.65,1.2,1.2,0,0,0,1.65-.34l2-2.83,7.19-.09,2,2.92a1.19,1.19,0,0,0,2-1.31Zm-3,5.47,2-2.84L9.7,48.29Z"/><path class="cls-1" d="M56.27,42.41l-3.33,0v2.38l3.26,0a1.19,1.19,0,0,0,.07-2.38Z"/><path class="cls-1" d="M83.4,42.5h-9a1.07,1.07,0,0,0-1.07,1.08,1.27,1.27,0,0,0,1.27,1.27h3.18V53a1.18,1.18,0,1,0,2.35,0V44.85H83.4a1.18,1.18,0,1,0,0-2.35Z"/></g></g></svg>