<svg xmlns="http://www.w3.org/2000/svg" viewBox="0 0 841.78 361.18"><defs><style>.cls-1,.cls-10,.cls-11,.cls-2,.cls-3,.cls-4,.cls-5,.cls-6,.cls-7,.cls-8,.cls-9{fill:none;stroke:#7acdd6;stroke-miterlimit:10;stroke-width:1.86px;}.cls-2{stroke-dasharray:1.88 5.63;}.cls-3{stroke-dasharray:1.88 5.65;}.cls-4{stroke-dasharray:1.88 5.65;}.cls-5{stroke-dasharray:1.88 5.65;}.cls-6{stroke-dasharray:1.88 5.64;}.cls-7{stroke-dasharray:1.88 5.64;}.cls-8{stroke-dasharray:1.87 5.62;}.cls-9{stroke-dasharray:1.87 5.62;}.cls-10{stroke-dasharray:1.88 5.64;}.cls-11{stroke-dasharray:1.89 5.66;}</style></defs><title>Ativo 16</title><g id="Camada_2" data-name="Camada 2"><g id="Layer_1" data-name="Layer 1"><line class="cls-1" x1="840.84" y1="361.18" x2="840.84" y2="360.25"/><line class="cls-2" x1="840.84" y1="354.61" x2="840.84" y2="319.87"/><line class="cls-1" x1="840.84" y1="317.06" x2="840.84" y2="316.13"/><line class="cls-1" x1="834.33" y1="361.18" x2="834.33" y2="360.25"/><line class="cls-2" x1="834.33" y1="354.61" x2="834.33" y2="319.87"/><line class="cls-1" x1="834.33" y1="317.06" x2="834.33" y2="316.13"/><line class="cls-1" x1="827.82" y1="361.18" x2="827.82" y2="360.25"/><line class="cls-2" x1="827.82" y1="354.61" x2="827.82" y2="319.87"/><line class="cls-1" x1="827.82" y1="317.06" x2="827.82" y2="316.13"/><line class="cls-1" x1="821.31" y1="361.18" x2="821.31" y2="360.25"/><line class="cls-2" x1="821.31" y1="354.61" x2="821.31" y2="319.87"/><line class="cls-1" x1="821.31" y1="317.06" x2="821.31" y2="316.13"/><line class="cls-1" x1="814.8" y1="361.18" x2="814.8" y2="360.25"/><line class="cls-2" x1="814.8" y1="354.61" x2="814.8" y2="319.87"/><line class="cls-1" x1="814.8" y1="317.06" x2="814.8" y2="316.13"/><line class="cls-1" x1="808.29" y1="361.18" x2="808.29" y2="360.25"/><line class="cls-2" x1="808.29" y1="354.61" x2="808.29" y2="319.87"/><line class="cls-1" x1="808.29" y1="317.06" x2="808.29" y2="316.13"/><line class="cls-1" x1="801.78" y1="361.18" x2="801.78" y2="360.25"/><line class="cls-2" x1="801.78" y1="354.61" x2="801.78" y2="319.87"/><line class="cls-1" x1="801.78" y1="317.06" x2="801.78" y2="316.13"/><line class="cls-1" x1="795.27" y1="361.18" x2="795.27" y2="360.25"/><line class="cls-2" x1="795.27" y1="354.61" x2="795.27" y2="319.87"/><line class="cls-1" x1="795.27" y1="317.06" x2="795.27" y2="316.13"/><line class="cls-1" x1="788.76" y1="361.18" x2="788.76" y2="360.25"/><line class="cls-2" x1="788.76" y1="354.61" x2="788.76" y2="319.87"/><line class="cls-1" x1="788.76" y1="317.06" x2="788.76" y2="316.13"/><line class="cls-1" x1="782.25" y1="361.18" x2="782.25" y2="360.25"/><line class="cls-2" x1="782.25" y1="354.61" x2="782.25" y2="319.87"/><line class="cls-1" x1="782.25" y1="317.06" x2="782.25" y2="316.13"/><line class="cls-1" x1="775.73" y1="361.18" x2="775.73" y2="360.25"/><line class="cls-2" x1="775.73" y1="354.61" x2="775.73" y2="319.87"/><line class="cls-1" x1="775.73" y1="317.06" x2="775.73" y2="316.13"/><line class="cls-1" x1="769.22" y1="361.18" x2="769.22" y2="360.25"/><line class="cls-2" x1="769.22" y1="354.61" x2="769.22" y2="319.87"/><line class="cls-1" x1="769.22" y1="317.06" x2="769.22" y2="316.13"/><line class="cls-1" x1="762.71" y1="361.18" x2="762.71" y2="360.25"/><line class="cls-2" x1="762.71" y1="354.61" x2="762.71" y2="319.87"/><line class="cls-1" x1="762.71" y1="317.06" x2="762.71" y2="316.13"/><line class="cls-1" x1="756.2" y1="361.18" x2="756.2" y2="360.25"/><line class="cls-2" x1="756.2" y1="354.61" x2="756.2" y2="319.87"/><line class="cls-1" x1="756.2" y1="317.06" x2="756.2" y2="316.13"/><line class="cls-1" x1="749.69" y1="361.18" x2="749.69" y2="360.25"/><line class="cls-2" x1="749.69" y1="354.61" x2="749.69" y2="319.87"/><line class="cls-1" x1="749.69" y1="317.06" x2="749.69" y2="316.13"/><line class="cls-1" x1="743.18" y1="361.18" x2="743.18" y2="360.25"/><line class="cls-2" x1="743.18" y1="354.61" x2="743.18" y2="319.87"/><line class="cls-1" x1="743.18" y1="317.06" x2="743.18" y2="316.13"/><line class="cls-1" x1="736.67" y1="361.18" x2="736.67" y2="360.25"/><line class="cls-2" x1="736.67" y1="354.61" x2="736.67" y2="319.87"/><line class="cls-1" x1="736.67" y1="317.06" x2="736.67" y2="316.13"/><line class="cls-1" x1="730.16" x2="730.16" y2="0.93"/><line class="cls-3" x1="730.16" y1="6.58" x2="730.16" y2="312.37"/><line class="cls-1" x1="730.16" y1="315.19" x2="730.16" y2="316.13"/><line class="cls-1" x1="723.65" x2="723.65" y2="0.93"/><line class="cls-3" x1="723.65" y1="6.58" x2="723.65" y2="312.37"/><line class="cls-1" x1="723.65" y1="315.19" x2="723.65" y2="316.13"/><line class="cls-1" x1="717.14" x2="717.14" y2="0.93"/><line class="cls-3" x1="717.14" y1="6.58" x2="717.14" y2="312.37"/><line class="cls-1" x1="717.14" y1="315.19" x2="717.14" y2="316.13"/><line class="cls-1" x1="710.63" x2="710.63" y2="0.93"/><line class="cls-3" x1="710.63" y1="6.58" x2="710.63" y2="312.37"/><line class="cls-1" x1="710.63" y1="315.19" x2="710.63" y2="316.13"/><line class="cls-1" x1="704.11" x2="704.11" y2="0.93"/><line class="cls-3" x1="704.11" y1="6.58" x2="704.11" y2="312.37"/><line class="cls-1" x1="704.11" y1="315.19" x2="704.11" y2="316.13"/><line class="cls-1" x1="697.6" x2="697.6" y2="0.93"/><line class="cls-4" x1="697.6" y1="6.58" x2="697.6" y2="267.5"/><line class="cls-1" x1="697.6" y1="270.33" x2="697.6" y2="271.26"/><line class="cls-1" x1="691.09" x2="691.09" y2="0.93"/><line class="cls-4" x1="691.09" y1="6.58" x2="691.09" y2="267.5"/><line class="cls-1" x1="691.09" y1="270.33" x2="691.09" y2="271.26"/><line class="cls-1" x1="684.58" x2="684.58" y2="0.93"/><line class="cls-4" x1="684.58" y1="6.58" x2="684.58" y2="267.5"/><line class="cls-1" x1="684.58" y1="270.33" x2="684.58" y2="271.26"/><line class="cls-1" x1="678.07" x2="678.07" y2="0.93"/><line class="cls-4" x1="678.07" y1="6.58" x2="678.07" y2="267.5"/><line class="cls-1" x1="678.07" y1="270.33" x2="678.07" y2="271.26"/><line class="cls-1" x1="671.56" x2="671.56" y2="0.93"/><line class="cls-4" x1="671.56" y1="6.58" x2="671.56" y2="267.5"/><line class="cls-1" x1="671.56" y1="270.33" x2="671.56" y2="271.26"/><line class="cls-1" x1="665.05" x2="665.05" y2="0.93"/><line class="cls-4" x1="665.05" y1="6.58" x2="665.05" y2="267.5"/><line class="cls-1" x1="665.05" y1="270.33" x2="665.05" y2="271.26"/><line class="cls-1" x1="658.54" x2="658.54" y2="0.93"/><line class="cls-4" x1="658.54" y1="6.58" x2="658.54" y2="267.5"/><line class="cls-1" x1="658.54" y1="270.33" x2="658.54" y2="271.26"/><line class="cls-1" x1="652.03" x2="652.03" y2="0.93"/><line class="cls-4" x1="652.03" y1="6.58" x2="652.03" y2="267.5"/><line class="cls-1" x1="652.03" y1="270.33" x2="652.03" y2="271.26"/><line class="cls-1" x1="645.52" x2="645.52" y2="0.93"/><line class="cls-4" x1="645.52" y1="6.58" x2="645.52" y2="267.5"/><line class="cls-1" x1="645.52" y1="270.33" x2="645.52" y2="271.26"/><line class="cls-1" x1="639" x2="639" y2="0.93"/><line class="cls-4" x1="639" y1="6.58" x2="639" y2="267.5"/><line class="cls-1" x1="639" y1="270.33" x2="639" y2="271.26"/><line class="cls-1" x1="632.49" x2="632.49" y2="0.93"/><line class="cls-4" x1="632.49" y1="6.58" x2="632.49" y2="267.5"/><line class="cls-1" x1="632.49" y1="270.33" x2="632.49" y2="271.26"/><line class="cls-1" x1="625.98" x2="625.98" y2="0.93"/><line class="cls-4" x1="625.98" y1="6.58" x2="625.98" y2="267.5"/><line class="cls-1" x1="625.98" y1="270.33" x2="625.98" y2="271.26"/><line class="cls-1" x1="619.47" x2="619.47" y2="0.93"/><line class="cls-4" x1="619.47" y1="6.58" x2="619.47" y2="267.5"/><line class="cls-1" x1="619.47" y1="270.33" x2="619.47" y2="271.26"/><line class="cls-1" x1="612.96" x2="612.96" y2="0.93"/><line class="cls-4" x1="612.96" y1="6.58" x2="612.96" y2="267.5"/><line class="cls-1" x1="612.96" y1="270.33" x2="612.96" y2="271.26"/><line class="cls-1" x1="606.45" y1="120.51" x2="606.45" y2="121.45"/><line class="cls-5" x1="606.45" y1="127.1" x2="606.45" y2="267.5"/><line class="cls-1" x1="606.45" y1="270.33" x2="606.45" y2="271.26"/><line class="cls-1" x1="599.94" y1="120.51" x2="599.94" y2="121.45"/><line class="cls-5" x1="599.94" y1="127.1" x2="599.94" y2="267.5"/><line class="cls-1" x1="599.94" y1="270.33" x2="599.94" y2="271.26"/><line class="cls-1" x1="593.43" y1="120.51" x2="593.43" y2="121.45"/><line class="cls-5" x1="593.43" y1="127.1" x2="593.43" y2="267.5"/><line class="cls-1" x1="593.43" y1="270.33" x2="593.43" y2="271.26"/><line class="cls-1" x1="586.92" y1="120.51" x2="586.92" y2="121.45"/><line class="cls-5" x1="586.92" y1="127.1" x2="586.92" y2="267.5"/><line class="cls-1" x1="586.92" y1="270.33" x2="586.92" y2="271.26"/><line class="cls-1" x1="580.41" y1="120.51" x2="580.41" y2="121.45"/><line class="cls-5" x1="580.41" y1="127.1" x2="580.41" y2="267.5"/><line class="cls-1" x1="580.41" y1="270.33" x2="580.41" y2="271.26"/><line class="cls-1" x1="573.9" y1="120.51" x2="573.9" y2="121.45"/><line class="cls-5" x1="573.9" y1="127.1" x2="573.9" y2="267.5"/><line class="cls-1" x1="573.9" y1="270.33" x2="573.9" y2="271.26"/><line class="cls-1" x1="567.38" y1="120.51" x2="567.38" y2="121.45"/><line class="cls-5" x1="567.38" y1="127.1" x2="567.38" y2="267.5"/><line class="cls-1" x1="567.38" y1="270.33" x2="567.38" y2="271.26"/><line class="cls-1" x1="560.87" y1="120.51" x2="560.87" y2="121.45"/><line class="cls-5" x1="560.87" y1="127.1" x2="560.87" y2="267.5"/><line class="cls-1" x1="560.87" y1="270.33" x2="560.87" y2="271.26"/><line class="cls-1" x1="554.36" y1="120.51" x2="554.36" y2="121.45"/><line class="cls-5" x1="554.36" y1="127.1" x2="554.36" y2="267.5"/><line class="cls-1" x1="554.36" y1="270.33" x2="554.36" y2="271.26"/><line class="cls-1" x1="547.85" y1="120.51" x2="547.85" y2="121.45"/><line class="cls-5" x1="547.85" y1="127.1" x2="547.85" y2="267.5"/><line class="cls-1" x1="547.85" y1="270.33" x2="547.85" y2="271.26"/><line class="cls-1" x1="541.34" y1="120.51" x2="541.34" y2="121.45"/><line class="cls-5" x1="541.34" y1="127.1" x2="541.34" y2="267.5"/><line class="cls-1" x1="541.34" y1="270.33" x2="541.34" y2="271.26"/><line class="cls-1" x1="534.83" y1="120.51" x2="534.83" y2="121.45"/><line class="cls-5" x1="534.83" y1="127.1" x2="534.83" y2="267.5"/><line class="cls-1" x1="534.83" y1="270.33" x2="534.83" y2="271.26"/><line class="cls-1" x1="528.32" y1="120.51" x2="528.32" y2="121.45"/><line class="cls-5" x1="528.32" y1="127.1" x2="528.32" y2="267.5"/><line class="cls-1" x1="528.32" y1="270.33" x2="528.32" y2="271.26"/><line class="cls-1" x1="521.81" y1="120.51" x2="521.81" y2="121.45"/><line class="cls-5" x1="521.81" y1="127.1" x2="521.81" y2="267.5"/><line class="cls-1" x1="521.81" y1="270.33" x2="521.81" y2="271.26"/><line class="cls-1" x1="515.3" y1="120.51" x2="515.3" y2="121.45"/><line class="cls-5" x1="515.3" y1="127.1" x2="515.3" y2="267.5"/><line class="cls-1" x1="515.3" y1="270.33" x2="515.3" y2="271.26"/><line class="cls-1" x1="508.79" y1="120.51" x2="508.79" y2="121.45"/><line class="cls-5" x1="508.79" y1="127.1" x2="508.79" y2="267.5"/><line class="cls-1" x1="508.79" y1="270.33" x2="508.79" y2="271.26"/><line class="cls-1" x1="502.27" x2="502.27" y2="0.93"/><line class="cls-4" x1="502.27" y1="6.58" x2="502.27" y2="267.5"/><line class="cls-1" x1="502.27" y1="270.33" x2="502.27" y2="271.26"/><line class="cls-1" x1="495.76" x2="495.76" y2="0.93"/><line class="cls-4" x1="495.76" y1="6.58" x2="495.76" y2="267.5"/><line class="cls-1" x1="495.76" y1="270.33" x2="495.76" y2="271.26"/><line class="cls-1" x1="489.25" x2="489.25" y2="0.93"/><line class="cls-4" x1="489.25" y1="6.58" x2="489.25" y2="267.5"/><line class="cls-1" x1="489.25" y1="270.33" x2="489.25" y2="271.26"/><line class="cls-1" x1="482.74" x2="482.74" y2="0.93"/><line class="cls-4" x1="482.74" y1="6.58" x2="482.74" y2="267.5"/><line class="cls-1" x1="482.74" y1="270.33" x2="482.74" y2="271.26"/><line class="cls-1" x1="476.23" x2="476.23" y2="0.93"/><line class="cls-4" x1="476.23" y1="6.58" x2="476.23" y2="267.5"/><line class="cls-1" x1="476.23" y1="270.33" x2="476.23" y2="271.26"/><line class="cls-1" x1="469.72" x2="469.72" y2="0.93"/><line class="cls-4" x1="469.72" y1="6.58" x2="469.72" y2="267.5"/><line class="cls-1" x1="469.72" y1="270.33" x2="469.72" y2="271.26"/><line class="cls-1" x1="463.21" x2="463.21" y2="0.93"/><line class="cls-4" x1="463.21" y1="6.58" x2="463.21" y2="267.5"/><line class="cls-1" x1="463.21" y1="270.33" x2="463.21" y2="271.26"/><line class="cls-1" x1="456.7" x2="456.7" y2="0.93"/><line class="cls-4" x1="456.7" y1="6.58" x2="456.7" y2="267.5"/><line class="cls-1" x1="456.7" y1="270.33" x2="456.7" y2="271.26"/><line class="cls-1" x1="450.19" x2="450.19" y2="0.93"/><line class="cls-4" x1="450.19" y1="6.58" x2="450.19" y2="267.5"/><line class="cls-1" x1="450.19" y1="270.33" x2="450.19" y2="271.26"/><line class="cls-1" x1="443.68" x2="443.68" y2="0.93"/><line class="cls-4" x1="443.68" y1="6.58" x2="443.68" y2="267.5"/><line class="cls-1" x1="443.68" y1="270.33" x2="443.68" y2="271.26"/><line class="cls-1" x1="437.17" x2="437.17" y2="0.93"/><line class="cls-4" x1="437.17" y1="6.58" x2="437.17" y2="267.5"/><line class="cls-1" x1="437.17" y1="270.33" x2="437.17" y2="271.26"/><line class="cls-1" x1="430.65" x2="430.65" y2="0.93"/><line class="cls-4" x1="430.65" y1="6.58" x2="430.65" y2="267.5"/><line class="cls-1" x1="430.65" y1="270.33" x2="430.65" y2="271.26"/><line class="cls-1" x1="424.14" x2="424.14" y2="0.93"/><line class="cls-6" x1="424.14" y1="6.58" x2="424.14" y2="357.43"/><line class="cls-1" x1="424.14" y1="360.25" x2="424.14" y2="361.18"/><line class="cls-1" x1="417.63" x2="417.63" y2="0.93"/><line class="cls-6" x1="417.63" y1="6.58" x2="417.63" y2="357.43"/><line class="cls-1" x1="417.63" y1="360.25" x2="417.63" y2="361.18"/><line class="cls-1" x1="411.12" x2="411.12" y2="0.93"/><line class="cls-6" x1="411.12" y1="6.58" x2="411.12" y2="357.43"/><line class="cls-1" x1="411.12" y1="360.25" x2="411.12" y2="361.18"/><line class="cls-1" x1="404.61" x2="404.61" y2="0.93"/><line class="cls-6" x1="404.61" y1="6.58" x2="404.61" y2="357.43"/><line class="cls-1" x1="404.61" y1="360.25" x2="404.61" y2="361.18"/><line class="cls-1" x1="398.1" x2="398.1" y2="0.93"/><line class="cls-6" x1="398.1" y1="6.58" x2="398.1" y2="357.43"/><line class="cls-1" x1="398.1" y1="360.25" x2="398.1" y2="361.18"/><line class="cls-1" x1="391.59" x2="391.59" y2="0.93"/><line class="cls-6" x1="391.59" y1="6.58" x2="391.59" y2="357.43"/><line class="cls-1" x1="391.59" y1="360.25" x2="391.59" y2="361.18"/><line class="cls-1" x1="385.08" x2="385.08" y2="0.93"/><line class="cls-6" x1="385.08" y1="6.58" x2="385.08" y2="357.43"/><line class="cls-1" x1="385.08" y1="360.25" x2="385.08" y2="361.18"/><line class="cls-1" x1="378.57" y1="120.51" x2="378.57" y2="121.45"/><line class="cls-7" x1="378.57" y1="127.09" x2="378.57" y2="357.43"/><line class="cls-1" x1="378.57" y1="360.25" x2="378.57" y2="361.18"/><line class="cls-1" x1="372.06" y1="120.51" x2="372.06" y2="121.45"/><line class="cls-7" x1="372.06" y1="127.09" x2="372.06" y2="357.43"/><line class="cls-1" x1="372.06" y1="360.25" x2="372.06" y2="361.18"/><line class="cls-1" x1="365.54" y1="120.51" x2="365.54" y2="121.45"/><line class="cls-7" x1="365.54" y1="127.09" x2="365.54" y2="357.43"/><line class="cls-1" x1="365.54" y1="360.25" x2="365.54" y2="361.18"/><line class="cls-1" x1="359.03" y1="120.51" x2="359.03" y2="121.45"/><line class="cls-7" x1="359.03" y1="127.09" x2="359.03" y2="357.43"/><line class="cls-1" x1="359.03" y1="360.25" x2="359.03" y2="361.18"/><line class="cls-1" x1="352.52" y1="120.51" x2="352.52" y2="121.45"/><line class="cls-7" x1="352.52" y1="127.09" x2="352.52" y2="357.43"/><line class="cls-1" x1="352.52" y1="360.25" x2="352.52" y2="361.18"/><line class="cls-1" x1="346.01" y1="120.51" x2="346.01" y2="121.45"/><line class="cls-7" x1="346.01" y1="127.09" x2="346.01" y2="357.43"/><line class="cls-1" x1="346.01" y1="360.25" x2="346.01" y2="361.18"/><line class="cls-1" x1="339.5" y1="120.51" x2="339.5" y2="121.45"/><line class="cls-7" x1="339.5" y1="127.09" x2="339.5" y2="357.43"/><line class="cls-1" x1="339.5" y1="360.25" x2="339.5" y2="361.18"/><line class="cls-1" x1="332.99" y1="120.51" x2="332.99" y2="121.45"/><line class="cls-7" x1="332.99" y1="127.09" x2="332.99" y2="357.43"/><line class="cls-1" x1="332.99" y1="360.25" x2="332.99" y2="361.18"/><line class="cls-1" x1="326.48" y1="120.51" x2="326.48" y2="121.45"/><line class="cls-7" x1="326.48" y1="127.09" x2="326.48" y2="357.43"/><line class="cls-1" x1="326.48" y1="360.25" x2="326.48" y2="361.18"/><line class="cls-1" x1="319.97" y1="120.51" x2="319.97" y2="121.45"/><line class="cls-7" x1="319.97" y1="127.09" x2="319.97" y2="357.43"/><line class="cls-1" x1="319.97" y1="360.25" x2="319.97" y2="361.18"/><line class="cls-1" x1="313.46" y1="120.51" x2="313.46" y2="121.45"/><line class="cls-7" x1="313.46" y1="127.09" x2="313.46" y2="357.43"/><line class="cls-1" x1="313.46" y1="360.25" x2="313.46" y2="361.18"/><line class="cls-1" x1="306.95" y1="218.7" x2="306.95" y2="219.63"/><line class="cls-8" x1="306.95" y1="225.25" x2="306.95" y2="297.37"/><line class="cls-1" x1="306.95" y1="300.18" x2="306.95" y2="301.11"/><line class="cls-1" x1="300.44" y1="218.7" x2="300.44" y2="219.63"/><line class="cls-8" x1="300.44" y1="225.25" x2="300.44" y2="297.37"/><line class="cls-1" x1="300.44" y1="300.18" x2="300.44" y2="301.11"/><line class="cls-1" x1="293.92" y1="218.7" x2="293.92" y2="219.63"/><line class="cls-8" x1="293.92" y1="225.25" x2="293.92" y2="297.37"/><line class="cls-1" x1="293.92" y1="300.18" x2="293.92" y2="301.11"/><line class="cls-1" x1="287.41" y1="218.7" x2="287.41" y2="219.63"/><line class="cls-8" x1="287.41" y1="225.25" x2="287.41" y2="297.37"/><line class="cls-1" x1="287.41" y1="300.18" x2="287.41" y2="301.11"/><line class="cls-1" x1="280.9" y1="218.7" x2="280.9" y2="219.63"/><line class="cls-8" x1="280.9" y1="225.25" x2="280.9" y2="297.37"/><line class="cls-1" x1="280.9" y1="300.18" x2="280.9" y2="301.11"/><line class="cls-1" x1="274.39" y1="218.7" x2="274.39" y2="219.63"/><line class="cls-8" x1="274.39" y1="225.25" x2="274.39" y2="297.37"/><line class="cls-1" x1="274.39" y1="300.18" x2="274.39" y2="301.11"/><line class="cls-1" x1="267.88" y1="218.7" x2="267.88" y2="219.63"/><line class="cls-8" x1="267.88" y1="225.25" x2="267.88" y2="297.37"/><line class="cls-1" x1="267.88" y1="300.18" x2="267.88" y2="301.11"/><line class="cls-1" x1="261.37" y1="218.7" x2="261.37" y2="219.63"/><line class="cls-8" x1="261.37" y1="225.25" x2="261.37" y2="297.37"/><line class="cls-1" x1="261.37" y1="300.18" x2="261.37" y2="301.11"/><line class="cls-1" x1="254.86" y1="218.7" x2="254.86" y2="219.63"/><line class="cls-8" x1="254.86" y1="225.25" x2="254.86" y2="297.37"/><line class="cls-1" x1="254.86" y1="300.18" x2="254.86" y2="301.11"/><line class="cls-1" x1="248.35" y1="218.7" x2="248.35" y2="219.63"/><line class="cls-8" x1="248.35" y1="225.25" x2="248.35" y2="297.37"/><line class="cls-1" x1="248.35" y1="300.18" x2="248.35" y2="301.11"/><line class="cls-1" x1="241.84" y1="218.7" x2="241.84" y2="219.63"/><line class="cls-8" x1="241.84" y1="225.25" x2="241.84" y2="297.37"/><line class="cls-1" x1="241.84" y1="300.18" x2="241.84" y2="301.11"/><line class="cls-1" x1="235.33" y1="218.7" x2="235.33" y2="219.63"/><line class="cls-8" x1="235.33" y1="225.25" x2="235.33" y2="297.37"/><line class="cls-1" x1="235.33" y1="300.18" x2="235.33" y2="301.11"/><line class="cls-1" x1="228.81" y1="218.7" x2="228.81" y2="219.63"/><line class="cls-9" x1="228.81" y1="225.26" x2="228.81" y2="357.43"/><line class="cls-1" x1="228.81" y1="360.25" x2="228.81" y2="361.18"/><line class="cls-1" x1="222.3" y1="218.7" x2="222.3" y2="219.63"/><line class="cls-9" x1="222.3" y1="225.26" x2="222.3" y2="357.43"/><line class="cls-1" x1="222.3" y1="360.25" x2="222.3" y2="361.18"/><line class="cls-1" x1="215.79" y1="218.7" x2="215.79" y2="219.63"/><line class="cls-9" x1="215.79" y1="225.26" x2="215.79" y2="357.43"/><line class="cls-1" x1="215.79" y1="360.25" x2="215.79" y2="361.18"/><line class="cls-1" x1="209.28" y1="218.7" x2="209.28" y2="219.63"/><line class="cls-9" x1="209.28" y1="225.26" x2="209.28" y2="357.43"/><line class="cls-1" x1="209.28" y1="360.25" x2="209.28" y2="361.18"/><line class="cls-1" x1="202.77" y1="218.7" x2="202.77" y2="219.63"/><line class="cls-9" x1="202.77" y1="225.26" x2="202.77" y2="357.43"/><line class="cls-1" x1="202.77" y1="360.25" x2="202.77" y2="361.18"/><line class="cls-1" x1="196.26" y1="218.7" x2="196.26" y2="219.63"/><line class="cls-9" x1="196.26" y1="225.26" x2="196.26" y2="357.43"/><line class="cls-1" x1="196.26" y1="360.25" x2="196.26" y2="361.18"/><line class="cls-1" x1="189.75" y1="218.7" x2="189.75" y2="219.63"/><line class="cls-9" x1="189.75" y1="225.26" x2="189.75" y2="357.43"/><line class="cls-1" x1="189.75" y1="360.25" x2="189.75" y2="361.18"/><line class="cls-1" x1="183.24" y1="218.7" x2="183.24" y2="219.63"/><line class="cls-9" x1="183.24" y1="225.26" x2="183.24" y2="357.43"/><line class="cls-1" x1="183.24" y1="360.25" x2="183.24" y2="361.18"/><line class="cls-1" x1="176.73" y1="218.7" x2="176.73" y2="219.63"/><line class="cls-9" x1="176.73" y1="225.26" x2="176.73" y2="357.43"/><line class="cls-1" x1="176.73" y1="360.25" x2="176.73" y2="361.18"/><line class="cls-1" x1="170.22" y1="218.7" x2="170.22" y2="219.63"/><line class="cls-9" x1="170.22" y1="225.26" x2="170.22" y2="357.43"/><line class="cls-1" x1="170.22" y1="360.25" x2="170.22" y2="361.18"/><line class="cls-1" x1="163.71" y1="218.7" x2="163.71" y2="219.63"/><line class="cls-9" x1="163.71" y1="225.26" x2="163.71" y2="357.43"/><line class="cls-1" x1="163.71" y1="360.25" x2="163.71" y2="361.18"/><line class="cls-1" x1="157.19" y1="218.7" x2="157.19" y2="219.63"/><line class="cls-9" x1="157.19" y1="225.26" x2="157.19" y2="357.43"/><line class="cls-1" x1="157.19" y1="360.25" x2="157.19" y2="361.18"/><line class="cls-1" x1="150.68" y1="90.48" x2="150.68" y2="91.41"/><line class="cls-10" x1="150.68" y1="97.05" x2="150.68" y2="357.43"/><line class="cls-1" x1="150.68" y1="360.25" x2="150.68" y2="361.18"/><line class="cls-1" x1="144.17" y1="90.48" x2="144.17" y2="91.41"/><line class="cls-10" x1="144.17" y1="97.05" x2="144.17" y2="357.43"/><line class="cls-1" x1="144.17" y1="360.25" x2="144.17" y2="361.18"/><line class="cls-1" x1="137.66" y1="90.48" x2="137.66" y2="91.41"/><line class="cls-10" x1="137.66" y1="97.05" x2="137.66" y2="357.43"/><line class="cls-1" x1="137.66" y1="360.25" x2="137.66" y2="361.18"/><line class="cls-1" x1="131.15" y1="90.48" x2="131.15" y2="91.41"/><line class="cls-10" x1="131.15" y1="97.05" x2="131.15" y2="357.43"/><line class="cls-1" x1="131.15" y1="360.25" x2="131.15" y2="361.18"/><line class="cls-1" x1="124.64" y1="90.48" x2="124.64" y2="91.41"/><line class="cls-10" x1="124.64" y1="97.05" x2="124.64" y2="357.43"/><line class="cls-1" x1="124.64" y1="360.25" x2="124.64" y2="361.18"/><line class="cls-1" x1="118.13" y1="90.48" x2="118.13" y2="91.41"/><line class="cls-10" x1="118.13" y1="97.05" x2="118.13" y2="357.43"/><line class="cls-1" x1="118.13" y1="360.25" x2="118.13" y2="361.18"/><line class="cls-1" x1="111.62" y1="90.48" x2="111.62" y2="91.41"/><line class="cls-10" x1="111.62" y1="97.05" x2="111.62" y2="357.43"/><line class="cls-1" x1="111.62" y1="360.25" x2="111.62" y2="361.18"/><line class="cls-1" x1="105.11" y1="90.48" x2="105.11" y2="91.41"/><line class="cls-10" x1="105.11" y1="97.05" x2="105.11" y2="357.43"/><line class="cls-1" x1="105.11" y1="360.25" x2="105.11" y2="361.18"/><line class="cls-1" x1="98.6" y1="90.48" x2="98.6" y2="91.41"/><line class="cls-10" x1="98.6" y1="97.05" x2="98.6" y2="357.43"/><line class="cls-1" x1="98.6" y1="360.25" x2="98.6" y2="361.18"/><line class="cls-1" x1="92.08" y1="90.48" x2="92.08" y2="91.41"/><line class="cls-11" x1="92.08" y1="97.07" x2="92.08" y2="214.94"/><line class="cls-1" x1="92.08" y1="217.77" x2="92.08" y2="218.7"/><line class="cls-1" x1="85.57" y1="90.48" x2="85.57" y2="91.41"/><line class="cls-11" x1="85.57" y1="97.07" x2="85.57" y2="214.94"/><line class="cls-1" x1="85.57" y1="217.77" x2="85.57" y2="218.7"/><line class="cls-1" x1="79.06" y1="90.48" x2="79.06" y2="91.41"/><line class="cls-11" x1="79.06" y1="97.07" x2="79.06" y2="214.94"/><line class="cls-1" x1="79.06" y1="217.77" x2="79.06" y2="218.7"/><line class="cls-1" x1="72.55" y1="90.48" x2="72.55" y2="91.41"/><line class="cls-11" x1="72.55" y1="97.07" x2="72.55" y2="214.94"/><line class="cls-1" x1="72.55" y1="217.77" x2="72.55" y2="218.7"/><line class="cls-1" x1="66.04" y1="90.48" x2="66.04" y2="91.41"/><line class="cls-11" x1="66.04" y1="97.07" x2="66.04" y2="214.94"/><line class="cls-1" x1="66.04" y1="217.77" x2="66.04" y2="218.7"/><line class="cls-1" x1="59.53" y1="90.48" x2="59.53" y2="91.41"/><line class="cls-11" x1="59.53" y1="97.07" x2="59.53" y2="214.94"/><line class="cls-1" x1="59.53" y1="217.77" x2="59.53" y2="218.7"/><line class="cls-1" x1="53.02" y1="90.48" x2="53.02" y2="91.41"/><line class="cls-11" x1="53.02" y1="97.07" x2="53.02" y2="214.94"/><line class="cls-1" x1="53.02" y1="217.77" x2="53.02" y2="218.7"/><line class="cls-1" x1="46.51" y1="90.48" x2="46.51" y2="91.41"/><line class="cls-11" x1="46.51" y1="97.07" x2="46.51" y2="214.94"/><line class="cls-1" x1="46.51" y1="217.77" x2="46.51" y2="218.7"/><line class="cls-1" x1="40" y1="90.48" x2="40" y2="91.41"/><line class="cls-11" x1="40" y1="97.07" x2="40" y2="214.94"/><line class="cls-1" x1="40" y1="217.77" x2="40" y2="218.7"/><line class="cls-1" x1="33.49" y1="90.48" x2="33.49" y2="91.41"/><line class="cls-11" x1="33.49" y1="97.07" x2="33.49" y2="214.94"/><line class="cls-1" x1="33.49" y1="217.77" x2="33.49" y2="218.7"/><line class="cls-1" x1="26.98" y1="90.48" x2="26.98" y2="91.41"/><line class="cls-11" x1="26.98" y1="97.07" x2="26.98" y2="214.94"/><line class="cls-1" x1="26.98" y1="217.77" x2="26.98" y2="218.7"/><line class="cls-1" x1="20.46" y1="90.48" x2="20.46" y2="91.41"/><line class="cls-11" x1="20.46" y1="97.07" x2="20.46" y2="214.94"/><line class="cls-1" x1="20.46" y1="217.77" x2="20.46" y2="218.7"/><line class="cls-1" x1="13.95" y1="90.48" x2="13.95" y2="91.41"/><line class="cls-11" x1="13.95" y1="97.07" x2="13.95" y2="214.94"/><line class="cls-1" x1="13.95" y1="217.77" x2="13.95" y2="218.7"/><line class="cls-1" x1="7.44" y1="90.48" x2="7.44" y2="91.41"/><line class="cls-11" x1="7.44" y1="97.07" x2="7.44" y2="214.94"/><line class="cls-1" x1="7.44" y1="217.77" x2="7.44" y2="218.7"/><line class="cls-1" x1="0.93" y1="90.48" x2="0.93" y2="91.41"/><line class="cls-11" x1="0.93" y1="97.07" x2="0.93" y2="214.94"/><line class="cls-1" x1="0.93" y1="217.77" x2="0.93" y2="218.7"/></g></g></svg>