<svg xmlns="http://www.w3.org/2000/svg" viewBox="0 0 528.06 373.1"><defs><style>.cls-1,.cls-2{fill:#7acdd6;}.cls-1{fill-rule:evenodd;}</style></defs><title>Ativo 14</title><g id="Camada_2" data-name="Camada 2"><g id="Layer_1" data-name="Layer 1"><path class="cls-1" d="M528.06,84.83h0v27.3h0a9.67,9.67,0,0,1-2.79,6.82,9.38,9.38,0,0,1-6.72,2.83H491.68A9.36,9.36,0,0,1,485,119a9.75,9.75,0,0,1,0-13.64,9.36,9.36,0,0,1,6.72-2.83H495a37.23,37.23,0,0,0-50.38,2.83h0a9.42,9.42,0,0,1-13.44,0,9.77,9.77,0,0,1,0-13.66h0a55.95,55.95,0,0,1,77.85-2.33V84.83h0A9.7,9.7,0,0,1,511.83,78a9.4,9.4,0,0,1,13.44,0A9.67,9.67,0,0,1,528.06,84.83Zm-70,75.07a9.43,9.43,0,0,1-6.72,2.83H448a37.23,37.23,0,0,0,50.38-2.83h0a9.4,9.4,0,0,1,13.44,0,9.76,9.76,0,0,1,0,13.65h0A55.92,55.92,0,0,1,434,175.88v4.5h0a9.66,9.66,0,0,1-2.78,6.82,9.4,9.4,0,0,1-13.44,0,9.7,9.7,0,0,1-2.78-6.82h0v-27.3h0a9.74,9.74,0,0,1,2.78-6.83,9.42,9.42,0,0,1,6.72-2.82h26.88a9.42,9.42,0,0,1,6.72,2.82A9.76,9.76,0,0,1,458.08,159.9Z"/><path class="cls-1" d="M399.74,327.39c0,25.24-20.15,45.71-45,45.71a44,44,0,0,1-31.69-13.53l-.13.14-30-30.47.13-.14a45.37,45.37,0,0,1-13.31-32.18c0-25.24,20.14-45.71,45-45.71a44,44,0,0,1,31.68,13.53l.14-.14,30,30.47-.14.13A45.42,45.42,0,0,1,399.74,327.39ZM376,305.84l-30-30.47h0a29.69,29.69,0,0,0-21.21-8.92,30.24,30.24,0,0,0-30,30.47,30.59,30.59,0,0,0,8.78,21.54h0l30,30.48h0a29.7,29.7,0,0,0,21.22,8.92,30.24,30.24,0,0,0,30-30.47A30.64,30.64,0,0,0,376,305.84Zm-43.71-8.92a7.56,7.56,0,0,1-7.5,7.62,7.48,7.48,0,0,1-5.31-2.23h0l-7.5-7.62h0a7.68,7.68,0,0,1-2.19-5.39,7.55,7.55,0,0,1,7.5-7.62,7.45,7.45,0,0,1,5.3,2.23h0l7.5,7.62h0A7.64,7.64,0,0,1,332.24,296.92Z"/><path class="cls-2" d="M198,232.17H160.05V214.86a9.38,9.38,0,1,0-18.75,0v17.31H103.36a9.52,9.52,0,0,0,0,19H198a9.52,9.52,0,0,0,0-19Z"/><path class="cls-2" d="M281.5,0H18.75A18.9,18.9,0,0,0,0,19V173.75a18.89,18.89,0,0,0,18.75,19H281.5a18.9,18.9,0,0,0,18.76-19V19A18.91,18.91,0,0,0,281.5,0ZM18.75,173.75V160H199.14a6.35,6.35,0,0,0,0-12.69H18.75V19H281.5V147.32H237.2a6.35,6.35,0,0,0,0,12.69h44.3v13.74Z"/></g></g></svg>