<svg xmlns="http://www.w3.org/2000/svg" viewBox="0 0 457.77 285.57"><defs><style>.cls-1{opacity:0.4;}.cls-2{fill:none;stroke:#454e5b;stroke-miterlimit:10;stroke-width:0.97px;}.cls-3{fill:#454e5b;}</style></defs><title>Ativo 15</title><g id="Camada_2" data-name="Camada 2"><g id="Layer_1" data-name="Layer 1"><g class="cls-1"><line class="cls-2" x1="111.77" y1="100.59" x2="44.63" y2="165.18"/><line class="cls-2" x1="45.07" y1="166.45" x2="137.18" y2="174.78"/><ellipse class="cls-3" cx="44.75" cy="165.06" rx="6.97" ry="7.08"/><ellipse class="cls-3" cx="6.97" cy="7.08" rx="6.97" ry="7.08"/><ellipse class="cls-3" cx="136.77" cy="174.74" rx="6.97" ry="7.08"/><ellipse class="cls-3" cx="61.83" cy="236.51" rx="6.97" ry="7.08"/><line class="cls-2" x1="4.76" y1="5.61" x2="113.22" y2="99.2"/><line class="cls-2" x1="44.75" y1="165.06" x2="61.83" y2="236.51"/><ellipse class="cls-3" cx="113.22" cy="99.2" rx="6.97" ry="7.08"/><line class="cls-2" x1="252.33" y1="72.15" x2="261.09" y2="165.65"/><line class="cls-2" x1="262.35" y1="166.09" x2="325.53" y2="97.5"/><ellipse class="cls-3" cx="261.08" cy="165.49" rx="6.97" ry="7.08"/><ellipse class="cls-3" cx="325.25" cy="97.81" rx="6.97" ry="7.08"/><ellipse class="cls-3" cx="327.02" cy="195.81" rx="6.97" ry="7.08"/><line class="cls-2" x1="112.76" y1="99.31" x2="252.14" y2="70.14"/><line class="cls-2" x1="261.08" y1="165.49" x2="327.02" y2="195.81"/><ellipse class="cls-3" cx="252.14" cy="70.14" rx="6.97" ry="7.08"/><line class="cls-2" x1="265.8" y1="228" x2="168.4" y2="155.95"/><line class="cls-2" x1="168.84" y1="157.23" x2="260.95" y2="165.56"/><ellipse class="cls-3" cx="168.52" cy="155.84" rx="6.97" ry="7.08"/><ellipse class="cls-3" cx="320.97" cy="278.48" rx="6.97" ry="7.08"/><ellipse class="cls-3" cx="260.54" cy="165.52" rx="6.97" ry="7.08"/><ellipse class="cls-3" cx="185.6" cy="227.29" rx="6.97" ry="7.08"/><line class="cls-2" x1="320.97" y1="278.48" x2="267.24" y2="226.61"/><line class="cls-2" x1="168.52" y1="155.84" x2="185.6" y2="227.29"/><ellipse class="cls-3" cx="267.24" cy="226.61" rx="6.97" ry="7.08"/><line class="cls-2" x1="376.1" y1="62.92" x2="384.86" y2="156.43"/><line class="cls-2" x1="386.12" y1="156.87" x2="449.3" y2="88.27"/><ellipse class="cls-3" cx="384.85" cy="156.26" rx="6.97" ry="7.08"/><ellipse class="cls-3" cx="449.02" cy="88.58" rx="6.97" ry="7.08"/><ellipse class="cls-3" cx="450.79" cy="186.58" rx="6.97" ry="7.08"/><line class="cls-2" x1="266.78" y1="226.72" x2="375.91" y2="60.91"/><line class="cls-2" x1="384.85" y1="156.26" x2="450.79" y2="186.58"/><ellipse class="cls-3" cx="375.91" cy="60.91" rx="6.97" ry="7.08"/></g></g></g></svg>