<svg xmlns="http://www.w3.org/2000/svg" viewBox="0 0 735.97 85.69"><defs><style>.cls-1,.cls-2{fill:none;stroke:#81e2e4;stroke-miterlimit:10;stroke-width:1.97px;}.cls-2{stroke-dasharray:1.95 5.84;}</style></defs><title>Ativo 21</title><g id="Camada_2" data-name="Camada 2"><g id="Layer_1" data-name="Layer 1"><line class="cls-1" x1="734.98" x2="734.98" y2="0.98"/><line class="cls-2" x1="734.98" y1="6.82" x2="734.98" y2="81.79"/><line class="cls-1" x1="734.98" y1="84.71" x2="734.98" y2="85.69"/><line class="cls-1" x1="728.06" x2="728.06" y2="0.98"/><line class="cls-2" x1="728.06" y1="6.82" x2="728.06" y2="81.79"/><line class="cls-1" x1="728.06" y1="84.71" x2="728.06" y2="85.69"/><line class="cls-1" x1="721.13" x2="721.13" y2="0.98"/><line class="cls-2" x1="721.13" y1="6.82" x2="721.13" y2="81.79"/><line class="cls-1" x1="721.13" y1="84.71" x2="721.13" y2="85.69"/><line class="cls-1" x1="714.21" x2="714.21" y2="0.98"/><line class="cls-2" x1="714.21" y1="6.82" x2="714.21" y2="81.79"/><line class="cls-1" x1="714.21" y1="84.71" x2="714.21" y2="85.69"/><line class="cls-1" x1="707.28" x2="707.28" y2="0.98"/><line class="cls-2" x1="707.28" y1="6.82" x2="707.28" y2="81.79"/><line class="cls-1" x1="707.28" y1="84.71" x2="707.28" y2="85.69"/><line class="cls-1" x1="700.36" x2="700.36" y2="0.98"/><line class="cls-2" x1="700.36" y1="6.82" x2="700.36" y2="81.79"/><line class="cls-1" x1="700.36" y1="84.71" x2="700.36" y2="85.69"/><line class="cls-1" x1="693.44" x2="693.44" y2="0.98"/><line class="cls-2" x1="693.44" y1="6.82" x2="693.44" y2="81.79"/><line class="cls-1" x1="693.44" y1="84.71" x2="693.44" y2="85.69"/><line class="cls-1" x1="686.51" x2="686.51" y2="0.98"/><line class="cls-2" x1="686.51" y1="6.82" x2="686.51" y2="81.79"/><line class="cls-1" x1="686.51" y1="84.71" x2="686.51" y2="85.69"/><line class="cls-1" x1="679.59" x2="679.59" y2="0.98"/><line class="cls-2" x1="679.59" y1="6.82" x2="679.59" y2="81.79"/><line class="cls-1" x1="679.59" y1="84.71" x2="679.59" y2="85.69"/><line class="cls-1" x1="672.66" x2="672.66" y2="0.98"/><line class="cls-2" x1="672.66" y1="6.82" x2="672.66" y2="81.79"/><line class="cls-1" x1="672.66" y1="84.71" x2="672.66" y2="85.69"/><line class="cls-1" x1="665.74" x2="665.74" y2="0.98"/><line class="cls-2" x1="665.74" y1="6.82" x2="665.74" y2="81.79"/><line class="cls-1" x1="665.74" y1="84.71" x2="665.74" y2="85.69"/><line class="cls-1" x1="658.81" x2="658.81" y2="0.98"/><line class="cls-2" x1="658.81" y1="6.82" x2="658.81" y2="81.79"/><line class="cls-1" x1="658.81" y1="84.71" x2="658.81" y2="85.69"/><line class="cls-1" x1="651.89" x2="651.89" y2="0.98"/><line class="cls-2" x1="651.89" y1="6.82" x2="651.89" y2="81.79"/><line class="cls-1" x1="651.89" y1="84.71" x2="651.89" y2="85.69"/><line class="cls-1" x1="644.96" x2="644.96" y2="0.98"/><line class="cls-2" x1="644.96" y1="6.82" x2="644.96" y2="81.79"/><line class="cls-1" x1="644.96" y1="84.71" x2="644.96" y2="85.69"/><line class="cls-1" x1="638.04" x2="638.04" y2="0.98"/><line class="cls-2" x1="638.04" y1="6.82" x2="638.04" y2="81.79"/><line class="cls-1" x1="638.04" y1="84.71" x2="638.04" y2="85.69"/><line class="cls-1" x1="631.11" x2="631.11" y2="0.98"/><line class="cls-2" x1="631.11" y1="6.82" x2="631.11" y2="81.79"/><line class="cls-1" x1="631.11" y1="84.71" x2="631.11" y2="85.69"/><line class="cls-1" x1="624.19" x2="624.19" y2="0.98"/><line class="cls-2" x1="624.19" y1="6.82" x2="624.19" y2="81.79"/><line class="cls-1" x1="624.19" y1="84.71" x2="624.19" y2="85.69"/><line class="cls-1" x1="617.27" x2="617.27" y2="0.98"/><line class="cls-2" x1="617.27" y1="6.82" x2="617.27" y2="81.79"/><line class="cls-1" x1="617.27" y1="84.71" x2="617.27" y2="85.69"/><line class="cls-1" x1="610.34" x2="610.34" y2="0.98"/><line class="cls-2" x1="610.34" y1="6.82" x2="610.34" y2="81.79"/><line class="cls-1" x1="610.34" y1="84.71" x2="610.34" y2="85.69"/><line class="cls-1" x1="603.42" x2="603.42" y2="0.98"/><line class="cls-2" x1="603.42" y1="6.82" x2="603.42" y2="81.79"/><line class="cls-1" x1="603.42" y1="84.71" x2="603.42" y2="85.69"/><line class="cls-1" x1="596.49" x2="596.49" y2="0.98"/><line class="cls-2" x1="596.49" y1="6.82" x2="596.49" y2="81.79"/><line class="cls-1" x1="596.49" y1="84.71" x2="596.49" y2="85.69"/><line class="cls-1" x1="589.57" x2="589.57" y2="0.98"/><line class="cls-2" x1="589.57" y1="6.82" x2="589.57" y2="81.79"/><line class="cls-1" x1="589.57" y1="84.71" x2="589.57" y2="85.69"/><line class="cls-1" x1="582.64" x2="582.64" y2="0.98"/><line class="cls-2" x1="582.64" y1="6.82" x2="582.64" y2="81.79"/><line class="cls-1" x1="582.64" y1="84.71" x2="582.64" y2="85.69"/><line class="cls-1" x1="575.72" x2="575.72" y2="0.98"/><line class="cls-2" x1="575.72" y1="6.82" x2="575.72" y2="81.79"/><line class="cls-1" x1="575.72" y1="84.71" x2="575.72" y2="85.69"/><line class="cls-1" x1="568.79" x2="568.79" y2="0.98"/><line class="cls-2" x1="568.79" y1="6.82" x2="568.79" y2="81.79"/><line class="cls-1" x1="568.79" y1="84.71" x2="568.79" y2="85.69"/><line class="cls-1" x1="561.87" x2="561.87" y2="0.98"/><line class="cls-2" x1="561.87" y1="6.82" x2="561.87" y2="81.79"/><line class="cls-1" x1="561.87" y1="84.71" x2="561.87" y2="85.69"/><line class="cls-1" x1="554.95" x2="554.95" y2="0.98"/><line class="cls-2" x1="554.95" y1="6.82" x2="554.95" y2="81.79"/><line class="cls-1" x1="554.95" y1="84.71" x2="554.95" y2="85.69"/><line class="cls-1" x1="548.02" x2="548.02" y2="0.98"/><line class="cls-2" x1="548.02" y1="6.82" x2="548.02" y2="81.79"/><line class="cls-1" x1="548.02" y1="84.71" x2="548.02" y2="85.69"/><line class="cls-1" x1="541.1" x2="541.1" y2="0.98"/><line class="cls-2" x1="541.1" y1="6.82" x2="541.1" y2="81.79"/><line class="cls-1" x1="541.1" y1="84.71" x2="541.1" y2="85.69"/><line class="cls-1" x1="534.17" x2="534.17" y2="0.98"/><line class="cls-2" x1="534.17" y1="6.82" x2="534.17" y2="81.79"/><line class="cls-1" x1="534.17" y1="84.71" x2="534.17" y2="85.69"/><line class="cls-1" x1="527.25" x2="527.25" y2="0.98"/><line class="cls-2" x1="527.25" y1="6.82" x2="527.25" y2="81.79"/><line class="cls-1" x1="527.25" y1="84.71" x2="527.25" y2="85.69"/><line class="cls-1" x1="520.32" x2="520.32" y2="0.98"/><line class="cls-2" x1="520.32" y1="6.82" x2="520.32" y2="81.79"/><line class="cls-1" x1="520.32" y1="84.71" x2="520.32" y2="85.69"/><line class="cls-1" x1="513.4" x2="513.4" y2="0.98"/><line class="cls-2" x1="513.4" y1="6.82" x2="513.4" y2="81.79"/><line class="cls-1" x1="513.4" y1="84.71" x2="513.4" y2="85.69"/><line class="cls-1" x1="506.47" x2="506.47" y2="0.98"/><line class="cls-2" x1="506.47" y1="6.82" x2="506.47" y2="81.79"/><line class="cls-1" x1="506.47" y1="84.71" x2="506.47" y2="85.69"/><line class="cls-1" x1="499.55" x2="499.55" y2="0.98"/><line class="cls-2" x1="499.55" y1="6.82" x2="499.55" y2="81.79"/><line class="cls-1" x1="499.55" y1="84.71" x2="499.55" y2="85.69"/><line class="cls-1" x1="492.62" x2="492.62" y2="0.98"/><line class="cls-2" x1="492.62" y1="6.82" x2="492.62" y2="81.79"/><line class="cls-1" x1="492.62" y1="84.71" x2="492.62" y2="85.69"/><line class="cls-1" x1="485.7" x2="485.7" y2="0.98"/><line class="cls-2" x1="485.7" y1="6.82" x2="485.7" y2="81.79"/><line class="cls-1" x1="485.7" y1="84.71" x2="485.7" y2="85.69"/><line class="cls-1" x1="478.78" x2="478.78" y2="0.98"/><line class="cls-2" x1="478.78" y1="6.82" x2="478.78" y2="81.79"/><line class="cls-1" x1="478.78" y1="84.71" x2="478.78" y2="85.69"/><line class="cls-1" x1="471.85" x2="471.85" y2="0.98"/><line class="cls-2" x1="471.85" y1="6.82" x2="471.85" y2="81.79"/><line class="cls-1" x1="471.85" y1="84.71" x2="471.85" y2="85.69"/><line class="cls-1" x1="464.93" x2="464.93" y2="0.98"/><line class="cls-2" x1="464.93" y1="6.82" x2="464.93" y2="81.79"/><line class="cls-1" x1="464.93" y1="84.71" x2="464.93" y2="85.69"/><line class="cls-1" x1="458" x2="458" y2="0.98"/><line class="cls-2" x1="458" y1="6.82" x2="458" y2="81.79"/><line class="cls-1" x1="458" y1="84.71" x2="458" y2="85.69"/><line class="cls-1" x1="451.08" x2="451.08" y2="0.98"/><line class="cls-2" x1="451.08" y1="6.82" x2="451.08" y2="81.79"/><line class="cls-1" x1="451.08" y1="84.71" x2="451.08" y2="85.69"/><line class="cls-1" x1="444.15" x2="444.15" y2="0.98"/><line class="cls-2" x1="444.15" y1="6.82" x2="444.15" y2="81.79"/><line class="cls-1" x1="444.15" y1="84.71" x2="444.15" y2="85.69"/><line class="cls-1" x1="437.23" x2="437.23" y2="0.98"/><line class="cls-2" x1="437.23" y1="6.82" x2="437.23" y2="81.79"/><line class="cls-1" x1="437.23" y1="84.71" x2="437.23" y2="85.69"/><line class="cls-1" x1="430.3" x2="430.3" y2="0.98"/><line class="cls-2" x1="430.3" y1="6.82" x2="430.3" y2="81.79"/><line class="cls-1" x1="430.3" y1="84.71" x2="430.3" y2="85.69"/><line class="cls-1" x1="423.38" x2="423.38" y2="0.98"/><line class="cls-2" x1="423.38" y1="6.82" x2="423.38" y2="81.79"/><line class="cls-1" x1="423.38" y1="84.71" x2="423.38" y2="85.69"/><line class="cls-1" x1="416.45" x2="416.45" y2="0.98"/><line class="cls-2" x1="416.45" y1="6.82" x2="416.45" y2="81.79"/><line class="cls-1" x1="416.45" y1="84.71" x2="416.45" y2="85.69"/><line class="cls-1" x1="409.53" x2="409.53" y2="0.98"/><line class="cls-2" x1="409.53" y1="6.82" x2="409.53" y2="81.79"/><line class="cls-1" x1="409.53" y1="84.71" x2="409.53" y2="85.69"/><line class="cls-1" x1="402.61" x2="402.61" y2="0.98"/><line class="cls-2" x1="402.61" y1="6.82" x2="402.61" y2="81.79"/><line class="cls-1" x1="402.61" y1="84.71" x2="402.61" y2="85.69"/><line class="cls-1" x1="395.68" x2="395.68" y2="0.98"/><line class="cls-2" x1="395.68" y1="6.82" x2="395.68" y2="81.79"/><line class="cls-1" x1="395.68" y1="84.71" x2="395.68" y2="85.69"/><line class="cls-1" x1="388.76" x2="388.76" y2="0.98"/><line class="cls-2" x1="388.76" y1="6.82" x2="388.76" y2="81.79"/><line class="cls-1" x1="388.76" y1="84.71" x2="388.76" y2="85.69"/><line class="cls-1" x1="381.83" x2="381.83" y2="0.98"/><line class="cls-2" x1="381.83" y1="6.82" x2="381.83" y2="81.79"/><line class="cls-1" x1="381.83" y1="84.71" x2="381.83" y2="85.69"/><line class="cls-1" x1="374.91" x2="374.91" y2="0.98"/><line class="cls-2" x1="374.91" y1="6.82" x2="374.91" y2="81.79"/><line class="cls-1" x1="374.91" y1="84.71" x2="374.91" y2="85.69"/><line class="cls-1" x1="367.98" x2="367.98" y2="0.98"/><line class="cls-2" x1="367.98" y1="6.82" x2="367.98" y2="81.79"/><line class="cls-1" x1="367.98" y1="84.71" x2="367.98" y2="85.69"/><line class="cls-1" x1="361.06" x2="361.06" y2="0.98"/><line class="cls-2" x1="361.06" y1="6.82" x2="361.06" y2="81.79"/><line class="cls-1" x1="361.06" y1="84.71" x2="361.06" y2="85.69"/><line class="cls-1" x1="354.13" x2="354.13" y2="0.98"/><line class="cls-2" x1="354.13" y1="6.82" x2="354.13" y2="81.79"/><line class="cls-1" x1="354.13" y1="84.71" x2="354.13" y2="85.69"/><line class="cls-1" x1="347.21" x2="347.21" y2="0.98"/><line class="cls-2" x1="347.21" y1="6.82" x2="347.21" y2="81.79"/><line class="cls-1" x1="347.21" y1="84.71" x2="347.21" y2="85.69"/><line class="cls-1" x1="340.28" x2="340.28" y2="0.98"/><line class="cls-2" x1="340.28" y1="6.82" x2="340.28" y2="81.79"/><line class="cls-1" x1="340.28" y1="84.71" x2="340.28" y2="85.69"/><line class="cls-1" x1="333.36" x2="333.36" y2="0.98"/><line class="cls-2" x1="333.36" y1="6.82" x2="333.36" y2="81.79"/><line class="cls-1" x1="333.36" y1="84.71" x2="333.36" y2="85.69"/><line class="cls-1" x1="326.44" x2="326.44" y2="0.98"/><line class="cls-2" x1="326.44" y1="6.82" x2="326.44" y2="81.79"/><line class="cls-1" x1="326.44" y1="84.71" x2="326.44" y2="85.69"/><line class="cls-1" x1="319.51" x2="319.51" y2="0.98"/><line class="cls-2" x1="319.51" y1="6.82" x2="319.51" y2="81.79"/><line class="cls-1" x1="319.51" y1="84.71" x2="319.51" y2="85.69"/><line class="cls-1" x1="312.59" x2="312.59" y2="0.98"/><line class="cls-2" x1="312.59" y1="6.82" x2="312.59" y2="81.79"/><line class="cls-1" x1="312.59" y1="84.71" x2="312.59" y2="85.69"/><line class="cls-1" x1="305.66" x2="305.66" y2="0.98"/><line class="cls-2" x1="305.66" y1="6.82" x2="305.66" y2="81.79"/><line class="cls-1" x1="305.66" y1="84.71" x2="305.66" y2="85.69"/><line class="cls-1" x1="298.74" x2="298.74" y2="0.98"/><line class="cls-2" x1="298.74" y1="6.82" x2="298.74" y2="81.79"/><line class="cls-1" x1="298.74" y1="84.71" x2="298.74" y2="85.69"/><line class="cls-1" x1="291.81" x2="291.81" y2="0.98"/><line class="cls-2" x1="291.81" y1="6.82" x2="291.81" y2="81.79"/><line class="cls-1" x1="291.81" y1="84.71" x2="291.81" y2="85.69"/><line class="cls-1" x1="284.89" x2="284.89" y2="0.98"/><line class="cls-2" x1="284.89" y1="6.82" x2="284.89" y2="81.79"/><line class="cls-1" x1="284.89" y1="84.71" x2="284.89" y2="85.69"/><line class="cls-1" x1="277.96" x2="277.96" y2="0.98"/><line class="cls-2" x1="277.96" y1="6.82" x2="277.96" y2="81.79"/><line class="cls-1" x1="277.96" y1="84.71" x2="277.96" y2="85.69"/><line class="cls-1" x1="271.04" x2="271.04" y2="0.98"/><line class="cls-2" x1="271.04" y1="6.82" x2="271.04" y2="81.79"/><line class="cls-1" x1="271.04" y1="84.71" x2="271.04" y2="85.69"/><line class="cls-1" x1="264.11" x2="264.11" y2="0.98"/><line class="cls-2" x1="264.11" y1="6.82" x2="264.11" y2="81.79"/><line class="cls-1" x1="264.11" y1="84.71" x2="264.11" y2="85.69"/><line class="cls-1" x1="257.19" x2="257.19" y2="0.98"/><line class="cls-2" x1="257.19" y1="6.82" x2="257.19" y2="81.79"/><line class="cls-1" x1="257.19" y1="84.71" x2="257.19" y2="85.69"/><line class="cls-1" x1="250.27" x2="250.27" y2="0.98"/><line class="cls-2" x1="250.27" y1="6.82" x2="250.27" y2="81.79"/><line class="cls-1" x1="250.27" y1="84.71" x2="250.27" y2="85.69"/><line class="cls-1" x1="243.34" x2="243.34" y2="0.98"/><line class="cls-2" x1="243.34" y1="6.82" x2="243.34" y2="81.79"/><line class="cls-1" x1="243.34" y1="84.71" x2="243.34" y2="85.69"/><line class="cls-1" x1="236.42" x2="236.42" y2="0.98"/><line class="cls-2" x1="236.42" y1="6.82" x2="236.42" y2="81.79"/><line class="cls-1" x1="236.42" y1="84.71" x2="236.42" y2="85.69"/><line class="cls-1" x1="229.49" x2="229.49" y2="0.98"/><line class="cls-2" x1="229.49" y1="6.82" x2="229.49" y2="81.79"/><line class="cls-1" x1="229.49" y1="84.71" x2="229.49" y2="85.69"/><line class="cls-1" x1="222.57" x2="222.57" y2="0.98"/><line class="cls-2" x1="222.57" y1="6.82" x2="222.57" y2="81.79"/><line class="cls-1" x1="222.57" y1="84.71" x2="222.57" y2="85.69"/><line class="cls-1" x1="215.64" x2="215.64" y2="0.98"/><line class="cls-2" x1="215.64" y1="6.82" x2="215.64" y2="81.79"/><line class="cls-1" x1="215.64" y1="84.71" x2="215.64" y2="85.69"/><line class="cls-1" x1="208.72" x2="208.72" y2="0.98"/><line class="cls-2" x1="208.72" y1="6.82" x2="208.72" y2="81.79"/><line class="cls-1" x1="208.72" y1="84.71" x2="208.72" y2="85.69"/><line class="cls-1" x1="201.79" x2="201.79" y2="0.98"/><line class="cls-2" x1="201.79" y1="6.82" x2="201.79" y2="81.79"/><line class="cls-1" x1="201.79" y1="84.71" x2="201.79" y2="85.69"/><line class="cls-1" x1="194.87" x2="194.87" y2="0.98"/><line class="cls-2" x1="194.87" y1="6.82" x2="194.87" y2="81.79"/><line class="cls-1" x1="194.87" y1="84.71" x2="194.87" y2="85.69"/><line class="cls-1" x1="187.95" x2="187.95" y2="0.98"/><line class="cls-2" x1="187.95" y1="6.82" x2="187.95" y2="81.79"/><line class="cls-1" x1="187.95" y1="84.71" x2="187.95" y2="85.69"/><line class="cls-1" x1="181.02" x2="181.02" y2="0.98"/><line class="cls-2" x1="181.02" y1="6.82" x2="181.02" y2="81.79"/><line class="cls-1" x1="181.02" y1="84.71" x2="181.02" y2="85.69"/><line class="cls-1" x1="174.1" x2="174.1" y2="0.98"/><line class="cls-2" x1="174.1" y1="6.82" x2="174.1" y2="81.79"/><line class="cls-1" x1="174.1" y1="84.71" x2="174.1" y2="85.69"/><line class="cls-1" x1="167.17" x2="167.17" y2="0.98"/><line class="cls-2" x1="167.17" y1="6.82" x2="167.17" y2="81.79"/><line class="cls-1" x1="167.17" y1="84.71" x2="167.17" y2="85.69"/><line class="cls-1" x1="160.25" x2="160.25" y2="0.98"/><line class="cls-2" x1="160.25" y1="6.82" x2="160.25" y2="81.79"/><line class="cls-1" x1="160.25" y1="84.71" x2="160.25" y2="85.69"/><line class="cls-1" x1="153.32" x2="153.32" y2="0.98"/><line class="cls-2" x1="153.32" y1="6.82" x2="153.32" y2="81.79"/><line class="cls-1" x1="153.32" y1="84.71" x2="153.32" y2="85.69"/><line class="cls-1" x1="146.4" x2="146.4" y2="0.98"/><line class="cls-2" x1="146.4" y1="6.82" x2="146.4" y2="81.79"/><line class="cls-1" x1="146.4" y1="84.71" x2="146.4" y2="85.69"/><line class="cls-1" x1="139.47" x2="139.47" y2="0.98"/><line class="cls-2" x1="139.47" y1="6.82" x2="139.47" y2="81.79"/><line class="cls-1" x1="139.47" y1="84.71" x2="139.47" y2="85.69"/><line class="cls-1" x1="132.55" x2="132.55" y2="0.98"/><line class="cls-2" x1="132.55" y1="6.82" x2="132.55" y2="81.79"/><line class="cls-1" x1="132.55" y1="84.71" x2="132.55" y2="85.69"/><line class="cls-1" x1="125.62" x2="125.62" y2="0.98"/><line class="cls-2" x1="125.62" y1="6.82" x2="125.62" y2="81.79"/><line class="cls-1" x1="125.62" y1="84.71" x2="125.62" y2="85.69"/><line class="cls-1" x1="118.7" x2="118.7" y2="0.98"/><line class="cls-2" x1="118.7" y1="6.82" x2="118.7" y2="81.79"/><line class="cls-1" x1="118.7" y1="84.71" x2="118.7" y2="85.69"/><line class="cls-1" x1="111.78" x2="111.78" y2="0.98"/><line class="cls-2" x1="111.78" y1="6.82" x2="111.78" y2="81.79"/><line class="cls-1" x1="111.78" y1="84.71" x2="111.78" y2="85.69"/><line class="cls-1" x1="104.85" x2="104.85" y2="0.98"/><line class="cls-2" x1="104.85" y1="6.82" x2="104.85" y2="81.79"/><line class="cls-1" x1="104.85" y1="84.71" x2="104.85" y2="85.69"/><line class="cls-1" x1="97.93" x2="97.93" y2="0.98"/><line class="cls-2" x1="97.93" y1="6.82" x2="97.93" y2="81.79"/><line class="cls-1" x1="97.93" y1="84.71" x2="97.93" y2="85.69"/><line class="cls-1" x1="91" x2="91" y2="0.98"/><line class="cls-2" x1="91" y1="6.82" x2="91" y2="81.79"/><line class="cls-1" x1="91" y1="84.71" x2="91" y2="85.69"/><line class="cls-1" x1="84.08" x2="84.08" y2="0.98"/><line class="cls-2" x1="84.08" y1="6.82" x2="84.08" y2="81.79"/><line class="cls-1" x1="84.08" y1="84.71" x2="84.08" y2="85.69"/><line class="cls-1" x1="77.15" x2="77.15" y2="0.98"/><line class="cls-2" x1="77.15" y1="6.82" x2="77.15" y2="81.79"/><line class="cls-1" x1="77.15" y1="84.71" x2="77.15" y2="85.69"/><line class="cls-1" x1="70.23" x2="70.23" y2="0.98"/><line class="cls-2" x1="70.23" y1="6.82" x2="70.23" y2="81.79"/><line class="cls-1" x1="70.23" y1="84.71" x2="70.23" y2="85.69"/><line class="cls-1" x1="63.3" x2="63.3" y2="0.98"/><line class="cls-2" x1="63.3" y1="6.82" x2="63.3" y2="81.79"/><line class="cls-1" x1="63.3" y1="84.71" x2="63.3" y2="85.69"/><line class="cls-1" x1="56.38" x2="56.38" y2="0.98"/><line class="cls-2" x1="56.38" y1="6.82" x2="56.38" y2="81.79"/><line class="cls-1" x1="56.38" y1="84.71" x2="56.38" y2="85.69"/><line class="cls-1" x1="49.45" x2="49.45" y2="0.98"/><line class="cls-2" x1="49.45" y1="6.82" x2="49.45" y2="81.79"/><line class="cls-1" x1="49.45" y1="84.71" x2="49.45" y2="85.69"/><line class="cls-1" x1="42.53" x2="42.53" y2="0.98"/><line class="cls-2" x1="42.53" y1="6.82" x2="42.53" y2="81.79"/><line class="cls-1" x1="42.53" y1="84.71" x2="42.53" y2="85.69"/><line class="cls-1" x1="35.61" x2="35.61" y2="0.98"/><line class="cls-2" x1="35.61" y1="6.82" x2="35.61" y2="81.79"/><line class="cls-1" x1="35.61" y1="84.71" x2="35.61" y2="85.69"/><line class="cls-1" x1="28.68" x2="28.68" y2="0.98"/><line class="cls-2" x1="28.68" y1="6.82" x2="28.68" y2="81.79"/><line class="cls-1" x1="28.68" y1="84.71" x2="28.68" y2="85.69"/><line class="cls-1" x1="21.76" x2="21.76" y2="0.98"/><line class="cls-2" x1="21.76" y1="6.82" x2="21.76" y2="81.79"/><line class="cls-1" x1="21.76" y1="84.71" x2="21.76" y2="85.69"/><line class="cls-1" x1="14.83" x2="14.83" y2="0.98"/><line class="cls-2" x1="14.83" y1="6.82" x2="14.83" y2="81.79"/><line class="cls-1" x1="14.83" y1="84.71" x2="14.83" y2="85.69"/><line class="cls-1" x1="7.91" x2="7.91" y2="0.98"/><line class="cls-2" x1="7.91" y1="6.82" x2="7.91" y2="81.79"/><line class="cls-1" x1="7.91" y1="84.71" x2="7.91" y2="85.69"/><line class="cls-1" x1="0.98" x2="0.98" y2="0.98"/><line class="cls-2" x1="0.98" y1="6.82" x2="0.98" y2="81.79"/><line class="cls-1" x1="0.98" y1="84.71" x2="0.98" y2="85.69"/></g></g></svg>