<svg xmlns="http://www.w3.org/2000/svg" viewBox="0 0 901.98 398.86"><defs><style>.cls-1,.cls-10,.cls-11,.cls-12,.cls-13,.cls-14,.cls-2,.cls-3,.cls-4,.cls-5,.cls-6,.cls-7,.cls-8,.cls-9{fill:none;stroke:#7acdd6;stroke-miterlimit:10;stroke-width:1.98px;}.cls-2{stroke-dasharray:1.96 5.87;}.cls-3{stroke-dasharray:1.99 5.96;}.cls-4{stroke-dasharray:1.99 5.96;}.cls-5{stroke-dasharray:2 5.99;}.cls-6{stroke-dasharray:2 6.01;}.cls-7{stroke-dasharray:2 6;}.cls-8{stroke-dasharray:2 5.99;}.cls-9{stroke-dasharray:2 5.99;}.cls-10{stroke-dasharray:1.99 5.96;}.cls-11{stroke-dasharray:1.99 5.96;}.cls-12{stroke-dasharray:1.99 5.98;}.cls-13{stroke-dasharray:2 6;}.cls-14{stroke-dasharray:1.99 5.97;}</style></defs><title>Ativo 19</title><g id="Camada_2" data-name="Camada 2"><g id="Layer_1" data-name="Layer 1"><line class="cls-1" x1="0.99" y1="183" x2="0.99" y2="182.01"/><line class="cls-2" x1="0.99" y1="176.14" x2="0.99" y2="85.12"/><line class="cls-1" x1="0.99" y1="82.19" x2="0.99" y2="81.2"/><line class="cls-1" x1="7.97" y1="183" x2="7.97" y2="182.01"/><line class="cls-2" x1="7.97" y1="176.14" x2="7.97" y2="85.12"/><line class="cls-1" x1="7.97" y1="82.19" x2="7.97" y2="81.2"/><line class="cls-1" x1="14.94" y1="183" x2="14.94" y2="182.01"/><line class="cls-2" x1="14.94" y1="176.14" x2="14.94" y2="85.12"/><line class="cls-1" x1="14.94" y1="82.19" x2="14.94" y2="81.2"/><line class="cls-1" x1="21.92" y1="183" x2="21.92" y2="182.01"/><line class="cls-2" x1="21.92" y1="176.14" x2="21.92" y2="85.12"/><line class="cls-1" x1="21.92" y1="82.19" x2="21.92" y2="81.2"/><line class="cls-1" x1="28.9" y1="183" x2="28.9" y2="182.01"/><line class="cls-2" x1="28.9" y1="176.14" x2="28.9" y2="85.12"/><line class="cls-1" x1="28.9" y1="82.19" x2="28.9" y2="81.2"/><line class="cls-1" x1="35.87" y1="183" x2="35.87" y2="182.01"/><line class="cls-2" x1="35.87" y1="176.14" x2="35.87" y2="85.12"/><line class="cls-1" x1="35.87" y1="82.19" x2="35.87" y2="81.2"/><line class="cls-1" x1="42.85" y1="183" x2="42.85" y2="182.01"/><line class="cls-2" x1="42.85" y1="176.14" x2="42.85" y2="85.12"/><line class="cls-1" x1="42.85" y1="82.19" x2="42.85" y2="81.2"/><line class="cls-1" x1="49.83" y1="183" x2="49.83" y2="182.01"/><line class="cls-2" x1="49.83" y1="176.14" x2="49.83" y2="85.12"/><line class="cls-1" x1="49.83" y1="82.19" x2="49.83" y2="81.2"/><line class="cls-1" x1="56.8" y1="183" x2="56.8" y2="182.01"/><line class="cls-2" x1="56.8" y1="176.14" x2="56.8" y2="85.12"/><line class="cls-1" x1="56.8" y1="82.19" x2="56.8" y2="81.2"/><line class="cls-1" x1="63.78" y1="183" x2="63.78" y2="182.01"/><line class="cls-2" x1="63.78" y1="176.14" x2="63.78" y2="85.12"/><line class="cls-1" x1="63.78" y1="82.19" x2="63.78" y2="81.2"/><line class="cls-1" x1="70.76" y1="183" x2="70.76" y2="182.01"/><line class="cls-2" x1="70.76" y1="176.14" x2="70.76" y2="85.12"/><line class="cls-1" x1="70.76" y1="82.19" x2="70.76" y2="81.2"/><line class="cls-1" x1="77.73" y1="183" x2="77.73" y2="182.01"/><line class="cls-2" x1="77.73" y1="176.14" x2="77.73" y2="85.12"/><line class="cls-1" x1="77.73" y1="82.19" x2="77.73" y2="81.2"/><line class="cls-1" x1="84.71" y1="183" x2="84.71" y2="182.01"/><line class="cls-2" x1="84.71" y1="176.14" x2="84.71" y2="85.12"/><line class="cls-1" x1="84.71" y1="82.19" x2="84.71" y2="81.2"/><line class="cls-1" x1="91.69" y1="183" x2="91.69" y2="182.01"/><line class="cls-2" x1="91.69" y1="176.14" x2="91.69" y2="85.12"/><line class="cls-1" x1="91.69" y1="82.19" x2="91.69" y2="81.2"/><line class="cls-1" x1="98.66" y1="183" x2="98.66" y2="182.01"/><line class="cls-2" x1="98.66" y1="176.14" x2="98.66" y2="85.12"/><line class="cls-1" x1="98.66" y1="82.19" x2="98.66" y2="81.2"/><line class="cls-1" x1="105.64" y1="183" x2="105.64" y2="182.01"/><line class="cls-2" x1="105.64" y1="176.14" x2="105.64" y2="85.12"/><line class="cls-1" x1="105.64" y1="82.19" x2="105.64" y2="81.2"/><line class="cls-1" x1="112.62" y1="183" x2="112.62" y2="182.01"/><line class="cls-2" x1="112.62" y1="176.14" x2="112.62" y2="85.12"/><line class="cls-1" x1="112.62" y1="82.19" x2="112.62" y2="81.2"/><line class="cls-1" x1="119.59" y1="303.8" x2="119.59" y2="302.81"/><line class="cls-3" x1="119.59" y1="296.85" x2="119.59" y2="85.17"/><line class="cls-1" x1="119.59" y1="82.19" x2="119.59" y2="81.2"/><line class="cls-1" x1="126.57" y1="303.8" x2="126.57" y2="302.81"/><line class="cls-3" x1="126.57" y1="296.85" x2="126.57" y2="85.17"/><line class="cls-1" x1="126.57" y1="82.19" x2="126.57" y2="81.2"/><line class="cls-1" x1="133.55" y1="303.8" x2="133.55" y2="302.81"/><line class="cls-3" x1="133.55" y1="296.85" x2="133.55" y2="85.17"/><line class="cls-1" x1="133.55" y1="82.19" x2="133.55" y2="81.2"/><line class="cls-1" x1="140.53" y1="351.33" x2="140.53" y2="350.34"/><line class="cls-4" x1="140.53" y1="344.38" x2="140.53" y2="85.17"/><line class="cls-1" x1="140.53" y1="82.19" x2="140.53" y2="81.2"/><line class="cls-1" x1="147.5" y1="351.33" x2="147.5" y2="350.34"/><line class="cls-4" x1="147.5" y1="344.38" x2="147.5" y2="85.17"/><line class="cls-1" x1="147.5" y1="82.19" x2="147.5" y2="81.2"/><line class="cls-1" x1="154.48" y1="351.33" x2="154.48" y2="350.34"/><line class="cls-5" x1="154.48" y1="344.35" x2="154.48" y2="147.56"/><line class="cls-1" x1="154.48" y1="144.57" x2="154.48" y2="143.58"/><line class="cls-1" x1="161.46" y1="351.33" x2="161.46" y2="350.34"/><line class="cls-5" x1="161.46" y1="344.35" x2="161.46" y2="147.56"/><line class="cls-1" x1="161.46" y1="144.57" x2="161.46" y2="143.58"/><line class="cls-1" x1="168.43" y1="351.33" x2="168.43" y2="350.34"/><line class="cls-5" x1="168.43" y1="344.35" x2="168.43" y2="147.56"/><line class="cls-1" x1="168.43" y1="144.57" x2="168.43" y2="143.58"/><line class="cls-1" x1="175.41" y1="351.33" x2="175.41" y2="350.34"/><line class="cls-5" x1="175.41" y1="344.35" x2="175.41" y2="147.56"/><line class="cls-1" x1="175.41" y1="144.57" x2="175.41" y2="143.58"/><line class="cls-1" x1="182.39" y1="351.33" x2="182.39" y2="350.34"/><line class="cls-5" x1="182.39" y1="344.35" x2="182.39" y2="147.56"/><line class="cls-1" x1="182.39" y1="144.57" x2="182.39" y2="143.58"/><line class="cls-1" x1="189.36" y1="351.33" x2="189.36" y2="350.34"/><line class="cls-5" x1="189.36" y1="344.35" x2="189.36" y2="147.56"/><line class="cls-1" x1="189.36" y1="144.57" x2="189.36" y2="143.58"/><line class="cls-1" x1="196.34" y1="351.33" x2="196.34" y2="350.34"/><line class="cls-5" x1="196.34" y1="344.35" x2="196.34" y2="147.56"/><line class="cls-1" x1="196.34" y1="144.57" x2="196.34" y2="143.58"/><line class="cls-1" x1="203.32" y1="351.33" x2="203.32" y2="350.34"/><line class="cls-5" x1="203.32" y1="344.35" x2="203.32" y2="147.56"/><line class="cls-1" x1="203.32" y1="144.57" x2="203.32" y2="143.58"/><line class="cls-1" x1="210.29" y1="351.33" x2="210.29" y2="350.34"/><line class="cls-5" x1="210.29" y1="344.35" x2="210.29" y2="147.56"/><line class="cls-1" x1="210.29" y1="144.57" x2="210.29" y2="143.58"/><line class="cls-1" x1="217.27" y1="351.33" x2="217.27" y2="350.34"/><line class="cls-5" x1="217.27" y1="344.35" x2="217.27" y2="147.56"/><line class="cls-1" x1="217.27" y1="144.57" x2="217.27" y2="143.58"/><line class="cls-1" x1="224.25" y1="351.33" x2="224.25" y2="350.34"/><line class="cls-5" x1="224.25" y1="344.35" x2="224.25" y2="147.56"/><line class="cls-1" x1="224.25" y1="144.57" x2="224.25" y2="143.58"/><line class="cls-1" x1="231.22" y1="351.33" x2="231.22" y2="350.34"/><line class="cls-5" x1="231.22" y1="344.35" x2="231.22" y2="147.56"/><line class="cls-1" x1="231.22" y1="144.57" x2="231.22" y2="143.58"/><line class="cls-1" x1="238.2" y1="351.33" x2="238.2" y2="350.34"/><line class="cls-5" x1="238.2" y1="344.35" x2="238.2" y2="147.56"/><line class="cls-1" x1="238.2" y1="144.57" x2="238.2" y2="143.58"/><line class="cls-1" x1="245.18" y1="351.33" x2="245.18" y2="350.34"/><line class="cls-5" x1="245.18" y1="344.35" x2="245.18" y2="147.56"/><line class="cls-1" x1="245.18" y1="144.57" x2="245.18" y2="143.58"/><line class="cls-1" x1="252.15" y1="303.8" x2="252.15" y2="302.81"/><line class="cls-6" x1="252.15" y1="296.8" x2="252.15" y2="147.57"/><line class="cls-1" x1="252.15" y1="144.57" x2="252.15" y2="143.58"/><line class="cls-1" x1="259.13" y1="303.8" x2="259.13" y2="302.81"/><line class="cls-6" x1="259.13" y1="296.8" x2="259.13" y2="147.57"/><line class="cls-1" x1="259.13" y1="144.57" x2="259.13" y2="143.58"/><line class="cls-1" x1="266.11" y1="303.8" x2="266.11" y2="302.81"/><line class="cls-6" x1="266.11" y1="296.8" x2="266.11" y2="147.57"/><line class="cls-1" x1="266.11" y1="144.57" x2="266.11" y2="143.58"/><line class="cls-1" x1="273.08" y1="303.8" x2="273.08" y2="302.81"/><line class="cls-6" x1="273.08" y1="296.8" x2="273.08" y2="147.57"/><line class="cls-1" x1="273.08" y1="144.57" x2="273.08" y2="143.58"/><line class="cls-1" x1="280.06" y1="303.8" x2="280.06" y2="302.81"/><line class="cls-6" x1="280.06" y1="296.8" x2="280.06" y2="147.57"/><line class="cls-1" x1="280.06" y1="144.57" x2="280.06" y2="143.58"/><line class="cls-1" x1="287.04" y1="303.8" x2="287.04" y2="302.81"/><line class="cls-6" x1="287.04" y1="296.8" x2="287.04" y2="147.57"/><line class="cls-1" x1="287.04" y1="144.57" x2="287.04" y2="143.58"/><line class="cls-1" x1="294.01" y1="303.8" x2="294.01" y2="302.81"/><line class="cls-6" x1="294.01" y1="296.8" x2="294.01" y2="147.57"/><line class="cls-1" x1="294.01" y1="144.57" x2="294.01" y2="143.58"/><line class="cls-1" x1="300.99" y1="303.8" x2="300.99" y2="302.81"/><line class="cls-6" x1="300.99" y1="296.8" x2="300.99" y2="147.57"/><line class="cls-1" x1="300.99" y1="144.57" x2="300.99" y2="143.58"/><line class="cls-1" x1="307.97" y1="303.8" x2="307.97" y2="302.81"/><line class="cls-6" x1="307.97" y1="296.8" x2="307.97" y2="147.57"/><line class="cls-1" x1="307.97" y1="144.57" x2="307.97" y2="143.58"/><line class="cls-1" x1="314.94" y1="303.8" x2="314.94" y2="302.81"/><line class="cls-6" x1="314.94" y1="296.8" x2="314.94" y2="147.57"/><line class="cls-1" x1="314.94" y1="144.57" x2="314.94" y2="143.58"/><line class="cls-1" x1="321.92" y1="303.8" x2="321.92" y2="302.81"/><line class="cls-6" x1="321.92" y1="296.8" x2="321.92" y2="147.57"/><line class="cls-1" x1="321.92" y1="144.57" x2="321.92" y2="143.58"/><line class="cls-1" x1="328.9" y1="303.8" x2="328.9" y2="302.81"/><line class="cls-6" x1="328.9" y1="296.8" x2="328.9" y2="147.57"/><line class="cls-1" x1="328.9" y1="144.57" x2="328.9" y2="143.58"/><line class="cls-1" x1="335.87" y1="303.8" x2="335.87" y2="302.81"/><line class="cls-6" x1="335.87" y1="296.8" x2="335.87" y2="147.57"/><line class="cls-1" x1="335.87" y1="144.57" x2="335.87" y2="143.58"/><line class="cls-1" x1="342.85" y1="303.8" x2="342.85" y2="302.81"/><line class="cls-6" x1="342.85" y1="296.8" x2="342.85" y2="147.57"/><line class="cls-1" x1="342.85" y1="144.57" x2="342.85" y2="143.58"/><line class="cls-1" x1="349.83" y1="303.8" x2="349.83" y2="302.81"/><line class="cls-6" x1="349.83" y1="296.8" x2="349.83" y2="147.57"/><line class="cls-1" x1="349.83" y1="144.57" x2="349.83" y2="143.58"/><line class="cls-1" x1="356.8" y1="303.8" x2="356.8" y2="302.81"/><line class="cls-7" x1="356.8" y1="296.81" x2="356.8" y2="3.99"/><line class="cls-1" x1="356.8" y1="0.99" x2="356.8"/><line class="cls-1" x1="363.78" y1="367.17" x2="363.78" y2="366.18"/><line class="cls-8" x1="363.78" y1="360.2" x2="363.78" y2="3.98"/><line class="cls-1" x1="363.78" y1="0.99" x2="363.78"/><line class="cls-1" x1="370.76" y1="367.17" x2="370.76" y2="366.18"/><line class="cls-8" x1="370.76" y1="360.2" x2="370.76" y2="3.98"/><line class="cls-1" x1="370.76" y1="0.99" x2="370.76"/><line class="cls-1" x1="377.73" y1="367.17" x2="377.73" y2="366.18"/><line class="cls-8" x1="377.73" y1="360.2" x2="377.73" y2="3.98"/><line class="cls-1" x1="377.73" y1="0.99" x2="377.73"/><line class="cls-1" x1="384.71" y1="367.17" x2="384.71" y2="366.18"/><line class="cls-8" x1="384.71" y1="360.2" x2="384.71" y2="3.98"/><line class="cls-1" x1="384.71" y1="0.99" x2="384.71"/><line class="cls-1" x1="391.69" y1="367.17" x2="391.69" y2="366.18"/><line class="cls-8" x1="391.69" y1="360.2" x2="391.69" y2="3.98"/><line class="cls-1" x1="391.69" y1="0.99" x2="391.69"/><line class="cls-1" x1="398.66" y1="367.17" x2="398.66" y2="366.18"/><line class="cls-8" x1="398.66" y1="360.2" x2="398.66" y2="3.98"/><line class="cls-1" x1="398.66" y1="0.99" x2="398.66"/><line class="cls-1" x1="405.64" y1="367.17" x2="405.64" y2="366.18"/><line class="cls-8" x1="405.64" y1="360.2" x2="405.64" y2="3.98"/><line class="cls-1" x1="405.64" y1="0.99" x2="405.64"/><line class="cls-1" x1="412.62" y1="367.17" x2="412.62" y2="366.18"/><line class="cls-8" x1="412.62" y1="360.2" x2="412.62" y2="3.98"/><line class="cls-1" x1="412.62" y1="0.99" x2="412.62"/><line class="cls-1" x1="419.59" y1="367.17" x2="419.59" y2="366.18"/><line class="cls-8" x1="419.59" y1="360.2" x2="419.59" y2="3.98"/><line class="cls-1" x1="419.59" y1="0.99" x2="419.59"/><line class="cls-1" x1="426.57" y1="367.17" x2="426.57" y2="366.18"/><line class="cls-8" x1="426.57" y1="360.2" x2="426.57" y2="3.98"/><line class="cls-1" x1="426.57" y1="0.99" x2="426.57"/><line class="cls-1" x1="433.55" y1="367.17" x2="433.55" y2="366.18"/><line class="cls-8" x1="433.55" y1="360.2" x2="433.55" y2="3.98"/><line class="cls-1" x1="433.55" y1="0.99" x2="433.55"/><line class="cls-1" x1="440.53" y1="367.17" x2="440.53" y2="366.18"/><line class="cls-8" x1="440.53" y1="360.2" x2="440.53" y2="3.98"/><line class="cls-1" x1="440.53" y1="0.99" x2="440.53"/><line class="cls-1" x1="447.5" y1="367.17" x2="447.5" y2="366.18"/><line class="cls-9" x1="447.5" y1="360.19" x2="447.5" y2="147.56"/><line class="cls-1" x1="447.5" y1="144.57" x2="447.5" y2="143.58"/><line class="cls-1" x1="454.48" y1="367.17" x2="454.48" y2="366.18"/><line class="cls-9" x1="454.48" y1="360.19" x2="454.48" y2="147.56"/><line class="cls-1" x1="454.48" y1="144.57" x2="454.48" y2="143.58"/><line class="cls-1" x1="461.46" y1="367.17" x2="461.46" y2="366.18"/><line class="cls-9" x1="461.46" y1="360.19" x2="461.46" y2="147.56"/><line class="cls-1" x1="461.46" y1="144.57" x2="461.46" y2="143.58"/><line class="cls-1" x1="468.43" y1="367.17" x2="468.43" y2="366.18"/><line class="cls-9" x1="468.43" y1="360.19" x2="468.43" y2="147.56"/><line class="cls-1" x1="468.43" y1="144.57" x2="468.43" y2="143.58"/><line class="cls-1" x1="475.41" y1="367.17" x2="475.41" y2="366.18"/><line class="cls-9" x1="475.41" y1="360.19" x2="475.41" y2="147.56"/><line class="cls-1" x1="475.41" y1="144.57" x2="475.41" y2="143.58"/><line class="cls-1" x1="482.39" y1="367.17" x2="482.39" y2="366.18"/><line class="cls-9" x1="482.39" y1="360.19" x2="482.39" y2="147.56"/><line class="cls-1" x1="482.39" y1="144.57" x2="482.39" y2="143.58"/><line class="cls-1" x1="489.36" y1="367.17" x2="489.36" y2="366.18"/><line class="cls-9" x1="489.36" y1="360.19" x2="489.36" y2="147.56"/><line class="cls-1" x1="489.36" y1="144.57" x2="489.36" y2="143.58"/><line class="cls-1" x1="496.34" y1="303.8" x2="496.34" y2="302.81"/><line class="cls-6" x1="496.34" y1="296.8" x2="496.34" y2="147.57"/><line class="cls-1" x1="496.34" y1="144.57" x2="496.34" y2="143.58"/><line class="cls-1" x1="503.32" y1="303.8" x2="503.32" y2="302.81"/><line class="cls-6" x1="503.32" y1="296.8" x2="503.32" y2="147.57"/><line class="cls-1" x1="503.32" y1="144.57" x2="503.32" y2="143.58"/><line class="cls-1" x1="510.29" y1="303.8" x2="510.29" y2="302.81"/><line class="cls-6" x1="510.29" y1="296.8" x2="510.29" y2="147.57"/><line class="cls-1" x1="510.29" y1="144.57" x2="510.29" y2="143.58"/><line class="cls-1" x1="517.27" y1="303.8" x2="517.27" y2="302.81"/><line class="cls-6" x1="517.27" y1="296.8" x2="517.27" y2="147.57"/><line class="cls-1" x1="517.27" y1="144.57" x2="517.27" y2="143.58"/><line class="cls-1" x1="524.25" y1="303.8" x2="524.25" y2="302.81"/><line class="cls-6" x1="524.25" y1="296.8" x2="524.25" y2="147.57"/><line class="cls-1" x1="524.25" y1="144.57" x2="524.25" y2="143.58"/><line class="cls-1" x1="531.22" y1="303.8" x2="531.22" y2="302.81"/><line class="cls-6" x1="531.22" y1="296.8" x2="531.22" y2="147.57"/><line class="cls-1" x1="531.22" y1="144.57" x2="531.22" y2="143.58"/><line class="cls-1" x1="538.2" y1="303.8" x2="538.2" y2="302.81"/><line class="cls-6" x1="538.2" y1="296.8" x2="538.2" y2="147.57"/><line class="cls-1" x1="538.2" y1="144.57" x2="538.2" y2="143.58"/><line class="cls-1" x1="545.18" y1="303.8" x2="545.18" y2="302.81"/><line class="cls-6" x1="545.18" y1="296.8" x2="545.18" y2="147.57"/><line class="cls-1" x1="545.18" y1="144.57" x2="545.18" y2="143.58"/><line class="cls-1" x1="552.15" y1="303.8" x2="552.15" y2="302.81"/><line class="cls-6" x1="552.15" y1="296.8" x2="552.15" y2="147.57"/><line class="cls-1" x1="552.15" y1="144.57" x2="552.15" y2="143.58"/><line class="cls-1" x1="559.13" y1="303.8" x2="559.13" y2="302.81"/><line class="cls-6" x1="559.13" y1="296.8" x2="559.13" y2="147.57"/><line class="cls-1" x1="559.13" y1="144.57" x2="559.13" y2="143.58"/><line class="cls-1" x1="566.11" y1="303.8" x2="566.11" y2="302.81"/><line class="cls-6" x1="566.11" y1="296.8" x2="566.11" y2="147.57"/><line class="cls-1" x1="566.11" y1="144.57" x2="566.11" y2="143.58"/><line class="cls-1" x1="573.08" y1="303.8" x2="573.08" y2="302.81"/><line class="cls-10" x1="573.08" y1="296.85" x2="573.08" y2="101.01"/><line class="cls-1" x1="573.08" y1="98.03" x2="573.08" y2="97.04"/><line class="cls-1" x1="580.06" y1="303.8" x2="580.06" y2="302.81"/><line class="cls-10" x1="580.06" y1="296.85" x2="580.06" y2="101.01"/><line class="cls-1" x1="580.06" y1="98.03" x2="580.06" y2="97.04"/><line class="cls-1" x1="587.04" y1="303.8" x2="587.04" y2="302.81"/><line class="cls-10" x1="587.04" y1="296.85" x2="587.04" y2="101.01"/><line class="cls-1" x1="587.04" y1="98.03" x2="587.04" y2="97.04"/><line class="cls-1" x1="594.01" y1="303.8" x2="594.01" y2="302.81"/><line class="cls-10" x1="594.01" y1="296.85" x2="594.01" y2="101.01"/><line class="cls-1" x1="594.01" y1="98.03" x2="594.01" y2="97.04"/><line class="cls-1" x1="600.99" y1="303.8" x2="600.99" y2="302.81"/><line class="cls-10" x1="600.99" y1="296.85" x2="600.99" y2="101.01"/><line class="cls-1" x1="600.99" y1="98.03" x2="600.99" y2="97.04"/><line class="cls-1" x1="607.97" y1="398.86" x2="607.97" y2="397.87"/><line class="cls-11" x1="607.97" y1="391.91" x2="607.97" y2="101.01"/><line class="cls-1" x1="607.97" y1="98.03" x2="607.97" y2="97.04"/><line class="cls-1" x1="614.94" y1="398.86" x2="614.94" y2="397.87"/><line class="cls-11" x1="614.94" y1="391.91" x2="614.94" y2="101.01"/><line class="cls-1" x1="614.94" y1="98.03" x2="614.94" y2="97.04"/><line class="cls-1" x1="621.92" y1="398.86" x2="621.92" y2="397.87"/><line class="cls-11" x1="621.92" y1="391.91" x2="621.92" y2="101.01"/><line class="cls-1" x1="621.92" y1="98.03" x2="621.92" y2="97.04"/><line class="cls-1" x1="628.9" y1="398.86" x2="628.9" y2="397.87"/><line class="cls-11" x1="628.9" y1="391.91" x2="628.9" y2="101.01"/><line class="cls-1" x1="628.9" y1="98.03" x2="628.9" y2="97.04"/><line class="cls-1" x1="635.87" y1="398.86" x2="635.87" y2="397.87"/><line class="cls-11" x1="635.87" y1="391.91" x2="635.87" y2="101.01"/><line class="cls-1" x1="635.87" y1="98.03" x2="635.87" y2="97.04"/><line class="cls-1" x1="642.85" y1="398.86" x2="642.85" y2="397.87"/><line class="cls-11" x1="642.85" y1="391.91" x2="642.85" y2="101.01"/><line class="cls-1" x1="642.85" y1="98.03" x2="642.85" y2="97.04"/><line class="cls-1" x1="649.83" y1="398.86" x2="649.83" y2="397.87"/><line class="cls-11" x1="649.83" y1="391.91" x2="649.83" y2="101.01"/><line class="cls-1" x1="649.83" y1="98.03" x2="649.83" y2="97.04"/><line class="cls-1" x1="656.8" y1="398.86" x2="656.8" y2="397.87"/><line class="cls-12" x1="656.8" y1="391.89" x2="656.8" y2="147.56"/><line class="cls-1" x1="656.8" y1="144.57" x2="656.8" y2="143.58"/><line class="cls-1" x1="663.78" y1="398.86" x2="663.78" y2="397.87"/><line class="cls-12" x1="663.78" y1="391.89" x2="663.78" y2="147.56"/><line class="cls-1" x1="663.78" y1="144.57" x2="663.78" y2="143.58"/><line class="cls-1" x1="670.76" y1="398.86" x2="670.76" y2="397.87"/><line class="cls-12" x1="670.76" y1="391.89" x2="670.76" y2="147.56"/><line class="cls-1" x1="670.76" y1="144.57" x2="670.76" y2="143.58"/><line class="cls-1" x1="677.73" y1="398.86" x2="677.73" y2="397.87"/><line class="cls-12" x1="677.73" y1="391.89" x2="677.73" y2="147.56"/><line class="cls-1" x1="677.73" y1="144.57" x2="677.73" y2="143.58"/><line class="cls-1" x1="684.71" y1="398.86" x2="684.71" y2="397.87"/><line class="cls-12" x1="684.71" y1="391.89" x2="684.71" y2="147.56"/><line class="cls-1" x1="684.71" y1="144.57" x2="684.71" y2="143.58"/><line class="cls-1" x1="691.69" y1="398.86" x2="691.69" y2="397.87"/><line class="cls-12" x1="691.69" y1="391.89" x2="691.69" y2="147.56"/><line class="cls-1" x1="691.69" y1="144.57" x2="691.69" y2="143.58"/><line class="cls-1" x1="698.66" y1="398.86" x2="698.66" y2="397.87"/><line class="cls-12" x1="698.66" y1="391.89" x2="698.66" y2="147.56"/><line class="cls-1" x1="698.66" y1="144.57" x2="698.66" y2="143.58"/><line class="cls-1" x1="705.64" y1="398.86" x2="705.64" y2="397.87"/><line class="cls-12" x1="705.64" y1="391.89" x2="705.64" y2="147.56"/><line class="cls-1" x1="705.64" y1="144.57" x2="705.64" y2="143.58"/><line class="cls-1" x1="712.62" y1="398.86" x2="712.62" y2="397.87"/><line class="cls-12" x1="712.62" y1="391.89" x2="712.62" y2="147.56"/><line class="cls-1" x1="712.62" y1="144.57" x2="712.62" y2="143.58"/><line class="cls-1" x1="719.59" y1="398.86" x2="719.59" y2="397.87"/><line class="cls-12" x1="719.59" y1="391.89" x2="719.59" y2="147.56"/><line class="cls-1" x1="719.59" y1="144.57" x2="719.59" y2="143.58"/><line class="cls-1" x1="726.57" y1="398.86" x2="726.57" y2="397.87"/><line class="cls-12" x1="726.57" y1="391.89" x2="726.57" y2="147.56"/><line class="cls-1" x1="726.57" y1="144.57" x2="726.57" y2="143.58"/><line class="cls-1" x1="733.55" y1="398.86" x2="733.55" y2="397.87"/><line class="cls-12" x1="733.55" y1="391.89" x2="733.55" y2="147.56"/><line class="cls-1" x1="733.55" y1="144.57" x2="733.55" y2="143.58"/><line class="cls-1" x1="740.53" y1="335.49" x2="740.53" y2="334.5"/><line class="cls-13" x1="740.53" y1="328.5" x2="740.53" y2="147.57"/><line class="cls-1" x1="740.53" y1="144.57" x2="740.53" y2="143.58"/><line class="cls-1" x1="747.5" y1="335.49" x2="747.5" y2="334.5"/><line class="cls-13" x1="747.5" y1="328.5" x2="747.5" y2="147.57"/><line class="cls-1" x1="747.5" y1="144.57" x2="747.5" y2="143.58"/><line class="cls-1" x1="754.48" y1="335.49" x2="754.48" y2="334.5"/><line class="cls-13" x1="754.48" y1="328.5" x2="754.48" y2="147.57"/><line class="cls-1" x1="754.48" y1="144.57" x2="754.48" y2="143.58"/><line class="cls-1" x1="761.46" y1="335.49" x2="761.46" y2="334.5"/><line class="cls-13" x1="761.46" y1="328.5" x2="761.46" y2="147.57"/><line class="cls-1" x1="761.46" y1="144.57" x2="761.46" y2="143.58"/><line class="cls-1" x1="768.43" y1="335.49" x2="768.43" y2="334.5"/><line class="cls-13" x1="768.43" y1="328.5" x2="768.43" y2="147.57"/><line class="cls-1" x1="768.43" y1="144.57" x2="768.43" y2="143.58"/><line class="cls-1" x1="775.41" y1="335.49" x2="775.41" y2="334.5"/><line class="cls-13" x1="775.41" y1="328.5" x2="775.41" y2="147.57"/><line class="cls-1" x1="775.41" y1="144.57" x2="775.41" y2="143.58"/><line class="cls-1" x1="782.39" y1="335.49" x2="782.39" y2="334.5"/><line class="cls-13" x1="782.39" y1="328.5" x2="782.39" y2="147.57"/><line class="cls-1" x1="782.39" y1="144.57" x2="782.39" y2="143.58"/><line class="cls-1" x1="789.36" y1="335.49" x2="789.36" y2="334.5"/><line class="cls-13" x1="789.36" y1="328.5" x2="789.36" y2="147.57"/><line class="cls-1" x1="789.36" y1="144.57" x2="789.36" y2="143.58"/><line class="cls-1" x1="796.34" y1="335.49" x2="796.34" y2="334.5"/><line class="cls-13" x1="796.34" y1="328.5" x2="796.34" y2="147.57"/><line class="cls-1" x1="796.34" y1="144.57" x2="796.34" y2="143.58"/><line class="cls-1" x1="803.32" y1="335.49" x2="803.32" y2="334.5"/><line class="cls-14" x1="803.32" y1="328.53" x2="803.32" y2="204.19"/><line class="cls-1" x1="803.32" y1="201.21" x2="803.32" y2="200.22"/><line class="cls-1" x1="810.29" y1="335.49" x2="810.29" y2="334.5"/><line class="cls-14" x1="810.29" y1="328.53" x2="810.29" y2="204.19"/><line class="cls-1" x1="810.29" y1="201.21" x2="810.29" y2="200.22"/><line class="cls-1" x1="817.27" y1="335.49" x2="817.27" y2="334.5"/><line class="cls-14" x1="817.27" y1="328.53" x2="817.27" y2="204.19"/><line class="cls-1" x1="817.27" y1="201.21" x2="817.27" y2="200.22"/><line class="cls-1" x1="824.25" y1="335.49" x2="824.25" y2="334.5"/><line class="cls-14" x1="824.25" y1="328.53" x2="824.25" y2="204.19"/><line class="cls-1" x1="824.25" y1="201.21" x2="824.25" y2="200.22"/><line class="cls-1" x1="831.22" y1="335.49" x2="831.22" y2="334.5"/><line class="cls-14" x1="831.22" y1="328.53" x2="831.22" y2="204.19"/><line class="cls-1" x1="831.22" y1="201.21" x2="831.22" y2="200.22"/><line class="cls-1" x1="838.2" y1="335.49" x2="838.2" y2="334.5"/><line class="cls-14" x1="838.2" y1="328.53" x2="838.2" y2="204.19"/><line class="cls-1" x1="838.2" y1="201.21" x2="838.2" y2="200.22"/><line class="cls-1" x1="845.18" y1="335.49" x2="845.18" y2="334.5"/><line class="cls-14" x1="845.18" y1="328.53" x2="845.18" y2="204.19"/><line class="cls-1" x1="845.18" y1="201.21" x2="845.18" y2="200.22"/><line class="cls-1" x1="852.15" y1="335.49" x2="852.15" y2="334.5"/><line class="cls-14" x1="852.15" y1="328.53" x2="852.15" y2="204.19"/><line class="cls-1" x1="852.15" y1="201.21" x2="852.15" y2="200.22"/><line class="cls-1" x1="859.13" y1="335.49" x2="859.13" y2="334.5"/><line class="cls-14" x1="859.13" y1="328.53" x2="859.13" y2="204.19"/><line class="cls-1" x1="859.13" y1="201.21" x2="859.13" y2="200.22"/><line class="cls-1" x1="866.11" y1="335.49" x2="866.11" y2="334.5"/><line class="cls-14" x1="866.11" y1="328.53" x2="866.11" y2="204.19"/><line class="cls-1" x1="866.11" y1="201.21" x2="866.11" y2="200.22"/><line class="cls-1" x1="873.08" y1="335.49" x2="873.08" y2="334.5"/><line class="cls-14" x1="873.08" y1="328.53" x2="873.08" y2="204.19"/><line class="cls-1" x1="873.08" y1="201.21" x2="873.08" y2="200.22"/><line class="cls-1" x1="880.06" y1="335.49" x2="880.06" y2="334.5"/><line class="cls-14" x1="880.06" y1="328.53" x2="880.06" y2="204.19"/><line class="cls-1" x1="880.06" y1="201.21" x2="880.06" y2="200.22"/><line class="cls-1" x1="887.04" y1="335.49" x2="887.04" y2="334.5"/><line class="cls-14" x1="887.04" y1="328.53" x2="887.04" y2="204.19"/><line class="cls-1" x1="887.04" y1="201.21" x2="887.04" y2="200.22"/><line class="cls-1" x1="894.01" y1="335.49" x2="894.01" y2="334.5"/><line class="cls-14" x1="894.01" y1="328.53" x2="894.01" y2="204.19"/><line class="cls-1" x1="894.01" y1="201.21" x2="894.01" y2="200.22"/><line class="cls-1" x1="900.99" y1="335.49" x2="900.99" y2="334.5"/><line class="cls-14" x1="900.99" y1="328.53" x2="900.99" y2="204.19"/><line class="cls-1" x1="900.99" y1="201.21" x2="900.99" y2="200.22"/></g></g></svg>