<svg xmlns="http://www.w3.org/2000/svg" viewBox="0 0 673.2 460.83"><defs><style>.cls-1,.cls-2{fill:#7acdd6;}.cls-2{fill-rule:evenodd;}</style></defs><title>Ativo 17</title><g id="Camada_2" data-name="Camada 2"><g id="Layer_1" data-name="Layer 1"><path class="cls-1" d="M95.63,121.36c31-30.34,61.36-60,91.67-89.69,10-9.77,21.15-12.38,34.85-8.4,19.52,5.67,23.63,39.26,10.3,51.54-11,10.14-21.21,21.16-31.74,31.8-1.69,1.71-3.27,3.53-5.15,5.58,12.64,4.75,13.51,15.13,13.75,24.09,6.52,5.16,14.77,8.51,17.19,14.3,4.11,9.85,8.25,17,18.29,22.84,12,7,11.69,28.17,1,39.35C228.17,231.15,210,249,192,267c-4.19,4.22-8.17,8.67-12.54,12.7-22.7,20.95-56.54,20.13-78-2.08C83.25,258.8,64.94,240,47.6,220.37c-4.34-4.92-6-12.8-7.38-19.62-3-14.6-5-29.42-7.71-44.09a20.16,20.16,0,0,0-3.8-8.49c-8.16-10.4-16.44-20.71-25.08-30.71-5-5.79-4.55-10.94-.37-16.76,10.3-14.31,26.53-19.62,45.13-14.61C66.17,90.88,80.25,101,91.18,115.66,92.49,117.43,93.89,119.14,95.63,121.36Zm-71.6-12c6.87,8.34,13.72,15.91,19.67,24.13,3.81,5.28,7.64,11.21,9.08,17.4,3.07,13.3,4.3,27,6.91,40.44,1.19,6.14,2.26,13.39,6.1,17.73,16.38,18.5,33.63,36.22,50.82,54,14.16,14.62,34.86,15.07,49.38.8,20.84-20.47,41.24-41.38,61.86-62.08,3.9-3.91,6.09-8.81,2.69-13.29-3.16-4.18-7.85-2.54-12,.2-4.61,3-9.37,2-12.82-2-3.68-4.22-3.63-9.07,0-13.6.77-1,2.12-1.81,2.33-2.88.6-3.06,2.08-8,.82-9-2.67-1.93-7.77-3.43-10.25-2.1-6,3.22-11.34,4.85-16-.94s-2.32-11.09,2.51-15.81c3.26-3.19,6.77-6.69,2.78-11.53-3.73-4.51-7.52-2.94-11.7,0-4.69,3.32-9.69,2.42-13.47-1.76s-3.71-9,.07-13.49c1.45-1.71,3-3.34,4.58-4.94q24.69-25.09,49.37-50.2c6.4-6.54,5.5-14.23-2-17.74-5.66-2.66-9.41.59-13.13,4.22q-49.08,47.82-98.23,95.58c-6.88,6.68-12.84,6.2-18.7-1.44-2.13-2.77-4.1-5.65-6.2-8.44C70,121.37,60.15,111.61,46.2,107.18,39.05,104.91,31.78,102.93,24,109.36Z"/><path class="cls-1" d="M127.22,30.77c-2.1,3.8-3.06,6.71-5,8.73-6.29,6.71-12.82,13.19-19.43,19.58-5.28,5.1-11.42,5.3-15.82.85-4.2-4.26-4.16-10.17.68-15.26,6.67-7,13.31-14.17,20.75-20.32,2.63-2.17,8-2.85,11.32-1.81C122.73,23.46,124.64,27.74,127.22,30.77Z"/><path class="cls-1" d="M63.66,53.77c-2,2.55-3.82,6.77-6.8,7.93s-8.43.73-10.82-1.32A282.26,282.26,0,0,1,23.25,37.8c-3.89-4.21-3.53-9.24.46-13.41s9-5.2,13.33-1.25C45.28,30.7,53,38.83,60.78,46.9,62,48.19,62.3,50.41,63.66,53.77Z"/><path class="cls-1" d="M83.53,21.11c0,3.75.14,7.5,0,11.24-.28,5.9-3.57,9.18-9.41,9.51s-10-2.56-10.5-8.32A176.19,176.19,0,0,1,63.45,8.9C63.8,3.19,67.75-.26,73.53,0s9.78,3.48,10,9.86C83.63,13.62,83.54,17.37,83.53,21.11Z"/><path class="cls-2" d="M664.94,444.3V378.19a8.27,8.27,0,0,0-8.27-8.27H557.5a8.26,8.26,0,0,1,8.26-8.26h99.18a8.26,8.26,0,0,1,8.26,8.26V436A8.26,8.26,0,0,1,664.94,444.3Zm-8.27-57.85v66.12a8.26,8.26,0,0,1-8.26,8.26H549.23a8.26,8.26,0,0,1-8.26-8.26V386.45a8.26,8.26,0,0,1,8.26-8.26h99.18A8.26,8.26,0,0,1,656.67,386.45ZM640.14,403a8.26,8.26,0,0,0-8.26-8.27H565.76A8.26,8.26,0,0,0,557.5,403v33a8.26,8.26,0,0,0,8.26,8.27h66.12a8.26,8.26,0,0,0,8.26-8.27Zm-41.32,33a16.53,16.53,0,1,1,16.53-16.52A16.53,16.53,0,0,1,598.82,436Z"/><path class="cls-1" d="M570.94,87.27a47.82,47.82,0,0,0-75.05,58l-36.48,36.49a3.95,3.95,0,0,0,0,5.59l11.49,11.5a4,4,0,0,0,5.6,0l36.5-36.5a47.82,47.82,0,0,0,57.94-75.09ZM473.7,190.47l-5.9-5.91,32.74-32.73c.88,1,1.81,2.07,2.79,3s2,1.94,3.11,2.84Zm91.64-41.18A39.89,39.89,0,1,1,577,121.07,39.64,39.64,0,0,1,565.34,149.29Z"/><path class="cls-1" d="M568.45,125.8a2.63,2.63,0,0,0-3.17,2,28.93,28.93,0,0,1-48.6,13.77,28.22,28.22,0,0,1-2.69-3.09,2.64,2.64,0,1,0-4.21,3.17,34.3,34.3,0,0,0,3.17,3.64A34.2,34.2,0,0,0,570.41,129,2.64,2.64,0,0,0,568.45,125.8Z"/><path class="cls-1" d="M509.56,129.85a28.93,28.93,0,1,1,55.61-15.91,2.64,2.64,0,0,0,5.11-1.29,34.2,34.2,0,1,0-65.74,18.8,2.64,2.64,0,0,0,2.51,1.84,2.77,2.77,0,0,0,.8-.12A2.64,2.64,0,0,0,509.56,129.85Z"/><path class="cls-1" d="M542.37,98.42a2.64,2.64,0,1,0-1.18,5.14,18,18,0,0,1,8.66,4.8,2.63,2.63,0,0,0,3.72,0,2.64,2.64,0,0,0,0-3.73A23.12,23.12,0,0,0,542.37,98.42Z"/><path class="cls-1" d="M555,119.29a2.63,2.63,0,0,0,2.62,2.37h.26a2.64,2.64,0,0,0,2.37-2.88,24,24,0,0,0-1.13-5.22,2.64,2.64,0,0,0-5,1.7A18.09,18.09,0,0,1,555,119.29Z"/><path class="cls-1" d="M593.68,161.5a2.66,2.66,0,0,0-2.65-2.66H578.78c-.37.37-.73.75-1.12,1.11a46.36,46.36,0,0,1-4.47,4.2H591A2.65,2.65,0,0,0,593.68,161.5Z"/><path class="cls-1" d="M617.82,136.64h-7.55v-5.29a2.66,2.66,0,0,0-5.32,0v5.29h-7.37v-5.29a2.66,2.66,0,0,0-2.66-2.66,2.6,2.6,0,0,0-1,.2,42.47,42.47,0,0,1-1.65,6.29v1.46h-.52a45.62,45.62,0,0,1-2.12,4.69c-.36,1.12-.78,2.21-1.23,3.28h3.87v5.49a2.66,2.66,0,1,0,5.32,0v-5.49H605v5.49a2.66,2.66,0,0,0,5.32,0v-5.49h7.55v14.23H605.9a2.66,2.66,0,0,0,0,5.31h11.92v83.31H534V176.82a58.33,58.33,0,0,1-8-.84v71.48a8,8,0,0,0,8,8h83.87a8,8,0,0,0,8-8V144.61A8,8,0,0,0,617.82,136.64Z"/><path class="cls-1" d="M604.62,181.72H572.26a2.66,2.66,0,0,0,0,5.32h32.36a2.66,2.66,0,0,0,0-5.32Z"/><path class="cls-1" d="M557.33,181.72H547.16a2.66,2.66,0,1,0,0,5.32h10.17a2.66,2.66,0,0,0,0-5.32Z"/><path class="cls-1" d="M604.62,195.68H572.26a2.66,2.66,0,0,0,0,5.32h32.36a2.66,2.66,0,0,0,0-5.32Z"/><path class="cls-1" d="M557.33,195.68H547.16a2.66,2.66,0,1,0,0,5.32h10.17a2.66,2.66,0,0,0,0-5.32Z"/><path class="cls-1" d="M604.62,210.28H572.26a2.66,2.66,0,0,0,0,5.32h32.36a2.66,2.66,0,0,0,0-5.32Z"/><path class="cls-1" d="M557.33,210.28H547.16a2.66,2.66,0,1,0,0,5.32h10.17a2.66,2.66,0,0,0,0-5.32Z"/><path class="cls-1" d="M604.62,225.74H572.26a2.66,2.66,0,0,0,0,5.32h32.36a2.66,2.66,0,0,0,0-5.32Z"/><path class="cls-1" d="M557.33,225.74H547.16a2.66,2.66,0,1,0,0,5.32h10.17a2.66,2.66,0,0,0,0-5.32Z"/></g></g></svg>