<svg xmlns="http://www.w3.org/2000/svg" viewBox="0 0 181.2 315.85"><defs><style>.cls-1{fill:none;stroke:#454e5b;stroke-miterlimit:10;stroke-width:1.47px;opacity:0.4;}</style></defs><title>Ativo 18</title><g id="Camada_2" data-name="Camada 2"><g id="Layer_1" data-name="Layer 1"><polyline class="cls-1" points="115.34 253.6 90.61 228.87 65.89 253.6"/><polyline class="cls-1" points="106.91 93.27 90.61 76.97 74.31 93.27"/><polyline class="cls-1" points="140.91 145.02 89.99 96.73 40.32 148.77"/><polyline class="cls-1" points="134.32 75.41 90.61 31.7 46.91 75.41"/><polyline class="cls-1" points="180.69 251.02 88.62 163.14 0.53 255.43"/><polyline class="cls-1" points="101.28 72.05 90.32 61.08 79.95 71.45"/><polyline class="cls-1" points="109.98 219.23 90.61 199.86 71.25 219.23"/><polyline class="cls-1" points="115.34 25.77 90.61 1.04 65.89 25.77"/><polyline class="cls-1" points="106.91 158.99 90.61 142.69 74.31 158.99"/><polyline class="cls-1" points="140.91 309.46 89.99 261.18 40.32 313.22"/><polyline class="cls-1" points="101.28 137.76 90.32 126.8 79.95 137.17"/><polyline class="cls-1" points="109.98 315.32 90.61 295.96 71.25 315.32"/></g></g></svg>