<svg xmlns="http://www.w3.org/2000/svg" viewBox="0 0 891.41 378.92"><defs><style>.cls-1,.cls-2,.cls-3,.cls-4,.cls-5,.cls-6{fill:none;stroke:#7acdd6;stroke-miterlimit:10;stroke-width:1.96px;}.cls-2{stroke-dasharray:1.95 5.85;}.cls-3{stroke-dasharray:1.96 5.89;}.cls-4{stroke-dasharray:1.97 5.92;}.cls-5{stroke-dasharray:1.97 5.9;}.cls-6{stroke-dasharray:1.96 5.89;}</style></defs><title>Ativo 7</title><g id="Camada_2" data-name="Camada 2"><g id="Layer_1" data-name="Layer 1"><line class="cls-1" x1="890.43" y1="119.39" x2="890.43" y2="120.37"/><line class="cls-2" x1="890.43" y1="126.22" x2="890.43" y2="341.74"/><line class="cls-1" x1="890.43" y1="344.67" x2="890.43" y2="345.65"/><line class="cls-1" x1="883.53" y1="119.39" x2="883.53" y2="120.37"/><line class="cls-2" x1="883.53" y1="126.22" x2="883.53" y2="341.74"/><line class="cls-1" x1="883.53" y1="344.67" x2="883.53" y2="345.65"/><line class="cls-1" x1="876.64" y1="119.39" x2="876.64" y2="120.37"/><line class="cls-2" x1="876.64" y1="126.22" x2="876.64" y2="341.74"/><line class="cls-1" x1="876.64" y1="344.67" x2="876.64" y2="345.65"/><line class="cls-1" x1="869.74" y1="119.39" x2="869.74" y2="120.37"/><line class="cls-2" x1="869.74" y1="126.22" x2="869.74" y2="341.74"/><line class="cls-1" x1="869.74" y1="344.67" x2="869.74" y2="345.65"/><line class="cls-1" x1="862.85" y1="119.39" x2="862.85" y2="120.37"/><line class="cls-2" x1="862.85" y1="126.22" x2="862.85" y2="341.74"/><line class="cls-1" x1="862.85" y1="344.67" x2="862.85" y2="345.65"/><line class="cls-1" x1="855.95" y1="119.39" x2="855.95" y2="120.37"/><line class="cls-2" x1="855.95" y1="126.22" x2="855.95" y2="341.74"/><line class="cls-1" x1="855.95" y1="344.67" x2="855.95" y2="345.65"/><line class="cls-1" x1="849.06" y1="119.39" x2="849.06" y2="120.37"/><line class="cls-2" x1="849.06" y1="126.22" x2="849.06" y2="341.74"/><line class="cls-1" x1="849.06" y1="344.67" x2="849.06" y2="345.65"/><line class="cls-1" x1="842.16" y1="119.39" x2="842.16" y2="120.37"/><line class="cls-2" x1="842.16" y1="126.22" x2="842.16" y2="341.74"/><line class="cls-1" x1="842.16" y1="344.67" x2="842.16" y2="345.65"/><line class="cls-1" x1="835.27" y1="119.39" x2="835.27" y2="120.37"/><line class="cls-2" x1="835.27" y1="126.22" x2="835.27" y2="341.74"/><line class="cls-1" x1="835.27" y1="344.67" x2="835.27" y2="345.65"/><line class="cls-1" x1="828.37" y1="119.39" x2="828.37" y2="120.37"/><line class="cls-2" x1="828.37" y1="126.22" x2="828.37" y2="341.74"/><line class="cls-1" x1="828.37" y1="344.67" x2="828.37" y2="345.65"/><line class="cls-1" x1="821.48" y1="119.39" x2="821.48" y2="120.37"/><line class="cls-2" x1="821.48" y1="126.22" x2="821.48" y2="341.74"/><line class="cls-1" x1="821.48" y1="344.67" x2="821.48" y2="345.65"/><line class="cls-1" x1="814.58" y1="119.39" x2="814.58" y2="120.37"/><line class="cls-2" x1="814.58" y1="126.22" x2="814.58" y2="341.74"/><line class="cls-1" x1="814.58" y1="344.67" x2="814.58" y2="345.65"/><line class="cls-1" x1="807.69" y1="119.39" x2="807.69" y2="120.37"/><line class="cls-2" x1="807.69" y1="126.22" x2="807.69" y2="341.74"/><line class="cls-1" x1="807.69" y1="344.67" x2="807.69" y2="345.65"/><line class="cls-1" x1="800.79" y1="119.39" x2="800.79" y2="120.37"/><line class="cls-2" x1="800.79" y1="126.22" x2="800.79" y2="341.74"/><line class="cls-1" x1="800.79" y1="344.67" x2="800.79" y2="345.65"/><line class="cls-1" x1="793.9" y1="119.39" x2="793.9" y2="120.37"/><line class="cls-2" x1="793.9" y1="126.22" x2="793.9" y2="341.74"/><line class="cls-1" x1="793.9" y1="344.67" x2="793.9" y2="345.65"/><line class="cls-1" x1="787" y1="119.39" x2="787" y2="120.37"/><line class="cls-2" x1="787" y1="126.22" x2="787" y2="341.74"/><line class="cls-1" x1="787" y1="344.67" x2="787" y2="345.65"/><line class="cls-1" x1="780.11" y1="119.39" x2="780.11" y2="120.37"/><line class="cls-2" x1="780.11" y1="126.22" x2="780.11" y2="341.74"/><line class="cls-1" x1="780.11" y1="344.67" x2="780.11" y2="345.65"/><line class="cls-1" x1="773.22" x2="773.22" y2="0.98"/><line class="cls-3" x1="773.22" y1="6.87" x2="773.22" y2="341.72"/><line class="cls-1" x1="773.22" y1="344.67" x2="773.22" y2="345.65"/><line class="cls-1" x1="766.32" x2="766.32" y2="0.98"/><line class="cls-3" x1="766.32" y1="6.87" x2="766.32" y2="341.72"/><line class="cls-1" x1="766.32" y1="344.67" x2="766.32" y2="345.65"/><line class="cls-1" x1="759.43" x2="759.43" y2="0.98"/><line class="cls-3" x1="759.43" y1="6.87" x2="759.43" y2="341.72"/><line class="cls-1" x1="759.43" y1="344.67" x2="759.43" y2="345.65"/><line class="cls-1" x1="752.53" x2="752.53" y2="0.98"/><line class="cls-3" x1="752.53" y1="6.87" x2="752.53" y2="341.72"/><line class="cls-1" x1="752.53" y1="344.67" x2="752.53" y2="345.65"/><line class="cls-1" x1="745.64" x2="745.64" y2="0.98"/><line class="cls-3" x1="745.64" y1="6.87" x2="745.64" y2="341.72"/><line class="cls-1" x1="745.64" y1="344.67" x2="745.64" y2="345.65"/><line class="cls-1" x1="738.74" x2="738.74" y2="0.98"/><line class="cls-3" x1="738.74" y1="6.87" x2="738.74" y2="341.72"/><line class="cls-1" x1="738.74" y1="344.67" x2="738.74" y2="345.65"/><line class="cls-1" x1="731.85" x2="731.85" y2="0.98"/><line class="cls-3" x1="731.85" y1="6.87" x2="731.85" y2="341.72"/><line class="cls-1" x1="731.85" y1="344.67" x2="731.85" y2="345.65"/><line class="cls-1" x1="724.95" x2="724.95" y2="0.98"/><line class="cls-3" x1="724.95" y1="6.87" x2="724.95" y2="341.72"/><line class="cls-1" x1="724.95" y1="344.67" x2="724.95" y2="345.65"/><line class="cls-1" x1="718.06" x2="718.06" y2="0.98"/><line class="cls-3" x1="718.06" y1="6.87" x2="718.06" y2="341.72"/><line class="cls-1" x1="718.06" y1="344.67" x2="718.06" y2="345.65"/><line class="cls-1" x1="711.16" x2="711.16" y2="0.98"/><line class="cls-3" x1="711.16" y1="6.87" x2="711.16" y2="341.72"/><line class="cls-1" x1="711.16" y1="344.67" x2="711.16" y2="345.65"/><line class="cls-1" x1="704.27" x2="704.27" y2="0.98"/><line class="cls-3" x1="704.27" y1="6.87" x2="704.27" y2="341.72"/><line class="cls-1" x1="704.27" y1="344.67" x2="704.27" y2="345.65"/><line class="cls-1" x1="697.37" x2="697.37" y2="0.98"/><line class="cls-3" x1="697.37" y1="6.87" x2="697.37" y2="341.72"/><line class="cls-1" x1="697.37" y1="344.67" x2="697.37" y2="345.65"/><line class="cls-1" x1="690.48" x2="690.48" y2="0.98"/><line class="cls-3" x1="690.48" y1="6.87" x2="690.48" y2="341.72"/><line class="cls-1" x1="690.48" y1="344.67" x2="690.48" y2="345.65"/><line class="cls-1" x1="683.58" x2="683.58" y2="0.98"/><line class="cls-3" x1="683.58" y1="6.87" x2="683.58" y2="341.72"/><line class="cls-1" x1="683.58" y1="344.67" x2="683.58" y2="345.65"/><line class="cls-1" x1="676.69" x2="676.69" y2="0.98"/><line class="cls-3" x1="676.69" y1="6.87" x2="676.69" y2="341.72"/><line class="cls-1" x1="676.69" y1="344.67" x2="676.69" y2="345.65"/><line class="cls-1" x1="669.79" x2="669.79" y2="0.98"/><line class="cls-3" x1="669.79" y1="6.87" x2="669.79" y2="341.72"/><line class="cls-1" x1="669.79" y1="344.67" x2="669.79" y2="345.65"/><line class="cls-1" x1="662.9" x2="662.9" y2="0.98"/><line class="cls-3" x1="662.9" y1="6.87" x2="662.9" y2="341.72"/><line class="cls-1" x1="662.9" y1="344.67" x2="662.9" y2="345.65"/><line class="cls-1" x1="656" x2="656" y2="0.98"/><line class="cls-3" x1="656" y1="6.87" x2="656" y2="341.72"/><line class="cls-1" x1="656" y1="344.67" x2="656" y2="345.65"/><line class="cls-1" x1="649.11" x2="649.11" y2="0.98"/><line class="cls-3" x1="649.11" y1="6.87" x2="649.11" y2="341.72"/><line class="cls-1" x1="649.11" y1="344.67" x2="649.11" y2="345.65"/><line class="cls-1" x1="642.21" x2="642.21" y2="0.98"/><line class="cls-3" x1="642.21" y1="6.87" x2="642.21" y2="341.72"/><line class="cls-1" x1="642.21" y1="344.67" x2="642.21" y2="345.65"/><line class="cls-1" x1="635.32" x2="635.32" y2="0.98"/><line class="cls-3" x1="635.32" y1="6.87" x2="635.32" y2="341.72"/><line class="cls-1" x1="635.32" y1="344.67" x2="635.32" y2="345.65"/><line class="cls-1" x1="628.42" x2="628.42" y2="0.98"/><line class="cls-3" x1="628.42" y1="6.87" x2="628.42" y2="341.72"/><line class="cls-1" x1="628.42" y1="344.67" x2="628.42" y2="345.65"/><line class="cls-1" x1="621.53" x2="621.53" y2="0.98"/><line class="cls-3" x1="621.53" y1="6.87" x2="621.53" y2="341.72"/><line class="cls-1" x1="621.53" y1="344.67" x2="621.53" y2="345.65"/><line class="cls-1" x1="614.63" x2="614.63" y2="0.98"/><line class="cls-3" x1="614.63" y1="6.87" x2="614.63" y2="341.72"/><line class="cls-1" x1="614.63" y1="344.67" x2="614.63" y2="345.65"/><line class="cls-1" x1="607.74" x2="607.74" y2="0.98"/><line class="cls-3" x1="607.74" y1="6.87" x2="607.74" y2="341.72"/><line class="cls-1" x1="607.74" y1="344.67" x2="607.74" y2="345.65"/><line class="cls-1" x1="600.84" x2="600.84" y2="0.98"/><line class="cls-3" x1="600.84" y1="6.87" x2="600.84" y2="341.72"/><line class="cls-1" x1="600.84" y1="344.67" x2="600.84" y2="345.65"/><line class="cls-1" x1="593.95" x2="593.95" y2="0.98"/><line class="cls-3" x1="593.95" y1="6.87" x2="593.95" y2="341.72"/><line class="cls-1" x1="593.95" y1="344.67" x2="593.95" y2="345.65"/><line class="cls-1" x1="587.05" x2="587.05" y2="0.98"/><line class="cls-3" x1="587.05" y1="6.87" x2="587.05" y2="341.72"/><line class="cls-1" x1="587.05" y1="344.67" x2="587.05" y2="345.65"/><line class="cls-1" x1="580.16" x2="580.16" y2="0.98"/><line class="cls-3" x1="580.16" y1="6.87" x2="580.16" y2="341.72"/><line class="cls-1" x1="580.16" y1="344.67" x2="580.16" y2="345.65"/><line class="cls-1" x1="573.26" x2="573.26" y2="0.98"/><line class="cls-3" x1="573.26" y1="6.87" x2="573.26" y2="341.72"/><line class="cls-1" x1="573.26" y1="344.67" x2="573.26" y2="345.65"/><line class="cls-1" x1="566.37" x2="566.37" y2="0.98"/><line class="cls-3" x1="566.37" y1="6.87" x2="566.37" y2="341.72"/><line class="cls-1" x1="566.37" y1="344.67" x2="566.37" y2="345.65"/><line class="cls-1" x1="559.47" x2="559.47" y2="0.98"/><line class="cls-3" x1="559.47" y1="6.87" x2="559.47" y2="341.72"/><line class="cls-1" x1="559.47" y1="344.67" x2="559.47" y2="345.65"/><line class="cls-1" x1="552.58" x2="552.58" y2="0.98"/><line class="cls-3" x1="552.58" y1="6.87" x2="552.58" y2="341.72"/><line class="cls-1" x1="552.58" y1="344.67" x2="552.58" y2="345.65"/><line class="cls-1" x1="545.68" x2="545.68" y2="0.98"/><line class="cls-3" x1="545.68" y1="6.87" x2="545.68" y2="341.72"/><line class="cls-1" x1="545.68" y1="344.67" x2="545.68" y2="345.65"/><line class="cls-1" x1="538.79" x2="538.79" y2="0.98"/><line class="cls-4" x1="538.79" y1="6.9" x2="538.79" y2="374.98"/><line class="cls-1" x1="538.79" y1="377.94" x2="538.79" y2="378.92"/><line class="cls-1" x1="531.89" x2="531.89" y2="0.98"/><line class="cls-4" x1="531.89" y1="6.9" x2="531.89" y2="374.98"/><line class="cls-1" x1="531.89" y1="377.94" x2="531.89" y2="378.92"/><line class="cls-1" x1="525" x2="525" y2="0.98"/><line class="cls-4" x1="525" y1="6.9" x2="525" y2="374.98"/><line class="cls-1" x1="525" y1="377.94" x2="525" y2="378.92"/><line class="cls-1" x1="518.1" x2="518.1" y2="0.98"/><line class="cls-4" x1="518.1" y1="6.9" x2="518.1" y2="374.98"/><line class="cls-1" x1="518.1" y1="377.94" x2="518.1" y2="378.92"/><line class="cls-1" x1="511.21" x2="511.21" y2="0.98"/><line class="cls-4" x1="511.21" y1="6.9" x2="511.21" y2="374.98"/><line class="cls-1" x1="511.21" y1="377.94" x2="511.21" y2="378.92"/><line class="cls-1" x1="504.31" x2="504.31" y2="0.98"/><line class="cls-4" x1="504.31" y1="6.9" x2="504.31" y2="374.98"/><line class="cls-1" x1="504.31" y1="377.94" x2="504.31" y2="378.92"/><line class="cls-1" x1="497.42" x2="497.42" y2="0.98"/><line class="cls-4" x1="497.42" y1="6.9" x2="497.42" y2="374.98"/><line class="cls-1" x1="497.42" y1="377.94" x2="497.42" y2="378.92"/><line class="cls-1" x1="490.52" x2="490.52" y2="0.98"/><line class="cls-4" x1="490.52" y1="6.9" x2="490.52" y2="374.98"/><line class="cls-1" x1="490.52" y1="377.94" x2="490.52" y2="378.92"/><line class="cls-1" x1="483.63" x2="483.63" y2="0.98"/><line class="cls-4" x1="483.63" y1="6.9" x2="483.63" y2="374.98"/><line class="cls-1" x1="483.63" y1="377.94" x2="483.63" y2="378.92"/><line class="cls-1" x1="476.73" x2="476.73" y2="0.98"/><line class="cls-4" x1="476.73" y1="6.9" x2="476.73" y2="374.98"/><line class="cls-1" x1="476.73" y1="377.94" x2="476.73" y2="378.92"/><line class="cls-1" x1="469.84" x2="469.84" y2="0.98"/><line class="cls-4" x1="469.84" y1="6.9" x2="469.84" y2="374.98"/><line class="cls-1" x1="469.84" y1="377.94" x2="469.84" y2="378.92"/><line class="cls-1" x1="462.94" x2="462.94" y2="0.98"/><line class="cls-4" x1="462.94" y1="6.9" x2="462.94" y2="374.98"/><line class="cls-1" x1="462.94" y1="377.94" x2="462.94" y2="378.92"/><line class="cls-1" x1="456.05" x2="456.05" y2="0.98"/><line class="cls-4" x1="456.05" y1="6.9" x2="456.05" y2="374.98"/><line class="cls-1" x1="456.05" y1="377.94" x2="456.05" y2="378.92"/><line class="cls-1" x1="449.15" x2="449.15" y2="0.98"/><line class="cls-3" x1="449.15" y1="6.87" x2="449.15" y2="341.72"/><line class="cls-1" x1="449.15" y1="344.67" x2="449.15" y2="345.65"/><line class="cls-1" x1="442.26" x2="442.26" y2="0.98"/><line class="cls-3" x1="442.26" y1="6.87" x2="442.26" y2="341.72"/><line class="cls-1" x1="442.26" y1="344.67" x2="442.26" y2="345.65"/><line class="cls-1" x1="435.36" x2="435.36" y2="0.98"/><line class="cls-3" x1="435.36" y1="6.87" x2="435.36" y2="341.72"/><line class="cls-1" x1="435.36" y1="344.67" x2="435.36" y2="345.65"/><line class="cls-1" x1="428.47" x2="428.47" y2="0.98"/><line class="cls-3" x1="428.47" y1="6.87" x2="428.47" y2="341.72"/><line class="cls-1" x1="428.47" y1="344.67" x2="428.47" y2="345.65"/><line class="cls-1" x1="421.57" x2="421.57" y2="0.98"/><line class="cls-3" x1="421.57" y1="6.87" x2="421.57" y2="341.72"/><line class="cls-1" x1="421.57" y1="344.67" x2="421.57" y2="345.65"/><line class="cls-1" x1="414.68" x2="414.68" y2="0.98"/><line class="cls-3" x1="414.68" y1="6.87" x2="414.68" y2="341.72"/><line class="cls-1" x1="414.68" y1="344.67" x2="414.68" y2="345.65"/><line class="cls-1" x1="407.78" x2="407.78" y2="0.98"/><line class="cls-3" x1="407.78" y1="6.87" x2="407.78" y2="341.72"/><line class="cls-1" x1="407.78" y1="344.67" x2="407.78" y2="345.65"/><line class="cls-1" x1="400.89" x2="400.89" y2="0.98"/><line class="cls-3" x1="400.89" y1="6.87" x2="400.89" y2="341.72"/><line class="cls-1" x1="400.89" y1="344.67" x2="400.89" y2="345.65"/><line class="cls-1" x1="393.99" x2="393.99" y2="0.98"/><line class="cls-3" x1="393.99" y1="6.87" x2="393.99" y2="341.72"/><line class="cls-1" x1="393.99" y1="344.67" x2="393.99" y2="345.65"/><line class="cls-1" x1="387.1" x2="387.1" y2="0.98"/><line class="cls-3" x1="387.1" y1="6.87" x2="387.1" y2="341.72"/><line class="cls-1" x1="387.1" y1="344.67" x2="387.1" y2="345.65"/><line class="cls-1" x1="380.2" x2="380.2" y2="0.98"/><line class="cls-3" x1="380.2" y1="6.87" x2="380.2" y2="341.72"/><line class="cls-1" x1="380.2" y1="344.67" x2="380.2" y2="345.65"/><line class="cls-1" x1="373.31" x2="373.31" y2="0.98"/><line class="cls-3" x1="373.31" y1="6.87" x2="373.31" y2="341.72"/><line class="cls-1" x1="373.31" y1="344.67" x2="373.31" y2="345.65"/><line class="cls-1" x1="366.41" x2="366.41" y2="0.98"/><line class="cls-3" x1="366.41" y1="6.87" x2="366.41" y2="341.72"/><line class="cls-1" x1="366.41" y1="344.67" x2="366.41" y2="345.65"/><line class="cls-1" x1="359.52" x2="359.52" y2="0.98"/><line class="cls-5" x1="359.52" y1="6.88" x2="359.52" y2="153.44"/><line class="cls-1" x1="359.52" y1="156.39" x2="359.52" y2="157.37"/><line class="cls-1" x1="352.62" x2="352.62" y2="0.98"/><line class="cls-5" x1="352.62" y1="6.88" x2="352.62" y2="153.44"/><line class="cls-1" x1="352.62" y1="156.39" x2="352.62" y2="157.37"/><line class="cls-1" x1="345.73" x2="345.73" y2="0.98"/><line class="cls-5" x1="345.73" y1="6.88" x2="345.73" y2="153.44"/><line class="cls-1" x1="345.73" y1="156.39" x2="345.73" y2="157.37"/><line class="cls-1" x1="338.83" x2="338.83" y2="0.98"/><line class="cls-5" x1="338.83" y1="6.88" x2="338.83" y2="153.44"/><line class="cls-1" x1="338.83" y1="156.39" x2="338.83" y2="157.37"/><line class="cls-1" x1="331.94" x2="331.94" y2="0.98"/><line class="cls-5" x1="331.94" y1="6.88" x2="331.94" y2="153.44"/><line class="cls-1" x1="331.94" y1="156.39" x2="331.94" y2="157.37"/><line class="cls-1" x1="325.04" y1="47.36" x2="325.04" y2="48.34"/><line class="cls-6" x1="325.04" y1="54.24" x2="325.04" y2="153.44"/><line class="cls-1" x1="325.04" y1="156.39" x2="325.04" y2="157.37"/><line class="cls-1" x1="318.15" y1="47.36" x2="318.15" y2="48.34"/><line class="cls-6" x1="318.15" y1="54.24" x2="318.15" y2="153.44"/><line class="cls-1" x1="318.15" y1="156.39" x2="318.15" y2="157.37"/><line class="cls-1" x1="311.25" y1="47.36" x2="311.25" y2="48.34"/><line class="cls-6" x1="311.25" y1="54.24" x2="311.25" y2="153.44"/><line class="cls-1" x1="311.25" y1="156.39" x2="311.25" y2="157.37"/><line class="cls-1" x1="304.36" y1="47.36" x2="304.36" y2="48.34"/><line class="cls-6" x1="304.36" y1="54.24" x2="304.36" y2="153.44"/><line class="cls-1" x1="304.36" y1="156.39" x2="304.36" y2="157.37"/><line class="cls-1" x1="297.46" y1="47.36" x2="297.46" y2="48.34"/><line class="cls-6" x1="297.46" y1="54.24" x2="297.46" y2="153.44"/><line class="cls-1" x1="297.46" y1="156.39" x2="297.46" y2="157.37"/><line class="cls-1" x1="290.57" y1="47.36" x2="290.57" y2="48.34"/><line class="cls-6" x1="290.57" y1="54.24" x2="290.57" y2="153.44"/><line class="cls-1" x1="290.57" y1="156.39" x2="290.57" y2="157.37"/><line class="cls-1" x1="283.67" y1="47.36" x2="283.67" y2="48.34"/><line class="cls-6" x1="283.67" y1="54.24" x2="283.67" y2="153.44"/><line class="cls-1" x1="283.67" y1="156.39" x2="283.67" y2="157.37"/><line class="cls-1" x1="276.78" y1="47.36" x2="276.78" y2="48.34"/><line class="cls-6" x1="276.78" y1="54.24" x2="276.78" y2="153.44"/><line class="cls-1" x1="276.78" y1="156.39" x2="276.78" y2="157.37"/><line class="cls-1" x1="269.88" y1="47.36" x2="269.88" y2="48.34"/><line class="cls-6" x1="269.88" y1="54.24" x2="269.88" y2="153.44"/><line class="cls-1" x1="269.88" y1="156.39" x2="269.88" y2="157.37"/><line class="cls-1" x1="262.99" y1="47.36" x2="262.99" y2="48.34"/><line class="cls-6" x1="262.99" y1="54.24" x2="262.99" y2="153.44"/><line class="cls-1" x1="262.99" y1="156.39" x2="262.99" y2="157.37"/><line class="cls-1" x1="256.09" y1="47.36" x2="256.09" y2="48.34"/><line class="cls-6" x1="256.09" y1="54.24" x2="256.09" y2="153.44"/><line class="cls-1" x1="256.09" y1="156.39" x2="256.09" y2="157.37"/><line class="cls-1" x1="249.2" y1="47.36" x2="249.2" y2="48.34"/><line class="cls-6" x1="249.2" y1="54.24" x2="249.2" y2="153.44"/><line class="cls-1" x1="249.2" y1="156.39" x2="249.2" y2="157.37"/><line class="cls-1" x1="242.3" y1="47.36" x2="242.3" y2="48.34"/><line class="cls-6" x1="242.3" y1="54.24" x2="242.3" y2="153.44"/><line class="cls-1" x1="242.3" y1="156.39" x2="242.3" y2="157.37"/><line class="cls-1" x1="235.41" y1="47.36" x2="235.41" y2="48.34"/><line class="cls-6" x1="235.41" y1="54.24" x2="235.41" y2="153.44"/><line class="cls-1" x1="235.41" y1="156.39" x2="235.41" y2="157.37"/><line class="cls-1" x1="228.51" y1="47.36" x2="228.51" y2="48.34"/><line class="cls-6" x1="228.51" y1="54.24" x2="228.51" y2="153.44"/><line class="cls-1" x1="228.51" y1="156.39" x2="228.51" y2="157.37"/><line class="cls-1" x1="221.62" y1="47.36" x2="221.62" y2="48.34"/><line class="cls-6" x1="221.62" y1="54.24" x2="221.62" y2="153.44"/><line class="cls-1" x1="221.62" y1="156.39" x2="221.62" y2="157.37"/><line class="cls-1" x1="214.72" y1="47.36" x2="214.72" y2="48.34"/><line class="cls-6" x1="214.72" y1="54.24" x2="214.72" y2="153.44"/><line class="cls-1" x1="214.72" y1="156.39" x2="214.72" y2="157.37"/><line class="cls-1" x1="207.83" y1="47.36" x2="207.83" y2="48.34"/><line class="cls-6" x1="207.83" y1="54.24" x2="207.83" y2="153.44"/><line class="cls-1" x1="207.83" y1="156.39" x2="207.83" y2="157.37"/><line class="cls-1" x1="200.93" y1="47.36" x2="200.93" y2="48.34"/><line class="cls-6" x1="200.93" y1="54.24" x2="200.93" y2="153.44"/><line class="cls-1" x1="200.93" y1="156.39" x2="200.93" y2="157.37"/><line class="cls-1" x1="194.04" y1="47.36" x2="194.04" y2="48.34"/><line class="cls-6" x1="194.04" y1="54.24" x2="194.04" y2="153.44"/><line class="cls-1" x1="194.04" y1="156.39" x2="194.04" y2="157.37"/><line class="cls-1" x1="187.14" y1="47.36" x2="187.14" y2="48.34"/><line class="cls-6" x1="187.14" y1="54.24" x2="187.14" y2="153.44"/><line class="cls-1" x1="187.14" y1="156.39" x2="187.14" y2="157.37"/><line class="cls-1" x1="180.25" y1="47.36" x2="180.25" y2="48.34"/><line class="cls-6" x1="180.25" y1="54.24" x2="180.25" y2="153.44"/><line class="cls-1" x1="180.25" y1="156.39" x2="180.25" y2="157.37"/><line class="cls-1" x1="173.35" y1="47.36" x2="173.35" y2="48.34"/><line class="cls-6" x1="173.35" y1="54.24" x2="173.35" y2="153.44"/><line class="cls-1" x1="173.35" y1="156.39" x2="173.35" y2="157.37"/><line class="cls-1" x1="166.46" y1="47.36" x2="166.46" y2="48.34"/><line class="cls-6" x1="166.46" y1="54.24" x2="166.46" y2="153.44"/><line class="cls-1" x1="166.46" y1="156.39" x2="166.46" y2="157.37"/><line class="cls-1" x1="159.56" y1="47.36" x2="159.56" y2="48.34"/><line class="cls-6" x1="159.56" y1="54.24" x2="159.56" y2="153.44"/><line class="cls-1" x1="159.56" y1="156.39" x2="159.56" y2="157.37"/><line class="cls-1" x1="152.67" y1="47.36" x2="152.67" y2="48.34"/><line class="cls-6" x1="152.67" y1="54.24" x2="152.67" y2="153.44"/><line class="cls-1" x1="152.67" y1="156.39" x2="152.67" y2="157.37"/><line class="cls-1" x1="145.77" y1="47.36" x2="145.77" y2="48.34"/><line class="cls-6" x1="145.77" y1="54.24" x2="145.77" y2="153.44"/><line class="cls-1" x1="145.77" y1="156.39" x2="145.77" y2="157.37"/><line class="cls-1" x1="138.88" y1="47.36" x2="138.88" y2="48.34"/><line class="cls-6" x1="138.88" y1="54.24" x2="138.88" y2="153.44"/><line class="cls-1" x1="138.88" y1="156.39" x2="138.88" y2="157.37"/><line class="cls-1" x1="131.98" y1="47.36" x2="131.98" y2="48.34"/><line class="cls-6" x1="131.98" y1="54.24" x2="131.98" y2="153.44"/><line class="cls-1" x1="131.98" y1="156.39" x2="131.98" y2="157.37"/><line class="cls-1" x1="125.09" y1="47.36" x2="125.09" y2="48.34"/><line class="cls-6" x1="125.09" y1="54.24" x2="125.09" y2="153.44"/><line class="cls-1" x1="125.09" y1="156.39" x2="125.09" y2="157.37"/><line class="cls-1" x1="118.19" y1="47.36" x2="118.19" y2="48.34"/><line class="cls-6" x1="118.19" y1="54.24" x2="118.19" y2="153.44"/><line class="cls-1" x1="118.19" y1="156.39" x2="118.19" y2="157.37"/><line class="cls-1" x1="111.3" y1="47.36" x2="111.3" y2="48.34"/><line class="cls-6" x1="111.3" y1="54.24" x2="111.3" y2="153.44"/><line class="cls-1" x1="111.3" y1="156.39" x2="111.3" y2="157.37"/><line class="cls-1" x1="104.4" y1="47.36" x2="104.4" y2="48.34"/><line class="cls-6" x1="104.4" y1="54.24" x2="104.4" y2="153.44"/><line class="cls-1" x1="104.4" y1="156.39" x2="104.4" y2="157.37"/><line class="cls-1" x1="97.51" y1="47.36" x2="97.51" y2="48.34"/><line class="cls-6" x1="97.51" y1="54.24" x2="97.51" y2="153.44"/><line class="cls-1" x1="97.51" y1="156.39" x2="97.51" y2="157.37"/><line class="cls-1" x1="90.61" y1="47.36" x2="90.61" y2="48.34"/><line class="cls-6" x1="90.61" y1="54.24" x2="90.61" y2="153.44"/><line class="cls-1" x1="90.61" y1="156.39" x2="90.61" y2="157.37"/><line class="cls-1" x1="83.72" y1="47.36" x2="83.72" y2="48.34"/><line class="cls-6" x1="83.72" y1="54.24" x2="83.72" y2="153.44"/><line class="cls-1" x1="83.72" y1="156.39" x2="83.72" y2="157.37"/><line class="cls-1" x1="76.82" y1="47.36" x2="76.82" y2="48.34"/><line class="cls-6" x1="76.82" y1="54.24" x2="76.82" y2="153.44"/><line class="cls-1" x1="76.82" y1="156.39" x2="76.82" y2="157.37"/><line class="cls-1" x1="69.93" y1="47.36" x2="69.93" y2="48.34"/><line class="cls-6" x1="69.93" y1="54.24" x2="69.93" y2="153.44"/><line class="cls-1" x1="69.93" y1="156.39" x2="69.93" y2="157.37"/><line class="cls-1" x1="63.03" y1="47.36" x2="63.03" y2="48.34"/><line class="cls-6" x1="63.03" y1="54.24" x2="63.03" y2="153.44"/><line class="cls-1" x1="63.03" y1="156.39" x2="63.03" y2="157.37"/><line class="cls-1" x1="56.14" y1="47.36" x2="56.14" y2="48.34"/><line class="cls-6" x1="56.14" y1="54.24" x2="56.14" y2="153.44"/><line class="cls-1" x1="56.14" y1="156.39" x2="56.14" y2="157.37"/><line class="cls-1" x1="49.24" y1="47.36" x2="49.24" y2="48.34"/><line class="cls-6" x1="49.24" y1="54.24" x2="49.24" y2="153.44"/><line class="cls-1" x1="49.24" y1="156.39" x2="49.24" y2="157.37"/><line class="cls-1" x1="42.35" y1="47.36" x2="42.35" y2="48.34"/><line class="cls-6" x1="42.35" y1="54.24" x2="42.35" y2="153.44"/><line class="cls-1" x1="42.35" y1="156.39" x2="42.35" y2="157.37"/><line class="cls-1" x1="35.45" y1="47.36" x2="35.45" y2="48.34"/><line class="cls-6" x1="35.45" y1="54.24" x2="35.45" y2="153.44"/><line class="cls-1" x1="35.45" y1="156.39" x2="35.45" y2="157.37"/><line class="cls-1" x1="28.56" y1="47.36" x2="28.56" y2="48.34"/><line class="cls-6" x1="28.56" y1="54.24" x2="28.56" y2="153.44"/><line class="cls-1" x1="28.56" y1="156.39" x2="28.56" y2="157.37"/><line class="cls-1" x1="21.66" y1="47.36" x2="21.66" y2="48.34"/><line class="cls-6" x1="21.66" y1="54.24" x2="21.66" y2="153.44"/><line class="cls-1" x1="21.66" y1="156.39" x2="21.66" y2="157.37"/><line class="cls-1" x1="14.77" y1="47.36" x2="14.77" y2="48.34"/><line class="cls-6" x1="14.77" y1="54.24" x2="14.77" y2="153.44"/><line class="cls-1" x1="14.77" y1="156.39" x2="14.77" y2="157.37"/><line class="cls-1" x1="7.87" y1="47.36" x2="7.87" y2="48.34"/><line class="cls-6" x1="7.87" y1="54.24" x2="7.87" y2="153.44"/><line class="cls-1" x1="7.87" y1="156.39" x2="7.87" y2="157.37"/><line class="cls-1" x1="0.98" y1="47.36" x2="0.98" y2="48.34"/><line class="cls-6" x1="0.98" y1="54.24" x2="0.98" y2="153.44"/><line class="cls-1" x1="0.98" y1="156.39" x2="0.98" y2="157.37"/></g></g></svg>