<svg xmlns="http://www.w3.org/2000/svg" viewBox="0 0 704.04 437.94"><defs><style>.cls-1{fill:#7acdd6;fill-rule:evenodd;}</style></defs><title>Ativo 5</title><g id="Camada_2" data-name="Camada 2"><g id="Layer_1" data-name="Layer 1"><path class="cls-1" d="M676.72,136.61a27.33,27.33,0,0,1-27.32-27.33v-16L532.1,210.57h0a27.32,27.32,0,0,1-38.63,0h0l-35.33-35.32L395.5,237.9h0a27.32,27.32,0,1,1-38.64-38.64h0l82-82h0a27.3,27.3,0,0,1,38.64,0h0l35.33,35.32,98-98h-16a27.32,27.32,0,0,1,0-54.64h82A27.32,27.32,0,0,1,704,27.32v82A27.33,27.33,0,0,1,676.72,136.61Zm0,136.61a27.32,27.32,0,0,1,0,54.64H294.21a27.32,27.32,0,0,1-27.32-27.32V27.32a27.32,27.32,0,0,1,54.64,0v245.9Z"/><path class="cls-1" d="M190.09,349.21h-88.7a12.67,12.67,0,0,1-12.67-12.67v-88.7a12.67,12.67,0,0,1,12.67-12.67A101.37,101.37,0,0,1,202.76,336.54,12.67,12.67,0,0,1,190.09,349.21Zm-76-87.42v62.08h62.21A75.93,75.93,0,0,0,114.06,261.79ZM63.37,270.7l.15.25A75.89,75.89,0,1,0,167.23,374.56h0a12.67,12.67,0,1,1,22,12.67h0A101.32,101.32,0,1,1,50.09,249.29c.23-.16.37-.4.61-.54A12.67,12.67,0,0,1,63.37,270.7Z"/><path class="cls-1" d="M188,38.34A6.39,6.39,0,0,1,181.58,32h-.65A9.49,9.49,0,0,0,172,25.56H152.82a9.59,9.59,0,0,0,0,19.17H172a22.36,22.36,0,0,1,0,44.72H168.8v6.39a6.39,6.39,0,0,1-12.78,0V89.45h-3.2A22.23,22.23,0,0,1,131.6,73.71a6.23,6.23,0,0,1-1.14-3.43,6.39,6.39,0,0,1,12.78,0h.65a9.48,9.48,0,0,0,8.93,6.39H172a9.59,9.59,0,1,0,0-19.17H152.82a22.36,22.36,0,1,1,0-44.72H156V6.39a6.39,6.39,0,0,1,12.78,0v6.39H172a22.24,22.24,0,0,1,21.23,15.74A6.17,6.17,0,0,1,194.35,32,6.39,6.39,0,0,1,188,38.34Z"/></g></g></svg>