<svg xmlns="http://www.w3.org/2000/svg" viewBox="0 0 103.07 103.07"><defs><style>.cls-1{fill:#fff;}.cls-2{fill:none;stroke:#fff;stroke-miterlimit:10;stroke-width:1.56px;}</style></defs><title>Ativo 26</title><g id="Camada_2" data-name="Camada 2"><g id="Layer_1" data-name="Layer 1"><path class="cls-1" d="M63.54,40.28V34.71a3,3,0,0,0-3-3H43a3,3,0,0,0-3,3v5.55h0c-.5,0-.45,1-.45,2.15s-.07,2.16.45,2.16h0v1.92h0c-.45,0-.45,1-.45,2.15s-.16,2.15.45,2.15h0v18a3,3,0,0,0,3,3H60.54a3,3,0,0,0,3-3V44.54c.48,0,.42-1,.42-2.13S64.08,40.28,63.54,40.28Zm-20.06-.52H60v24H43.48ZM60,35.41v2.42H43.48V35.41ZM43.48,68.07V65.7H60v2.37Z"/><circle class="cls-2" cx="51.54" cy="51.54" r="50.76"/></g></g></svg>