<svg xmlns="http://www.w3.org/2000/svg" viewBox="0 0 103.07 103.07"><defs><style>.cls-1{fill:#fff;}.cls-2{fill:none;stroke:#fff;stroke-miterlimit:10;stroke-width:1.56px;}</style></defs><title>Ativo 25</title><g id="Camada_2" data-name="Camada 2"><g id="Layer_1" data-name="Layer 1"><path class="cls-1" d="M74.37,68.48H67.64V67.12c0-.92-.74-.83-1.66-.83s-1.67-.09-1.67.83v1.36H57.59a1.66,1.66,0,0,0,0,3.32H74.37a1.66,1.66,0,0,0,0-3.32Z"/><path class="cls-1" d="M86.78,31.27H45.17a3.32,3.32,0,0,0-3.32,3.32v27a3.32,3.32,0,0,0,3.32,3.32H86.78a3.33,3.33,0,0,0,3.33-3.32v-27A3.33,3.33,0,0,0,86.78,31.27ZM45.17,61.61v-2.4h29.5a1.11,1.11,0,0,0,0-2.22H45.17V34.59H86.78V57H81.42a1.11,1.11,0,0,0,0,2.22h5.36v2.4Z"/><path class="cls-1" d="M34.76,68.35V34.72a3.33,3.33,0,0,0-3.33-3.32H17.73a3.33,3.33,0,0,0-3.33,3.32V68.35a3.33,3.33,0,0,0,3.33,3.32h13.7A3.33,3.33,0,0,0,34.76,68.35Zm-17-33.63h13.7V68.35H17.73Z"/><rect class="cls-1" x="22.44" y="41.44" width="4.29" height="4.29" rx="2.14"/><circle class="cls-2" cx="51.54" cy="51.54" r="50.76"/></g></g></svg>