<svg xmlns="http://www.w3.org/2000/svg" viewBox="0 0 103.07 103.07"><defs><style>.cls-1{fill:#fff;}.cls-2{fill:none;stroke:#fff;stroke-miterlimit:10;stroke-width:1.56px;}</style></defs><title>Ativo 24</title><g id="Camada_2" data-name="Camada 2"><g id="Layer_1" data-name="Layer 1"><path class="cls-1" d="M74.88,63.41c0-.26.12-28.9.12-28.9A3.55,3.55,0,0,0,71.45,31H31.67a3.55,3.55,0,0,0-3.55,3.56l.07,28.9-6.14,3.37a2.6,2.6,0,0,0,1.23,4.88H79.9A2.61,2.61,0,0,0,81,66.76Zm-3.43-28.9V56.58h-7a1.22,1.22,0,0,0,0,2.43h7v2.21H31.67V59H57.08a1.22,1.22,0,1,0,0-2.43H31.67V34.51ZM24.19,68l6.39-3.17h42L78.93,68Z"/><circle class="cls-2" cx="51.54" cy="51.54" r="50.76"/></g></g></svg>