<svg xmlns="http://www.w3.org/2000/svg" viewBox="0 0 103.07 103.07"><defs><style>.cls-1{fill:#fff;}.cls-2{fill:none;stroke:#fff;stroke-miterlimit:10;stroke-width:1.56px;}</style></defs><title>Ativo 27</title><g id="Camada_2" data-name="Camada 2"><g id="Layer_1" data-name="Layer 1"><path class="cls-1" d="M50.47,68.2c-1.15,0-2.08-.11-2.08,1s.93,1.05,2.08,1.05,2.08.1,2.08-1.05S51.62,68.2,50.47,68.2Z"/><path class="cls-1" d="M68.59,36.18V30.61a3,3,0,0,0-3-3h-30a3,3,0,0,0-3,3v5.55h0c-1.19,0-1.08,1-1.08,2.15s-.11,2.15,1.08,2.15h0v1.92h0c-1.19,0-1.08,1-1.08,2.15s-.11,2.15,1.08,2.15h0V72.46a3,3,0,0,0,3,3h30a3,3,0,0,0,3-3v-32c1-.11.89-1,.89-2.13S69.56,36.29,68.59,36.18Zm-32.54-.53h29v29h-29Zm29-4.35v2.42h-29V31.3Zm-29,40.47V66.58h29v5.19Z"/><circle class="cls-2" cx="51.54" cy="51.54" r="50.76"/></g></g></svg>