<svg xmlns="http://www.w3.org/2000/svg" viewBox="0 0 103.07 103.07"><defs><style>.cls-1,.cls-3{fill:none;stroke:#fff;}.cls-1{stroke-miterlimit:10;stroke-width:1.56px;}.cls-2{fill:#fff;}.cls-3{stroke-linecap:round;stroke-linejoin:round;stroke-width:1.77px;}</style></defs><title>Ativo 28</title><g id="Camada_2" data-name="Camada 2"><g id="Layer_1" data-name="Layer 1"><circle class="cls-1" cx="51.54" cy="51.54" r="50.76"/><path class="cls-2" d="M79,36.6H24.11A3.64,3.64,0,0,1,20.48,33V22.82a3.64,3.64,0,0,1,3.63-3.63H79a3.64,3.64,0,0,1,3.63,3.63V33A3.64,3.64,0,0,1,79,36.6ZM24.11,22.31a.51.51,0,0,0-.51.51V33a.51.51,0,0,0,.51.51H79a.51.51,0,0,0,.51-.51V22.82a.51.51,0,0,0-.51-.51Z"/><circle class="cls-2" cx="65.02" cy="27.89" r="1.46"/><circle class="cls-2" cx="59.01" cy="27.89" r="1.46"/><circle class="cls-2" cx="70.94" cy="27.89" r="1.46"/><line class="cls-3" x1="30.67" y1="27.89" x2="50.25" y2="27.89"/><path class="cls-2" d="M79,56H24.11a3.63,3.63,0,0,1-3.63-3.62V42.22a3.64,3.64,0,0,1,3.63-3.63H79a3.64,3.64,0,0,1,3.63,3.63V52.37A3.63,3.63,0,0,1,79,56ZM24.11,41.71a.51.51,0,0,0-.51.51V52.37a.5.5,0,0,0,.51.5H79a.5.5,0,0,0,.51-.5V42.22a.51.51,0,0,0-.51-.51Z"/><circle class="cls-2" cx="65.02" cy="47.29" r="1.46"/><circle class="cls-2" cx="59.01" cy="47.29" r="1.46"/><circle class="cls-2" cx="70.94" cy="47.29" r="1.46"/><line class="cls-3" x1="30.67" y1="47.29" x2="50.25" y2="47.29"/><path class="cls-2" d="M79,75.39H24.11a3.64,3.64,0,0,1-3.63-3.63V61.62A3.64,3.64,0,0,1,24.11,58H79a3.64,3.64,0,0,1,3.63,3.63V71.76A3.64,3.64,0,0,1,79,75.39ZM24.11,61.11a.51.51,0,0,0-.51.51V71.76a.51.51,0,0,0,.51.51H79a.51.51,0,0,0,.51-.51V61.62a.51.51,0,0,0-.51-.51Z"/><circle class="cls-2" cx="65.02" cy="66.69" r="1.46"/><circle class="cls-2" cx="59.01" cy="66.69" r="1.46"/><circle class="cls-2" cx="70.94" cy="66.69" r="1.46"/><line class="cls-3" x1="30.67" y1="66.69" x2="50.25" y2="66.69"/><line class="cls-3" x1="41.75" y1="83.34" x2="61.32" y2="83.34"/><line class="cls-3" x1="51.54" y1="78.19" x2="51.54" y2="83.34"/></g></g></svg>