<svg xmlns="http://www.w3.org/2000/svg" class="svg-seta" viewBox="0 0 78.13 78.13"><defs><style>.cls-1,.cls-10,.cls-11,.cls-12,.cls-13,.cls-2,.cls-3,.cls-4,.cls-5,.cls-6,.cls-7,.cls-8,.cls-9{fill:none;stroke:#5dbecd;stroke-linecap:round;stroke-linejoin:round;}.cls-1,.cls-2{stroke-width:1.31px;}.cls-2{stroke-dasharray:0.47 4.66;}.cls-3,.cls-4{stroke-width:1.36px;}.cls-4{stroke-dasharray:0.46 4.58;}.cls-5,.cls-6,.cls-7,.cls-8,.cls-9{stroke-width:1.44px;}.cls-6{stroke-dasharray:0.46 4.62;}.cls-7{stroke-dasharray:0.45 4.51;}.cls-8{stroke-dasharray:0.44 4.37;}.cls-9{stroke-dasharray:0.42 4.21;}.cls-10,.cls-11{stroke-width:1.28px;}.cls-11{stroke-dasharray:0.56 5.64;}.cls-12{stroke-width:1.4px;}.cls-13{stroke-width:8px;}</style></defs><title>Ativo 35</title><g id="Camada_2" data-name="Camada 2"><g id="Layer_1" data-name="Layer 1"><polyline class="cls-1" points="77.48 77.25 77.48 77.48 77.25 77.48"/><line class="cls-2" x1="72.59" y1="77.48" x2="3.21" y2="77.48"/><polyline class="cls-1" points="0.89 77.48 0.66 77.48 0.66 77.25"/><line class="cls-2" x1="0.66" y1="72.59" x2="0.66" y2="3.21"/><polyline class="cls-1" points="0.66 0.89 0.66 0.66 0.89 0.66"/><line class="cls-2" x1="5.54" y1="0.66" x2="74.92" y2="0.66"/><polyline class="cls-1" points="77.25 0.66 77.48 0.66 77.48 0.89"/><line class="cls-2" x1="77.48" y1="5.54" x2="77.48" y2="74.92"/><polyline class="cls-3" points="71.85 71.62 71.85 71.84 71.62 71.84"/><line class="cls-4" x1="67.03" y1="71.85" x2="8.81" y2="71.85"/><polyline class="cls-3" points="6.52 71.84 6.29 71.84 6.29 71.62"/><line class="cls-4" x1="6.29" y1="67.03" x2="6.29" y2="8.81"/><polyline class="cls-3" points="6.29 6.52 6.29 6.29 6.52 6.29"/><line class="cls-4" x1="11.1" y1="6.29" x2="69.32" y2="6.29"/><polyline class="cls-3" points="71.62 6.29 71.85 6.29 71.85 6.52"/><line class="cls-4" x1="71.85" y1="11.1" x2="71.85" y2="69.32"/><polyline class="cls-5" points="67.02 66.79 67.02 67.02 66.79 67.02"/><line class="cls-6" x1="62.17" y1="67.02" x2="13.65" y2="67.02"/><polyline class="cls-5" points="11.34 67.02 11.12 67.02 11.12 66.79"/><line class="cls-6" x1="11.11" y1="62.17" x2="11.11" y2="13.65"/><polyline class="cls-5" points="11.12 11.34 11.12 11.12 11.34 11.12"/><line class="cls-6" x1="15.96" y1="11.11" x2="64.48" y2="11.11"/><polyline class="cls-5" points="66.79 11.12 67.02 11.12 67.02 11.34"/><line class="cls-6" x1="67.02" y1="15.96" x2="67.02" y2="64.48"/><polyline class="cls-5" points="61.4 61.17 61.4 61.4 61.17 61.4"/><line class="cls-7" x1="56.66" y1="61.4" x2="19.22" y2="61.4"/><polyline class="cls-5" points="16.96 61.4 16.73 61.4 16.73 61.17"/><line class="cls-7" x1="16.73" y1="56.66" x2="16.73" y2="19.22"/><polyline class="cls-5" points="16.73 16.96 16.73 16.73 16.96 16.73"/><line class="cls-7" x1="21.47" y1="16.73" x2="58.92" y2="16.73"/><polyline class="cls-5" points="61.17 16.73 61.4 16.73 61.4 16.96"/><line class="cls-7" x1="61.4" y1="21.47" x2="61.4" y2="58.92"/><polyline class="cls-5" points="55.92 55.69 55.92 55.92 55.69 55.92"/><line class="cls-8" x1="51.31" y1="55.92" x2="24.63" y2="55.92"/><polyline class="cls-5" points="22.45 55.92 22.22 55.92 22.22 55.69"/><line class="cls-8" x1="22.22" y1="51.31" x2="22.22" y2="24.63"/><polyline class="cls-5" points="22.22 22.45 22.22 22.22 22.45 22.22"/><line class="cls-8" x1="26.82" y1="22.22" x2="53.5" y2="22.22"/><polyline class="cls-5" points="55.69 22.22 55.92 22.22 55.92 22.45"/><line class="cls-8" x1="55.92" y1="26.82" x2="55.92" y2="53.5"/><polyline class="cls-5" points="50.67 50.44 50.67 50.67 50.44 50.67"/><line class="cls-9" x1="46.23" y1="50.67" x2="29.8" y2="50.67"/><polyline class="cls-5" points="27.7 50.67 27.47 50.67 27.47 50.44"/><line class="cls-9" x1="27.47" y1="46.23" x2="27.47" y2="29.8"/><polyline class="cls-5" points="27.47 27.7 27.47 27.47 27.7 27.47"/><line class="cls-9" x1="31.91" y1="27.47" x2="48.33" y2="27.47"/><polyline class="cls-5" points="50.44 27.47 50.67 27.47 50.67 27.7"/><line class="cls-9" x1="50.67" y1="31.91" x2="50.67" y2="48.33"/><polyline class="cls-10" points="45.22 44.99 45.22 45.22 44.99 45.22"/><line class="cls-11" x1="39.35" y1="45.22" x2="35.96" y2="45.22"/><polyline class="cls-10" points="33.14 45.22 32.91 45.22 32.91 44.99"/><line class="cls-11" x1="32.91" y1="39.35" x2="32.91" y2="35.96"/><polyline class="cls-10" points="32.91 33.14 32.91 32.91 33.14 32.91"/><line class="cls-11" x1="38.78" y1="32.91" x2="42.17" y2="32.91"/><polyline class="cls-10" points="44.99 32.91 45.22 32.91 45.22 33.14"/><line class="cls-11" x1="45.22" y1="38.78" x2="45.22" y2="42.17"/><polyline class="cls-12" points="41.26 41.03 41.26 41.26 41.03 41.26"/><polyline class="cls-12" points="37.11 41.26 36.88 41.26 36.88 41.03"/><polyline class="cls-12" points="36.88 37.11 36.88 36.88 37.11 36.88"/><polyline class="cls-12" points="41.03 36.88 41.26 36.88 41.26 37.11"/><polyline class="cls-13" points="30.57 18.32 52.9 40.66 30.57 63"/></g></g></svg>