<svg xmlns="http://www.w3.org/2000/svg" viewBox="0 0 598.03 316.29"><defs><style>.cls-1,.cls-2,.cls-3,.cls-4,.cls-5,.cls-6,.cls-7,.cls-8,.cls-9{fill:none;stroke:#74d2da;stroke-miterlimit:10;stroke-width:2.03px;}.cls-2{stroke-dasharray:2.04 6.11;}.cls-3{stroke-dasharray:2.04 6.13;}.cls-4{stroke-dasharray:2 6.01;}.cls-5{stroke-dasharray:2.01 6.02;}.cls-6{stroke-dasharray:2.03 6.08;}.cls-7{stroke-dasharray:2.07 6.21;}.cls-8{stroke-dasharray:2.01 6.03;}.cls-9{stroke-dasharray:2 6;}</style></defs><title>Ativo 20</title><g id="Camada_2" data-name="Camada 2"><g id="Layer_1" data-name="Layer 1"><line class="cls-1" x1="597.01" y1="0.41" x2="597.01" y2="1.43"/><line class="cls-2" x1="597.01" y1="7.54" x2="597.01" y2="134.8"/><line class="cls-1" x1="597.01" y1="137.86" x2="597.01" y2="138.88"/><line class="cls-1" x1="590" y1="0.41" x2="590" y2="1.43"/><line class="cls-2" x1="590" y1="7.54" x2="590" y2="134.8"/><line class="cls-1" x1="590" y1="137.86" x2="590" y2="138.88"/><line class="cls-1" x1="582.99" y1="0.41" x2="582.99" y2="1.43"/><line class="cls-2" x1="582.99" y1="7.54" x2="582.99" y2="134.8"/><line class="cls-1" x1="582.99" y1="137.86" x2="582.99" y2="138.88"/><line class="cls-1" x1="575.98" y1="0.41" x2="575.98" y2="1.43"/><line class="cls-2" x1="575.98" y1="7.54" x2="575.98" y2="134.8"/><line class="cls-1" x1="575.98" y1="137.86" x2="575.98" y2="138.88"/><line class="cls-1" x1="568.97" y1="0.41" x2="568.97" y2="1.43"/><line class="cls-2" x1="568.97" y1="7.54" x2="568.97" y2="134.8"/><line class="cls-1" x1="568.97" y1="137.86" x2="568.97" y2="138.88"/><line class="cls-1" x1="561.96" y1="0.41" x2="561.96" y2="1.43"/><line class="cls-2" x1="561.96" y1="7.54" x2="561.96" y2="134.8"/><line class="cls-1" x1="561.96" y1="137.86" x2="561.96" y2="138.88"/><line class="cls-1" x1="554.94" y1="0.41" x2="554.94" y2="1.43"/><line class="cls-2" x1="554.94" y1="7.54" x2="554.94" y2="134.8"/><line class="cls-1" x1="554.94" y1="137.86" x2="554.94" y2="138.88"/><line class="cls-1" x1="547.93" y1="0.41" x2="547.93" y2="1.43"/><line class="cls-2" x1="547.93" y1="7.54" x2="547.93" y2="134.8"/><line class="cls-1" x1="547.93" y1="137.86" x2="547.93" y2="138.88"/><line class="cls-1" x1="540.92" y1="0.41" x2="540.92" y2="1.43"/><line class="cls-2" x1="540.92" y1="7.54" x2="540.92" y2="134.8"/><line class="cls-1" x1="540.92" y1="137.86" x2="540.92" y2="138.88"/><line class="cls-1" x1="533.91" y1="0.41" x2="533.91" y2="1.43"/><line class="cls-2" x1="533.91" y1="7.54" x2="533.91" y2="134.8"/><line class="cls-1" x1="533.91" y1="137.86" x2="533.91" y2="138.88"/><line class="cls-1" x1="526.9" y1="0.41" x2="526.9" y2="1.43"/><line class="cls-2" x1="526.9" y1="7.54" x2="526.9" y2="134.8"/><line class="cls-1" x1="526.9" y1="137.86" x2="526.9" y2="138.88"/><line class="cls-1" x1="519.88" y1="0.41" x2="519.88" y2="1.43"/><line class="cls-2" x1="519.88" y1="7.54" x2="519.88" y2="134.8"/><line class="cls-1" x1="519.88" y1="137.86" x2="519.88" y2="138.88"/><line class="cls-1" x1="512.87" y1="0.41" x2="512.87" y2="1.43"/><line class="cls-2" x1="512.87" y1="7.54" x2="512.87" y2="134.8"/><line class="cls-1" x1="512.87" y1="137.86" x2="512.87" y2="138.88"/><line class="cls-1" x1="505.86" y1="0.41" x2="505.86" y2="1.43"/><line class="cls-2" x1="505.86" y1="7.54" x2="505.86" y2="134.8"/><line class="cls-1" x1="505.86" y1="137.86" x2="505.86" y2="138.88"/><line class="cls-1" x1="498.85" y1="0.41" x2="498.85" y2="1.43"/><line class="cls-2" x1="498.85" y1="7.54" x2="498.85" y2="134.8"/><line class="cls-1" x1="498.85" y1="137.86" x2="498.85" y2="138.88"/><line class="cls-1" x1="491.84" y1="0.41" x2="491.84" y2="1.43"/><line class="cls-2" x1="491.84" y1="7.54" x2="491.84" y2="134.8"/><line class="cls-1" x1="491.84" y1="137.86" x2="491.84" y2="138.88"/><line class="cls-1" x1="484.83" y1="0.41" x2="484.83" y2="1.43"/><line class="cls-2" x1="484.83" y1="7.54" x2="484.83" y2="134.8"/><line class="cls-1" x1="484.83" y1="137.86" x2="484.83" y2="138.88"/><line class="cls-1" x1="477.81" x2="477.81" y2="1.02"/><line class="cls-3" x1="477.81" y1="7.14" x2="477.81" y2="134.8"/><line class="cls-1" x1="477.81" y1="137.86" x2="477.81" y2="138.88"/><line class="cls-1" x1="470.8" x2="470.8" y2="1.02"/><line class="cls-3" x1="470.8" y1="7.14" x2="470.8" y2="134.8"/><line class="cls-1" x1="470.8" y1="137.86" x2="470.8" y2="138.88"/><line class="cls-1" x1="463.79" x2="463.79" y2="1.02"/><line class="cls-3" x1="463.79" y1="7.14" x2="463.79" y2="134.8"/><line class="cls-1" x1="463.79" y1="137.86" x2="463.79" y2="138.88"/><line class="cls-1" x1="456.78" x2="456.78" y2="1.02"/><line class="cls-3" x1="456.78" y1="7.14" x2="456.78" y2="134.8"/><line class="cls-1" x1="456.78" y1="137.86" x2="456.78" y2="138.88"/><line class="cls-1" x1="449.77" x2="449.77" y2="1.02"/><line class="cls-3" x1="449.77" y1="7.14" x2="449.77" y2="134.8"/><line class="cls-1" x1="449.77" y1="137.86" x2="449.77" y2="138.88"/><line class="cls-1" x1="442.76" x2="442.76" y2="1.02"/><line class="cls-3" x1="442.76" y1="7.14" x2="442.76" y2="134.8"/><line class="cls-1" x1="442.76" y1="137.86" x2="442.76" y2="138.88"/><line class="cls-1" x1="435.74" x2="435.74" y2="1.02"/><line class="cls-3" x1="435.74" y1="7.14" x2="435.74" y2="134.8"/><line class="cls-1" x1="435.74" y1="137.86" x2="435.74" y2="138.88"/><line class="cls-1" x1="428.73" x2="428.73" y2="1.02"/><line class="cls-3" x1="428.73" y1="7.14" x2="428.73" y2="134.8"/><line class="cls-1" x1="428.73" y1="137.86" x2="428.73" y2="138.88"/><line class="cls-1" x1="421.72" x2="421.72" y2="1.02"/><line class="cls-4" x1="421.72" y1="7.03" x2="421.72" y2="260.45"/><line class="cls-1" x1="421.72" y1="263.46" x2="421.72" y2="264.47"/><line class="cls-1" x1="414.71" x2="414.71" y2="1.02"/><line class="cls-4" x1="414.71" y1="7.03" x2="414.71" y2="260.45"/><line class="cls-1" x1="414.71" y1="263.46" x2="414.71" y2="264.47"/><line class="cls-1" x1="407.7" x2="407.7" y2="1.02"/><line class="cls-4" x1="407.7" y1="7.03" x2="407.7" y2="260.45"/><line class="cls-1" x1="407.7" y1="263.46" x2="407.7" y2="264.47"/><line class="cls-1" x1="400.68" x2="400.68" y2="1.02"/><line class="cls-4" x1="400.68" y1="7.03" x2="400.68" y2="260.45"/><line class="cls-1" x1="400.68" y1="263.46" x2="400.68" y2="264.47"/><line class="cls-1" x1="393.67" x2="393.67" y2="1.02"/><line class="cls-4" x1="393.67" y1="7.03" x2="393.67" y2="260.45"/><line class="cls-1" x1="393.67" y1="263.46" x2="393.67" y2="264.47"/><line class="cls-1" x1="386.66" x2="386.66" y2="1.02"/><line class="cls-4" x1="386.66" y1="7.03" x2="386.66" y2="260.45"/><line class="cls-1" x1="386.66" y1="263.46" x2="386.66" y2="264.47"/><line class="cls-1" x1="379.65" x2="379.65" y2="1.02"/><line class="cls-4" x1="379.65" y1="7.03" x2="379.65" y2="260.45"/><line class="cls-1" x1="379.65" y1="263.46" x2="379.65" y2="264.47"/><line class="cls-1" x1="372.64" x2="372.64" y2="1.02"/><line class="cls-4" x1="372.64" y1="7.03" x2="372.64" y2="260.45"/><line class="cls-1" x1="372.64" y1="263.46" x2="372.64" y2="264.47"/><line class="cls-1" x1="365.63" x2="365.63" y2="1.02"/><line class="cls-4" x1="365.63" y1="7.03" x2="365.63" y2="260.45"/><line class="cls-1" x1="365.63" y1="263.46" x2="365.63" y2="264.47"/><line class="cls-1" x1="358.61" x2="358.61" y2="1.02"/><line class="cls-4" x1="358.61" y1="7.03" x2="358.61" y2="260.45"/><line class="cls-1" x1="358.61" y1="263.46" x2="358.61" y2="264.47"/><line class="cls-1" x1="351.6" x2="351.6" y2="1.02"/><line class="cls-4" x1="351.6" y1="7.03" x2="351.6" y2="260.45"/><line class="cls-1" x1="351.6" y1="263.46" x2="351.6" y2="264.47"/><line class="cls-1" x1="344.59" x2="344.59" y2="1.02"/><line class="cls-4" x1="344.59" y1="7.03" x2="344.59" y2="260.45"/><line class="cls-1" x1="344.59" y1="263.46" x2="344.59" y2="264.47"/><line class="cls-1" x1="337.58" x2="337.58" y2="1.02"/><line class="cls-4" x1="337.58" y1="7.03" x2="337.58" y2="260.45"/><line class="cls-1" x1="337.58" y1="263.46" x2="337.58" y2="264.47"/><line class="cls-1" x1="330.57" x2="330.57" y2="1.02"/><line class="cls-4" x1="330.57" y1="7.03" x2="330.57" y2="260.45"/><line class="cls-1" x1="330.57" y1="263.46" x2="330.57" y2="264.47"/><line class="cls-1" x1="323.56" x2="323.56" y2="1.02"/><line class="cls-4" x1="323.56" y1="7.03" x2="323.56" y2="260.45"/><line class="cls-1" x1="323.56" y1="263.46" x2="323.56" y2="264.47"/><line class="cls-1" x1="316.54" x2="316.54" y2="1.02"/><line class="cls-5" x1="316.54" y1="7.04" x2="316.54" y2="277.03"/><line class="cls-1" x1="316.54" y1="280.04" x2="316.54" y2="281.06"/><line class="cls-1" x1="309.53" x2="309.53" y2="1.02"/><line class="cls-5" x1="309.53" y1="7.04" x2="309.53" y2="277.03"/><line class="cls-1" x1="309.53" y1="280.04" x2="309.53" y2="281.06"/><line class="cls-1" x1="302.52" x2="302.52" y2="1.02"/><line class="cls-5" x1="302.52" y1="7.04" x2="302.52" y2="277.03"/><line class="cls-1" x1="302.52" y1="280.04" x2="302.52" y2="281.06"/><line class="cls-1" x1="295.51" x2="295.51" y2="1.02"/><line class="cls-5" x1="295.51" y1="7.04" x2="295.51" y2="277.03"/><line class="cls-1" x1="295.51" y1="280.04" x2="295.51" y2="281.06"/><line class="cls-1" x1="288.5" x2="288.5" y2="1.02"/><line class="cls-5" x1="288.5" y1="7.04" x2="288.5" y2="277.03"/><line class="cls-1" x1="288.5" y1="280.04" x2="288.5" y2="281.06"/><line class="cls-1" x1="281.49" x2="281.49" y2="1.02"/><line class="cls-5" x1="281.49" y1="7.04" x2="281.49" y2="277.03"/><line class="cls-1" x1="281.49" y1="280.04" x2="281.49" y2="281.06"/><line class="cls-1" x1="274.47" x2="274.47" y2="1.02"/><line class="cls-5" x1="274.47" y1="7.04" x2="274.47" y2="277.03"/><line class="cls-1" x1="274.47" y1="280.04" x2="274.47" y2="281.06"/><line class="cls-1" x1="267.46" x2="267.46" y2="1.02"/><line class="cls-5" x1="267.46" y1="7.04" x2="267.46" y2="277.03"/><line class="cls-1" x1="267.46" y1="280.04" x2="267.46" y2="281.06"/><line class="cls-1" x1="260.45" x2="260.45" y2="1.02"/><line class="cls-5" x1="260.45" y1="7.04" x2="260.45" y2="277.03"/><line class="cls-1" x1="260.45" y1="280.04" x2="260.45" y2="281.06"/><line class="cls-1" x1="253.44" x2="253.44" y2="1.02"/><line class="cls-5" x1="253.44" y1="7.04" x2="253.44" y2="277.03"/><line class="cls-1" x1="253.44" y1="280.04" x2="253.44" y2="281.06"/><line class="cls-1" x1="246.43" x2="246.43" y2="1.02"/><line class="cls-5" x1="246.43" y1="7.04" x2="246.43" y2="277.03"/><line class="cls-1" x1="246.43" y1="280.04" x2="246.43" y2="281.06"/><line class="cls-1" x1="239.41" x2="239.41" y2="1.02"/><line class="cls-6" x1="239.41" y1="7.1" x2="239.41" y2="312.23"/><line class="cls-1" x1="239.41" y1="315.27" x2="239.41" y2="316.29"/><line class="cls-1" x1="232.4" x2="232.4" y2="1.02"/><line class="cls-6" x1="232.4" y1="7.1" x2="232.4" y2="312.23"/><line class="cls-1" x1="232.4" y1="315.27" x2="232.4" y2="316.29"/><line class="cls-1" x1="225.39" x2="225.39" y2="1.02"/><line class="cls-6" x1="225.39" y1="7.1" x2="225.39" y2="312.23"/><line class="cls-1" x1="225.39" y1="315.27" x2="225.39" y2="316.29"/><line class="cls-1" x1="218.38" x2="218.38" y2="1.02"/><line class="cls-6" x1="218.38" y1="7.1" x2="218.38" y2="312.23"/><line class="cls-1" x1="218.38" y1="315.27" x2="218.38" y2="316.29"/><line class="cls-1" x1="211.37" x2="211.37" y2="1.02"/><line class="cls-6" x1="211.37" y1="7.1" x2="211.37" y2="312.23"/><line class="cls-1" x1="211.37" y1="315.27" x2="211.37" y2="316.29"/><line class="cls-1" x1="204.36" x2="204.36" y2="1.02"/><line class="cls-6" x1="204.36" y1="7.1" x2="204.36" y2="312.23"/><line class="cls-1" x1="204.36" y1="315.27" x2="204.36" y2="316.29"/><line class="cls-1" x1="197.34" x2="197.34" y2="1.02"/><line class="cls-6" x1="197.34" y1="7.1" x2="197.34" y2="312.23"/><line class="cls-1" x1="197.34" y1="315.27" x2="197.34" y2="316.29"/><line class="cls-1" x1="190.33" x2="190.33" y2="1.02"/><line class="cls-6" x1="190.33" y1="7.1" x2="190.33" y2="312.23"/><line class="cls-1" x1="190.33" y1="315.27" x2="190.33" y2="316.29"/><line class="cls-1" x1="183.32" x2="183.32" y2="1.02"/><line class="cls-6" x1="183.32" y1="7.1" x2="183.32" y2="312.23"/><line class="cls-1" x1="183.32" y1="315.27" x2="183.32" y2="316.29"/><line class="cls-1" x1="176.31" x2="176.31" y2="1.02"/><line class="cls-6" x1="176.31" y1="7.1" x2="176.31" y2="312.23"/><line class="cls-1" x1="176.31" y1="315.27" x2="176.31" y2="316.29"/><line class="cls-1" x1="169.3" x2="169.3" y2="1.02"/><line class="cls-6" x1="169.3" y1="7.1" x2="169.3" y2="312.23"/><line class="cls-1" x1="169.3" y1="315.27" x2="169.3" y2="316.29"/><line class="cls-1" x1="162.29" x2="162.29" y2="1.02"/><line class="cls-6" x1="162.29" y1="7.1" x2="162.29" y2="312.23"/><line class="cls-1" x1="162.29" y1="315.27" x2="162.29" y2="316.29"/><line class="cls-1" x1="155.27" x2="155.27" y2="1.02"/><line class="cls-6" x1="155.27" y1="7.1" x2="155.27" y2="312.23"/><line class="cls-1" x1="155.27" y1="315.27" x2="155.27" y2="316.29"/><line class="cls-1" x1="148.26" x2="148.26" y2="1.02"/><line class="cls-5" x1="148.26" y1="7.04" x2="148.26" y2="277.03"/><line class="cls-1" x1="148.26" y1="280.04" x2="148.26" y2="281.06"/><line class="cls-1" x1="141.25" x2="141.25" y2="1.02"/><line class="cls-5" x1="141.25" y1="7.04" x2="141.25" y2="277.03"/><line class="cls-1" x1="141.25" y1="280.04" x2="141.25" y2="281.06"/><line class="cls-1" x1="134.24" x2="134.24" y2="1.02"/><line class="cls-5" x1="134.24" y1="7.04" x2="134.24" y2="277.03"/><line class="cls-1" x1="134.24" y1="280.04" x2="134.24" y2="281.06"/><line class="cls-1" x1="127.23" x2="127.23" y2="1.02"/><line class="cls-5" x1="127.23" y1="7.04" x2="127.23" y2="277.03"/><line class="cls-1" x1="127.23" y1="280.04" x2="127.23" y2="281.06"/><line class="cls-1" x1="120.22" x2="120.22" y2="1.02"/><line class="cls-5" x1="120.22" y1="7.04" x2="120.22" y2="277.03"/><line class="cls-1" x1="120.22" y1="280.04" x2="120.22" y2="281.06"/><line class="cls-1" x1="113.2" x2="113.2" y2="1.02"/><line class="cls-5" x1="113.2" y1="7.04" x2="113.2" y2="277.03"/><line class="cls-1" x1="113.2" y1="280.04" x2="113.2" y2="281.06"/><line class="cls-1" x1="106.19" x2="106.19" y2="1.02"/><line class="cls-5" x1="106.19" y1="7.04" x2="106.19" y2="277.03"/><line class="cls-1" x1="106.19" y1="280.04" x2="106.19" y2="281.06"/><line class="cls-1" x1="99.18" x2="99.18" y2="1.02"/><line class="cls-5" x1="99.18" y1="7.04" x2="99.18" y2="277.03"/><line class="cls-1" x1="99.18" y1="280.04" x2="99.18" y2="281.06"/><line class="cls-1" x1="92.17" y1="99.07" x2="92.17" y2="100.09"/><line class="cls-7" x1="92.17" y1="106.29" x2="92.17" y2="276.94"/><line class="cls-1" x1="92.17" y1="280.04" x2="92.17" y2="281.06"/><line class="cls-1" x1="85.16" y1="99.07" x2="85.16" y2="100.09"/><line class="cls-7" x1="85.16" y1="106.29" x2="85.16" y2="276.94"/><line class="cls-1" x1="85.16" y1="280.04" x2="85.16" y2="281.06"/><line class="cls-1" x1="78.14" y1="99.07" x2="78.14" y2="100.09"/><line class="cls-7" x1="78.14" y1="106.29" x2="78.14" y2="276.94"/><line class="cls-1" x1="78.14" y1="280.04" x2="78.14" y2="281.06"/><line class="cls-1" x1="71.13" y1="99.07" x2="71.13" y2="100.09"/><line class="cls-7" x1="71.13" y1="106.29" x2="71.13" y2="276.94"/><line class="cls-1" x1="71.13" y1="280.04" x2="71.13" y2="281.06"/><line class="cls-1" x1="64.12" y1="99.07" x2="64.12" y2="100.09"/><line class="cls-7" x1="64.12" y1="106.29" x2="64.12" y2="276.94"/><line class="cls-1" x1="64.12" y1="280.04" x2="64.12" y2="281.06"/><line class="cls-1" x1="57.11" y1="99.07" x2="57.11" y2="100.09"/><line class="cls-8" x1="57.11" y1="106.12" x2="57.11" y2="135.26"/><line class="cls-1" x1="57.11" y1="138.27" x2="57.11" y2="139.29"/><line class="cls-1" x1="50.1" y1="99.07" x2="50.1" y2="100.09"/><line class="cls-8" x1="50.1" y1="106.12" x2="50.1" y2="135.26"/><line class="cls-1" x1="50.1" y1="138.27" x2="50.1" y2="139.29"/><line class="cls-1" x1="43.09" y1="99.07" x2="43.09" y2="100.09"/><line class="cls-8" x1="43.09" y1="106.12" x2="43.09" y2="135.26"/><line class="cls-1" x1="43.09" y1="138.27" x2="43.09" y2="139.29"/><line class="cls-1" x1="36.07" y1="99.07" x2="36.07" y2="100.09"/><line class="cls-8" x1="36.07" y1="106.12" x2="36.07" y2="135.26"/><line class="cls-1" x1="36.07" y1="138.27" x2="36.07" y2="139.29"/><line class="cls-1" x1="29.06" y1="99.07" x2="29.06" y2="100.09"/><line class="cls-8" x1="29.06" y1="106.12" x2="29.06" y2="135.26"/><line class="cls-1" x1="29.06" y1="138.27" x2="29.06" y2="139.29"/><line class="cls-1" x1="22.05" y1="99.28" x2="22.05" y2="100.29"/><line class="cls-9" x1="22.05" y1="106.29" x2="22.05" y2="135.28"/><line class="cls-1" x1="22.05" y1="138.27" x2="22.05" y2="139.29"/><line class="cls-1" x1="15.04" y1="99.28" x2="15.04" y2="100.29"/><line class="cls-9" x1="15.04" y1="106.29" x2="15.04" y2="135.28"/><line class="cls-1" x1="15.04" y1="138.27" x2="15.04" y2="139.29"/><line class="cls-1" x1="8.03" y1="99.28" x2="8.03" y2="100.29"/><line class="cls-9" x1="8.03" y1="106.29" x2="8.03" y2="135.28"/><line class="cls-1" x1="8.03" y1="138.27" x2="8.03" y2="139.29"/><line class="cls-1" x1="1.02" y1="99.28" x2="1.02" y2="100.29"/><line class="cls-9" x1="1.02" y1="106.29" x2="1.02" y2="135.28"/><line class="cls-1" x1="1.02" y1="138.27" x2="1.02" y2="139.29"/></g></g></svg>