<svg xmlns="http://www.w3.org/2000/svg" viewBox="0 0 34.22 28.56"><defs><style>.cls-1{fill:#5dbecd;}</style></defs><title>Ativo 38</title><g id="Camada_2" data-name="Camada 2"><g id="Layer_1" data-name="Layer 1"><path class="cls-1" d="M34.2,3.74c-.91,1-1.78,2-2.74,3a1.48,1.48,0,0,0-.56,1.2A20.62,20.62,0,0,1,25,22.57a18.89,18.89,0,0,1-11.53,5.79A20.49,20.49,0,0,1,.86,26.17,3.89,3.89,0,0,1,0,25.58a15.61,15.61,0,0,0,9.67-2.94A31.56,31.56,0,0,1,5.9,20.88,5.94,5.94,0,0,1,3.4,17.4H6.17C3,16.05,1.05,13.82.81,10.23l2.87.82.18-.14c-3-2.66-3.81-5.74-2-9.54A21.68,21.68,0,0,0,8.44,6.68,19.26,19.26,0,0,0,16.6,8.84a19.39,19.39,0,0,1,0-2.65A6.82,6.82,0,0,1,21.09.55a6.79,6.79,0,0,1,7.11,1.1A1.67,1.67,0,0,0,30.07,2c1-.42,2.09-.78,3.26-1.2a8.42,8.42,0,0,1-2.47,3.63l3.36-.72Z"/></g></g></svg>