<svg xmlns="http://www.w3.org/2000/svg" viewBox="0 0 32.05 36.94"><defs><style>.cls-1{fill:#5dbecd;}</style></defs><title>Ativo 41</title><g id="Camada_2" data-name="Camada 2"><g id="Layer_1" data-name="Layer 1"><path class="cls-1" d="M15.9,36.94c-4-.16-7.91-.27-11.85-.5A3.62,3.62,0,0,1,.53,33.12,45.28,45.28,0,0,1,.32,20.87c.07-.58.12-1.17.23-1.74A3.63,3.63,0,0,1,4,16c3.07-.21,6.14-.4,9.21-.38,4.9,0,9.8.17,14.7.37a3.68,3.68,0,0,1,3.67,3.43,45.72,45.72,0,0,1,0,13.67,3.69,3.69,0,0,1-3.69,3.4C23.86,36.66,19.88,36.78,15.9,36.94Zm2.8-4.88.35.28a1.89,1.89,0,0,0,2.1.53,2,2,0,0,0,1-1.92c0-.11,0-.22,0-.33,0-2,0-3.94,0-5.91A3.9,3.9,0,0,0,22,23.63a1.55,1.55,0,0,0-2.4-1c-.31.16-.59.38-1,.66V19.06H16.76V32.81h1.78Zm-9-9.48v3.73c0,1.68,0,3.36,0,5s1.15,2.1,2.48,1.28c.22-.13.41-.31.62-.45a1.76,1.76,0,0,1,.31-.16l.18.75h1.76V22.58H13.2v1.11c0,2,0,4.1,0,6.14a1.34,1.34,0,0,1-.77,1.33c-.46.25-.79.14-.84-.42,0-.33,0-.66,0-1V22.58ZM29.33,28c0-.6,0-1.07,0-1.54a14.87,14.87,0,0,0-.11-1.63,2.75,2.75,0,0,0-5.48.11c-.09,1.79-.07,3.58,0,5.37a2.61,2.61,0,0,0,1.91,2.53c1.94.57,4.17-.74,3.52-3.57h-1.7a3.79,3.79,0,0,1-.17,1.24c-.15.31-.53.7-.8.7a1.13,1.13,0,0,1-.81-.69A22.06,22.06,0,0,1,25.5,28ZM2.9,19v1.89L5.08,21V32.8H7.2V21l2.15-.11V19H2.9Z"/><path class="cls-1" d="M9.38,5.08c.45-1.69.89-3.38,1.34-5.08h2a7.06,7.06,0,0,1-.13.74c-.22.77-.43,1.55-.7,2.3a22.93,22.93,0,0,0-1.57,10.07,5.56,5.56,0,0,1,0,.67H8.38a58.28,58.28,0,0,0-.56-7A57.42,57.42,0,0,0,5.69,0H7.83l1.39,5Z"/><path class="cls-1" d="M18.47,8.9a25.66,25.66,0,0,1-.22,2.93A2.5,2.5,0,0,1,15.43,14,2.48,2.48,0,0,1,13,11.56a51.25,51.25,0,0,1,0-5.68A2.44,2.44,0,0,1,15.49,3.4a2.5,2.5,0,0,1,2.8,2.32C18.44,6.73,18.41,7.76,18.47,8.9Zm-2-.25c0-.81,0-1.61,0-2.42,0-.59-.19-1.15-.89-1.14s-.84.57-.85,1.1c0,1.68,0,3.36,0,5.05,0,.52.22,1,.9,1s.82-.54.83-1.09C16.5,10.33,16.49,9.49,16.49,8.65Z"/><path class="cls-1" d="M20,3.54h1.73c0,.4.05.76.05,1.11,0,2.16,0,4.32,0,6.48,0,.43-.18,1,.52,1.13.47.06,1.08-.57,1.14-1.14a6.57,6.57,0,0,0,0-.77V3.58h1.77V13.74H23.53L23.42,13a1.72,1.72,0,0,0-.3.11c-.12.08-.21.2-.33.29a1.94,1.94,0,0,1-2.12.46C19.92,13.48,20,12.71,20,12c0-2.6,0-5.2,0-7.79C20,4,20,3.81,20,3.54Z"/><path class="cls-1" d="M18.62,27.64c0-.88,0-1.75,0-2.63a.8.8,0,0,1,.83-.92c.56-.05.79.34.85.8a14.8,14.8,0,0,1,.06,1.63c0,1.28,0,2.55,0,3.83,0,.49-.24,1-.85.93a.85.85,0,0,1-.85-1C18.64,29.39,18.62,28.51,18.62,27.64Z"/><path class="cls-1" d="M25.49,26.42a8.22,8.22,0,0,1,.2-1.67c.09-.28.5-.64.74-.62a1.15,1.15,0,0,1,.86.61,6.66,6.66,0,0,1,.18,1.68Z"/></g></g></svg>